<svg viewBox="0 0 378 314" xmlns="http://www.w3.org/2000/svg" xmlns:xlink="http://www.w3.org/1999/xlink" width="378.000000" height="314.000000" fill="none" clip-path="url(#clipPath_0)" customFrame="url(#clipPath_0)">
	<defs>
		<clipPath id="clipPath_0">
			<rect width="378.000000" height="314.000000" x="0.000000" y="0.000000" rx="30.000000" fill="rgb(255,255,255)" />
		</clipPath>
		<clipPath id="clipPath_1">
			<rect width="557.411194" height="438.121948" x="0.000000" y="0.000000" rx="19.025000" fill="rgb(255,255,255)" transform="matrix(0.984808,0.173648,-0.173648,0.984808,-48,-107)" />
		</clipPath>
		<clipPath id="clipPath_2">
			<rect width="557.411194" height="141.947739" x="0.000000" y="0.000000" fill="rgb(255,255,255)" transform="matrix(0.984808,0.173648,-0.173648,0.984808,-48,-107)" />
		</clipPath>
		<clipPath id="clipPath_3">
			<rect width="106.460831" height="141.947784" x="0.000000" y="0.000000" rx="19.025000" fill="rgb(255,255,255)" transform="matrix(0.984808,0.173648,-0.174411,0.984673,-47.8921,-106.981)" />
		</clipPath>
		<clipPath id="clipPath_4">
			<rect width="106.460831" height="141.947784" x="0.000000" y="0.000000" rx="19.025000" fill="rgb(255,255,255)" transform="matrix(0.984808,0.173648,-0.174411,0.984673,63.106,-87.4089)" />
		</clipPath>
		<clipPath id="clipPath_5">
			<rect width="106.460831" height="141.947784" x="0.000000" y="0.000000" rx="19.025000" fill="rgb(255,255,255)" transform="matrix(0.984808,0.173648,-0.174411,0.984673,174.104,-67.837)" />
		</clipPath>
		<clipPath id="clipPath_6">
			<rect width="106.460831" height="141.947784" x="0.000000" y="0.000000" rx="19.025000" fill="rgb(255,255,255)" transform="matrix(0.984808,0.173648,-0.174411,0.984673,285.102,-48.2651)" />
		</clipPath>
		<clipPath id="clipPath_7">
			<rect width="106.460831" height="141.947784" x="0.000000" y="0.000000" rx="19.025000" fill="rgb(255,255,255)" transform="matrix(0.984808,0.173648,-0.174411,0.984673,396.1,-28.6934)" />
		</clipPath>
		<clipPath id="clipPath_8">
			<rect width="557.411194" height="141.947739" x="0.000000" y="0.000000" fill="rgb(255,255,255)" transform="matrix(0.984808,0.173648,-0.173648,0.984808,-73.7148,38.8374)" />
		</clipPath>
		<clipPath id="clipPath_9">
			<rect width="106.460831" height="141.947784" x="0.000000" y="0.000000" rx="19.025000" fill="rgb(255,255,255)" transform="matrix(0.984808,0.173648,-0.174411,0.984673,-73.6069,38.8564)" />
		</clipPath>
		<clipPath id="clipPath_10">
			<rect width="106.460831" height="141.947784" x="0.000000" y="0.000000" rx="19.025000" fill="rgb(255,255,255)" transform="matrix(0.984808,0.173648,-0.174411,0.984673,37.3911,58.4283)" />
		</clipPath>
		<clipPath id="clipPath_11">
			<rect width="106.460831" height="141.947784" x="0.000000" y="0.000000" rx="19.025000" fill="rgb(255,255,255)" transform="matrix(0.984808,0.173648,-0.174411,0.984673,148.389,78.0004)" />
		</clipPath>
		<clipPath id="clipPath_12">
			<rect width="106.460831" height="141.947784" x="0.000000" y="0.000000" rx="19.025000" fill="rgb(255,255,255)" transform="matrix(0.984808,0.173648,-0.174411,0.984673,259.387,97.5721)" />
		</clipPath>
		<clipPath id="clipPath_13">
			<rect width="106.460831" height="141.947784" x="0.000000" y="0.000000" rx="19.025000" fill="rgb(255,255,255)" transform="matrix(0.984808,0.173648,-0.174411,0.984673,370.384,117.144)" />
		</clipPath>
		<clipPath id="clipPath_14">
			<rect width="557.411194" height="141.947739" x="0.000000" y="0.000000" fill="rgb(255,255,255)" transform="matrix(0.984808,0.173648,-0.173648,0.984808,-99.4302,184.675)" />
		</clipPath>
		<clipPath id="clipPath_15">
			<rect width="106.460831" height="141.947784" x="0.000000" y="0.000000" rx="19.025000" fill="rgb(255,255,255)" transform="matrix(0.984808,0.173648,-0.174411,0.984673,-99.3218,184.694)" />
		</clipPath>
		<clipPath id="clipPath_16">
			<rect width="106.460831" height="141.947784" x="0.000000" y="0.000000" rx="19.025000" fill="rgb(255,255,255)" transform="matrix(0.984808,0.173648,-0.174411,0.984673,11.6758,204.266)" />
		</clipPath>
		<clipPath id="clipPath_17">
			<rect width="106.460831" height="141.947784" x="0.000000" y="0.000000" rx="19.025000" fill="rgb(255,255,255)" transform="matrix(0.984808,0.173648,-0.174411,0.984673,122.674,223.838)" />
		</clipPath>
		<clipPath id="clipPath_18">
			<rect width="106.460831" height="141.947784" x="0.000000" y="0.000000" rx="19.025000" fill="rgb(255,255,255)" transform="matrix(0.984808,0.173648,-0.174411,0.984673,233.671,243.409)" />
		</clipPath>
		<clipPath id="clipPath_19">
			<rect width="106.460831" height="141.947784" x="0.000000" y="0.000000" rx="19.025000" fill="rgb(255,255,255)" transform="matrix(0.984808,0.173648,-0.174411,0.984673,344.669,262.981)" />
		</clipPath>
		<g id="pixso_custom_effect_0">
			<effect x="0.000000" y="15.265896" visibility="visible" fill="rgb(0,0,0)" fill-opacity="0.300000012" effectType="dropShadow" stdDeviation="51.1407547" radius="-9.15953636" />
		</g>
		<filter id="filter_0" width="247.073242" height="284.280640" x="64.957520" y="30.173706" filterUnits="userSpaceOnUse" customEffect="url(#pixso_custom_effect_0)" color-interpolation-filters="sRGB">
			<feFlood flood-opacity="0" result="BackgroundImageFix" />
			<feColorMatrix result="hardAlpha" in="SourceAlpha" type="matrix" values="0 0 0 0 0 0 0 0 0 0 0 0 0 0 0 0 0 0 127 0 " />
			<feOffset dx="4259.000000" dy="1769.266113" in="hardAlpha" />
			<feMorphology radius="-9.15953636" operator="dilate" />
			<feOffset dx="-4259.000000" dy="-1754.000244" />
			<feGaussianBlur stdDeviation="17.0469189" />
			<feComposite k2="-1" k3="1" in2="hardAlpha" operator="out" />
			<feColorMatrix type="matrix" values="0 0 0 0 0 0 0 0 0 0 0 0 0 0 0 0 0 0 0.3 0 " />
			<feBlend result="effect_dropShadow_1" in2="BackgroundImageFix" mode="normal" />
			<feBlend result="shape" in="SourceGraphic" in2="effect_dropShadow_1" mode="normal" />
		</filter>
		<clipPath id="clipPath_20">
			<rect width="138.132965" height="184.177322" x="0.000000" y="0.000000" rx="19.025000" fill="rgb(255,255,255)" transform="matrix(0.984808,0.173648,-0.174411,0.984673,136.538,54.3774)" />
		</clipPath>
	</defs>
	<rect id="Обложка карточки" width="378.000000" height="314.000000" x="0.000000" y="0.000000" rx="30.000000" fill="rgb(39,26,88)" />
	<g id="Group 1597880559">
		<g id="Frame 2043683114" customFrame="url(#clipPath_1)">
			<rect id="Frame 2043683114" width="557.411194" height="438.121948" x="0.000000" y="0.000000" rx="19.025000" transform="matrix(0.984808,0.173648,-0.173648,0.984808,-48,-107)" />
			<g id="Frame 2043683111" customFrame="url(#clipPath_2)">
				<rect id="Frame 2043683111" width="557.411194" height="141.947739" x="0.000000" y="0.000000" transform="matrix(0.984808,0.173648,-0.173648,0.984808,-48,-107)" />
				<g id="Frame 2043683103" customFrame="url(#clipPath_3)">
					<rect id="Frame 2043683103" width="106.460831" height="141.947784" x="0.000000" y="0.000000" rx="19.025000" fill="rgb(86,94,239)" transform="matrix(0.984808,0.173648,-0.174411,0.984673,-47.8921,-106.981)" />
					<rect id="Frame 2043683103" width="105.960831" height="141.447784" x="0.250000" y="0.250000" rx="19.025000" stroke="rgb(39,26,88)" stroke-width="0.5" transform="matrix(0.984808,0.173648,-0.174411,0.984673,-47.8921,-106.981)" />
					<path id="?" d="M10.7594 32.0834C10.7594 30.4462 11.1196 29.1038 11.84 28.056C12.5603 26.9754 13.6081 25.7967 14.9833 24.5197C15.9329 23.6356 16.6368 22.8989 17.0953 22.3095C17.5537 21.6874 17.7829 21.0325 17.7829 20.3449C17.7829 19.3954 17.3736 18.6423 16.555 18.0856C15.7691 17.4963 14.7377 17.2016 13.4607 17.2016C12.151 17.2016 10.9559 17.5126 9.87536 18.1348C8.82757 18.7569 7.97625 19.6246 7.32138 20.7378L0.00325668 16.8087C1.34573 14.5166 3.24484 12.7321 5.70059 11.4551C8.15633 10.1781 11.1196 9.53964 14.5904 9.53964C18.4868 9.53964 21.6138 10.3582 23.9713 11.9954C26.3616 13.5998 27.5567 15.8591 27.5567 18.7732C27.5567 20.1157 27.3275 21.3109 26.8691 22.3586C26.4107 23.3737 25.8541 24.2414 25.1992 24.9617C24.5771 25.6493 23.7585 26.4352 22.7435 27.3192C21.6302 28.2688 20.8116 29.0874 20.2877 29.775C19.7638 30.4299 19.5019 31.1993 19.5019 32.0834L10.7594 32.0834ZM15.1307 45.0497C13.5262 45.0497 12.2001 44.5586 11.1523 43.5763C10.1046 42.5612 9.58067 41.3334 9.58067 39.8927C9.58067 38.4192 10.0882 37.2077 11.1032 36.2582C12.151 35.3086 13.4935 34.8338 15.1307 34.8338C16.7678 34.8338 18.1103 35.3086 19.1581 36.2582C20.2059 37.2077 20.7298 38.4192 20.7298 39.8927C20.7298 41.3334 20.2059 42.5612 19.1581 43.5763C18.1103 44.5586 16.7678 45.0497 15.1307 45.0497Z" fill="rgb(255,255,255)" fill-rule="nonzero" transform="matrix(0.984808,0.173648,-0.174411,0.984673,-17.9121,-57.0422)" />
					<path id="?" d="M11.4184 27.7661Q10.2478 29.4688 10.2478 32.0834L10.2478 32.595L20.0135 32.595L20.0135 32.0834Q20.0135 31.351 20.2883 30.7429Q20.4438 30.3989 20.6872 30.0946L20.691 30.0899L20.6947 30.0851Q21.4473 29.0973 23.0795 27.705Q24.625 26.359 25.5778 25.3059Q26.6145 24.1655 27.3378 22.5637Q28.0683 20.894 28.0683 18.7732Q28.0683 16.4607 27.1126 14.6539Q27.0497 14.5349 26.9826 14.4182Q26.0315 12.7621 24.2632 11.5752Q20.5953 9.02803 14.5904 9.02803Q9.25914 9.02803 5.46455 11.0012Q3.06595 12.2485 1.34991 14.1212Q0.336933 15.2267 -0.438206 16.5501L-0.706556 17.0082L7.51288 21.4214L7.76236 20.9972Q8.4621 19.8077 9.47552 19.0234Q9.78815 18.7815 10.1306 18.5781Q10.5862 18.3158 11.0718 18.133Q12.1873 17.7132 13.4607 17.7132Q15.2057 17.7132 16.248 18.4949L16.2575 18.502L16.2673 18.5087Q16.7786 18.8564 17.0264 19.3122Q17.0285 19.3162 17.0307 19.3202Q17.2712 19.768 17.2712 20.3449Q17.2712 20.4844 17.2559 20.6221Q17.1766 21.3343 16.6873 22.0008Q16.0246 22.8512 14.6352 24.1448Q12.5282 26.1012 11.4184 27.7661ZM17.0953 22.3095C16.6368 22.8989 15.9329 23.6356 14.9833 24.5197C13.6081 25.7967 12.5603 26.9754 11.84 28.056C11.1961 28.9925 10.84 30.1644 10.7716 31.5718C10.7635 31.739 10.7594 31.9095 10.7594 32.0834L19.5019 32.0834Q19.5019 31.2617 19.8036 30.5719Q19.9888 30.1486 20.2877 29.775Q21.0736 28.7436 22.7435 27.3192C23.7585 26.4352 24.5771 25.6493 25.1992 24.9617C25.8541 24.2414 26.4107 23.3737 26.8691 22.3586C27.3275 21.3109 27.5567 20.1157 27.5567 18.7732C27.5567 15.8591 26.3616 13.5998 23.9713 11.9954Q20.4351 9.53964 14.5904 9.53964C11.1196 9.53964 8.15633 10.1781 5.70059 11.4551Q3.36723 12.6685 1.70391 14.4927Q0.910856 15.3626 0.270122 16.3712Q0.133212 16.5868 0.00325668 16.8087L0.454331 17.0508L7.32138 20.7378Q8.04014 19.516 9.07445 18.6885Q9.45369 18.3851 9.87536 18.1348C10.9559 17.5126 12.151 17.2016 13.4607 17.2016Q15.3762 17.2016 16.555 18.0856Q17.2272 18.5427 17.5314 19.1765Q17.7829 19.7004 17.7829 20.3449Q17.7829 20.5615 17.7525 20.7738Q17.6385 21.5723 17.0953 22.3095ZM11.9746 44.8055Q13.344 45.5613 15.1307 45.5614Q17.0207 45.5614 18.4392 44.7435Q19.0156 44.4111 19.5141 43.9437Q20.41 43.0758 20.8412 42.0184Q21.2414 41.0371 21.2414 39.8927Q21.2414 38.5363 20.7024 37.4464Q20.2731 36.5782 19.5016 35.8791Q19.076 35.4933 18.593 35.2032Q17.1264 34.3222 15.1307 34.3222Q13.1512 34.3222 11.689 35.1919Q11.1914 35.4879 10.7537 35.8845Q10.0514 36.5416 9.64184 37.3474Q9.06905 38.4745 9.06905 39.8927Q9.06905 41.0235 9.46114 41.9963Q9.89345 43.069 10.8024 43.9495Q11.3443 44.4576 11.9746 44.8055ZM12.1684 44.3265Q13.4446 45.0497 15.1307 45.0497Q16.9363 45.0497 18.2641 44.2531Q18.742 43.9663 19.1581 43.5763C20.2059 42.5612 20.7298 41.3334 20.7298 39.8927Q20.7298 38.6494 20.2325 37.6549Q19.8457 36.8813 19.1581 36.2582Q18.8006 35.9342 18.3973 35.6839Q17.0278 34.8338 15.1307 34.8338Q13.2335 34.8338 11.864 35.6839Q11.4607 35.9342 11.1032 36.2582C10.0882 37.2077 9.58067 38.4192 9.58067 39.8927C9.58067 41.3334 10.1046 42.5612 11.1523 43.5763Q11.6229 44.0175 12.1684 44.3265Z" fill="rgb(39,26,88)" fill-rule="evenodd" transform="matrix(0.984808,0.173648,-0.174411,0.984673,-17.9121,-57.0422)" />
				</g>
				<g id="Frame 2043683100" customFrame="url(#clipPath_4)">
					<rect id="Frame 2043683100" width="106.460831" height="141.947784" x="0.000000" y="0.000000" rx="19.025000" fill="rgb(0,158,228)" transform="matrix(0.984808,0.173648,-0.174411,0.984673,63.106,-87.4089)" />
					<rect id="Frame 2043683100" width="105.960831" height="141.447784" x="0.250000" y="0.250000" rx="19.025000" stroke="rgb(39,26,88)" stroke-width="0.5" transform="matrix(0.984808,0.173648,-0.174411,0.984673,63.106,-87.4089)" />
					<path id="?" d="M10.7594 32.0834C10.7594 30.4462 11.1196 29.1038 11.84 28.056C12.5603 26.9754 13.6081 25.7967 14.9833 24.5197C15.9329 23.6356 16.6368 22.8989 17.0953 22.3095C17.5537 21.6874 17.7829 21.0325 17.7829 20.3449C17.7829 19.3954 17.3736 18.6423 16.555 18.0856C15.7691 17.4963 14.7377 17.2016 13.4607 17.2016C12.151 17.2016 10.9559 17.5126 9.87536 18.1348C8.82757 18.7569 7.97625 19.6246 7.32138 20.7378L0.00325668 16.8087C1.34573 14.5166 3.24484 12.7321 5.70059 11.4551C8.15633 10.1781 11.1196 9.53964 14.5904 9.53964C18.4868 9.53964 21.6138 10.3582 23.9713 11.9954C26.3616 13.5998 27.5567 15.8591 27.5567 18.7732C27.5567 20.1157 27.3275 21.3109 26.8691 22.3586C26.4107 23.3737 25.8541 24.2414 25.1992 24.9617C24.5771 25.6493 23.7585 26.4352 22.7435 27.3192C21.6302 28.2688 20.8116 29.0874 20.2877 29.775C19.7638 30.4299 19.5019 31.1993 19.5019 32.0834L10.7594 32.0834ZM15.1307 45.0497C13.5262 45.0497 12.2001 44.5586 11.1523 43.5763C10.1046 42.5612 9.58067 41.3334 9.58067 39.8927C9.58067 38.4192 10.0882 37.2077 11.1032 36.2582C12.151 35.3086 13.4935 34.8338 15.1307 34.8338C16.7678 34.8338 18.1103 35.3086 19.1581 36.2582C20.2059 37.2077 20.7298 38.4192 20.7298 39.8927C20.7298 41.3334 20.2059 42.5612 19.1581 43.5763C18.1103 44.5586 16.7678 45.0497 15.1307 45.0497Z" fill="rgb(255,255,255)" fill-rule="nonzero" transform="matrix(0.984808,0.173648,-0.174411,0.984673,93.0859,-37.4705)" />
					<path id="?" d="M11.4184 27.7661Q10.2478 29.4688 10.2478 32.0834L10.2478 32.595L20.0135 32.595L20.0135 32.0834Q20.0135 31.351 20.2883 30.7429Q20.4438 30.3989 20.6872 30.0946L20.691 30.0899L20.6947 30.0851Q21.4473 29.0973 23.0795 27.705Q24.625 26.359 25.5778 25.3059Q26.6145 24.1655 27.3378 22.5637Q28.0683 20.894 28.0683 18.7732Q28.0683 16.4607 27.1126 14.6539Q27.0497 14.5349 26.9826 14.4182Q26.0315 12.7621 24.2632 11.5752Q20.5953 9.02803 14.5904 9.02803Q9.25914 9.02803 5.46455 11.0012Q3.06595 12.2485 1.34991 14.1212Q0.336933 15.2267 -0.438206 16.5501L-0.706556 17.0082L7.51288 21.4214L7.76236 20.9972Q8.4621 19.8077 9.47552 19.0234Q9.78815 18.7815 10.1306 18.5781Q10.5862 18.3158 11.0718 18.133Q12.1873 17.7132 13.4607 17.7132Q15.2057 17.7132 16.248 18.4949L16.2575 18.502L16.2673 18.5087Q16.7786 18.8564 17.0264 19.3122Q17.0285 19.3162 17.0307 19.3202Q17.2712 19.768 17.2712 20.3449Q17.2712 20.4844 17.2559 20.6221Q17.1766 21.3343 16.6873 22.0008Q16.0246 22.8512 14.6352 24.1448Q12.5282 26.1012 11.4184 27.7661ZM17.0953 22.3095C16.6368 22.8989 15.9329 23.6356 14.9833 24.5197C13.6081 25.7967 12.5603 26.9754 11.84 28.056C11.1961 28.9925 10.84 30.1644 10.7716 31.5718C10.7635 31.739 10.7594 31.9095 10.7594 32.0834L19.5019 32.0834Q19.5019 31.2617 19.8036 30.5719Q19.9888 30.1486 20.2877 29.775Q21.0736 28.7436 22.7435 27.3192C23.7585 26.4352 24.5771 25.6493 25.1992 24.9617C25.8541 24.2414 26.4107 23.3737 26.8691 22.3586C27.3275 21.3109 27.5567 20.1157 27.5567 18.7732C27.5567 15.8591 26.3616 13.5998 23.9713 11.9954Q20.4351 9.53964 14.5904 9.53964C11.1196 9.53964 8.15633 10.1781 5.70059 11.4551Q3.36723 12.6685 1.70391 14.4927Q0.910856 15.3626 0.270122 16.3712Q0.133212 16.5868 0.00325668 16.8087L0.454331 17.0508L7.32138 20.7378Q8.04014 19.516 9.07445 18.6885Q9.45369 18.3851 9.87536 18.1348C10.9559 17.5126 12.151 17.2016 13.4607 17.2016Q15.3762 17.2016 16.555 18.0856Q17.2272 18.5427 17.5314 19.1765Q17.7829 19.7004 17.7829 20.3449Q17.7829 20.5615 17.7525 20.7738Q17.6385 21.5723 17.0953 22.3095ZM11.9746 44.8055Q13.344 45.5613 15.1307 45.5614Q17.0207 45.5614 18.4392 44.7435Q19.0156 44.4111 19.5141 43.9437Q20.41 43.0758 20.8412 42.0184Q21.2414 41.0371 21.2414 39.8927Q21.2414 38.5363 20.7024 37.4464Q20.2731 36.5782 19.5016 35.8791Q19.076 35.4933 18.593 35.2032Q17.1264 34.3222 15.1307 34.3222Q13.1512 34.3222 11.689 35.1919Q11.1914 35.4879 10.7537 35.8845Q10.0514 36.5416 9.64184 37.3474Q9.06905 38.4745 9.06905 39.8927Q9.06905 41.0235 9.46114 41.9963Q9.89345 43.069 10.8024 43.9495Q11.3443 44.4576 11.9746 44.8055ZM12.1684 44.3265Q13.4446 45.0497 15.1307 45.0497Q16.9363 45.0497 18.2641 44.2531Q18.742 43.9663 19.1581 43.5763C20.2059 42.5612 20.7298 41.3334 20.7298 39.8927Q20.7298 38.6494 20.2325 37.6549Q19.8457 36.8813 19.1581 36.2582Q18.8006 35.9342 18.3973 35.6839Q17.0278 34.8338 15.1307 34.8338Q13.2335 34.8338 11.864 35.6839Q11.4607 35.9342 11.1032 36.2582C10.0882 37.2077 9.58067 38.4192 9.58067 39.8927C9.58067 41.3334 10.1046 42.5612 11.1523 43.5763Q11.6229 44.0175 12.1684 44.3265Z" fill="rgb(39,26,88)" fill-rule="evenodd" transform="matrix(0.984808,0.173648,-0.174411,0.984673,93.0859,-37.4705)" />
				</g>
				<g id="Frame 2043683094" customFrame="url(#clipPath_5)">
					<rect id="Frame 2043683094" width="106.460831" height="141.947784" x="0.000000" y="0.000000" rx="19.025000" fill="rgb(173,97,255)" transform="matrix(0.984808,0.173648,-0.174411,0.984673,174.104,-67.837)" />
					<rect id="Frame 2043683094" width="105.960831" height="141.447784" x="0.250000" y="0.250000" rx="19.025000" stroke="rgb(39,26,88)" stroke-width="0.5" transform="matrix(0.984808,0.173648,-0.174411,0.984673,174.104,-67.837)" />
					<path id="?" d="M13.2436 39.8011C13.2436 37.7717 13.6901 36.1077 14.583 34.8089C15.4759 33.4696 16.7747 32.0084 18.4793 30.4256C19.6563 29.3297 20.5289 28.4165 21.0972 27.686C21.6654 26.9148 21.9495 26.1031 21.9495 25.2508C21.9495 24.0737 21.4421 23.1403 20.4275 22.4503C19.4534 21.7197 18.1749 21.3544 16.592 21.3544C14.9686 21.3544 13.4872 21.74 12.1478 22.5112C10.849 23.2823 9.79376 24.3579 8.98203 25.7378L-0.0890895 20.8674C1.57496 18.0263 3.92899 15.8144 6.97299 14.2315C10.017 12.6486 13.6901 11.8572 17.9923 11.8572C22.8221 11.8572 26.6981 12.8718 29.6204 14.9012C32.5832 16.8899 34.0646 19.6904 34.0646 23.3026C34.0646 24.9667 33.7805 26.4481 33.2123 27.7468C32.6441 29.005 31.9541 30.0806 31.1424 30.9735C30.3712 31.8258 29.3565 32.7999 28.0984 33.8957C26.7184 35.0727 25.7037 36.0874 25.0544 36.9397C24.405 37.7515 24.0803 38.7052 24.0803 39.8011L13.2436 39.8011ZM18.662 55.8734C16.6732 55.8734 15.0294 55.2646 13.7307 54.047C12.4319 52.7888 11.7825 51.2668 11.7825 49.481C11.7825 47.6546 12.4116 46.1529 13.6698 44.9759C14.9686 43.7989 16.6326 43.2104 18.662 43.2104C20.6913 43.2104 22.3553 43.7989 23.6541 44.9759C24.9529 46.1529 25.6023 47.6546 25.6023 49.481C25.6023 51.2668 24.9529 52.7888 23.6541 54.047C22.3553 55.2646 20.6913 55.8734 18.662 55.8734Z" fill="rgb(255,255,255)" fill-rule="nonzero" transform="matrix(0.984808,0.173648,-0.174411,0.984673,201.771,-24.9066)" />
					<path id="?" d="M14.1614 34.5191Q12.732 36.5982 12.732 39.8011L12.732 40.3127L24.5919 40.3127L24.5919 39.8011Q24.5919 38.8719 24.939 38.0985Q25.1388 37.6531 25.4539 37.2593L25.4577 37.2546L25.4613 37.2498Q26.4022 36.0149 28.4344 34.2815Q30.3446 32.6178 31.5209 31.3176Q32.7929 29.9184 33.681 27.9519Q34.5762 25.9057 34.5762 23.3026Q34.5762 20.4665 33.4058 18.2539Q33.337 18.1238 33.2642 17.9961Q32.0981 15.9481 29.9122 14.4809Q25.3972 11.3455 17.9923 11.3455Q11.4139 11.3456 6.73696 13.7776Q3.77937 15.3155 1.66487 17.6253Q0.421374 18.9836 -0.530553 20.6088L-0.798902 21.067L9.17353 26.4213L9.42301 25.9972Q10.2949 24.5149 11.5561 23.5323Q11.9597 23.2178 12.4031 22.9545Q12.9818 22.6213 13.5987 22.3901Q14.9972 21.8661 16.592 21.8661Q18.7958 21.8661 20.1205 22.8596L20.13 22.8667L20.1398 22.8733Q20.7982 23.3211 21.1195 23.9122Q21.1284 23.9286 21.1371 23.9452Q21.4379 24.5192 21.4379 25.2508Q21.4379 25.4418 21.4156 25.6301Q21.3087 26.534 20.6892 27.3772Q19.8618 28.4394 18.1312 30.0507Q15.5301 32.4659 14.1614 34.5191ZM21.0972 27.686Q20.2448 28.7818 18.4793 30.4256Q15.9224 32.7999 14.583 34.8089C13.7663 35.9968 13.3231 37.4904 13.2534 39.2895C13.2469 39.4573 13.2436 39.6279 13.2436 39.8011L24.0803 39.8011C24.0803 38.7052 24.405 37.7515 25.0544 36.9397C25.7037 36.0874 26.7184 35.0727 28.0984 33.8957Q29.9856 32.252 31.1424 30.9735C31.9541 30.0806 32.6441 29.005 33.2123 27.7468C33.7805 26.4481 34.0646 24.9667 34.0646 23.3026C34.0646 19.6904 32.5832 16.8899 29.6204 14.9012C26.6981 12.8718 22.8221 11.8572 17.9923 11.8572C13.6901 11.8572 10.017 12.6486 6.97299 14.2315Q4.0807 15.7355 2.01896 17.9967Q0.995185 19.1196 0.176196 20.4291Q0.0407489 20.6457 -0.0890895 20.8674L0.361983 21.1096L8.98203 25.7378C9.79376 24.3579 10.849 23.2823 12.1478 22.5112C13.4872 21.74 14.9686 21.3544 16.592 21.3544Q18.9664 21.3544 20.4275 22.4503Q21.2607 23.0169 21.6378 23.8025Q21.9495 24.4518 21.9495 25.2508Q21.9495 25.5192 21.9119 25.7823Q21.7705 26.7721 21.0972 27.686ZM14.7962 55.4559Q16.4715 56.385 18.662 56.385Q20.9846 56.385 22.7213 55.3763Q23.412 54.9752 24.0101 54.4145Q25.102 53.3567 25.6272 52.0679Q26.1139 50.8736 26.1139 49.481Q26.1139 47.8268 25.4558 46.4986Q24.9338 45.4451 23.9977 44.5968Q23.4864 44.1335 22.9069 43.7833Q21.1121 42.6987 18.662 42.6987Q16.2281 42.6987 14.4375 43.772Q13.8435 44.1281 13.3203 44.6023Q12.469 45.3986 11.9714 46.3751Q11.2709 47.7495 11.2709 49.481Q11.2709 50.8601 11.7495 52.046Q12.2758 53.3499 13.3808 54.4202Q14.0353 55.0339 14.7962 55.4559ZM13.7307 54.047C15.0294 55.2646 16.6732 55.8734 18.662 55.8734C20.6913 55.8734 22.3553 55.2646 23.6541 54.047Q24.6682 53.0646 25.1544 51.8678Q25.6023 50.7654 25.6023 49.481C25.6023 47.6546 24.9529 46.1529 23.6541 44.9759C22.3553 43.7989 20.6913 43.2104 18.662 43.2104C16.6326 43.2104 14.9686 43.7989 13.6698 44.9759C12.4116 46.1529 11.7825 47.6546 11.7825 49.481Q11.7825 50.7654 12.2304 51.8678Q12.7166 53.0646 13.7307 54.047Z" fill="rgb(39,26,88)" fill-rule="evenodd" transform="matrix(0.984808,0.173648,-0.174411,0.984673,201.771,-24.9066)" />
				</g>
				<g id="Frame 2043683095" customFrame="url(#clipPath_6)">
					<rect id="Frame 2043683095" width="106.460831" height="141.947784" x="0.000000" y="0.000000" rx="19.025000" fill="rgb(242.101,79.8018,79.8018)" transform="matrix(0.984808,0.173648,-0.174411,0.984673,285.102,-48.2651)" />
					<rect id="Frame 2043683095" width="105.960831" height="141.447784" x="0.250000" y="0.250000" rx="19.025000" stroke="rgb(39,26,88)" stroke-width="0.5" transform="matrix(0.984808,0.173648,-0.174411,0.984673,285.102,-48.2651)" />
					<path id="?" d="M13.2436 39.8011C13.2436 37.7717 13.6901 36.1077 14.583 34.8089C15.4759 33.4696 16.7747 32.0084 18.4793 30.4256C19.6563 29.3297 20.5289 28.4165 21.0972 27.686C21.6654 26.9148 21.9495 26.1031 21.9495 25.2508C21.9495 24.0737 21.4421 23.1403 20.4275 22.4503C19.4534 21.7197 18.1749 21.3544 16.592 21.3544C14.9686 21.3544 13.4872 21.74 12.1478 22.5112C10.849 23.2823 9.79376 24.3579 8.98203 25.7378L-0.0890895 20.8674C1.57496 18.0263 3.92899 15.8144 6.97299 14.2315C10.017 12.6486 13.6901 11.8572 17.9923 11.8572C22.8221 11.8572 26.6981 12.8718 29.6204 14.9012C32.5832 16.8899 34.0646 19.6904 34.0646 23.3026C34.0646 24.9667 33.7805 26.4481 33.2123 27.7468C32.6441 29.005 31.9541 30.0806 31.1424 30.9735C30.3712 31.8258 29.3565 32.7999 28.0984 33.8957C26.7184 35.0727 25.7037 36.0874 25.0544 36.9397C24.405 37.7515 24.0803 38.7052 24.0803 39.8011L13.2436 39.8011ZM18.662 55.8734C16.6732 55.8734 15.0294 55.2646 13.7307 54.047C12.4319 52.7888 11.7825 51.2668 11.7825 49.481C11.7825 47.6546 12.4116 46.1529 13.6698 44.9759C14.9686 43.7989 16.6326 43.2104 18.662 43.2104C20.6913 43.2104 22.3553 43.7989 23.6541 44.9759C24.9529 46.1529 25.6023 47.6546 25.6023 49.481C25.6023 51.2668 24.9529 52.7888 23.6541 54.047C22.3553 55.2646 20.6913 55.8734 18.662 55.8734Z" fill="rgb(255,255,255)" fill-rule="nonzero" transform="matrix(0.984808,0.173648,-0.174411,0.984673,312.769,-5.33472)" />
					<path id="?" d="M14.1614 34.5191Q12.732 36.5982 12.732 39.8011L12.732 40.3127L24.5919 40.3127L24.5919 39.8011Q24.5919 38.8719 24.939 38.0985Q25.1388 37.6531 25.4539 37.2593L25.4577 37.2546L25.4613 37.2498Q26.4022 36.0149 28.4344 34.2815Q30.3446 32.6178 31.5209 31.3176Q32.7929 29.9184 33.681 27.9519Q34.5762 25.9057 34.5762 23.3026Q34.5762 20.4665 33.4058 18.2539Q33.337 18.1238 33.2642 17.9961Q32.0981 15.9481 29.9122 14.4809Q25.3972 11.3455 17.9923 11.3455Q11.4139 11.3456 6.73696 13.7776Q3.77937 15.3155 1.66487 17.6253Q0.421374 18.9836 -0.530553 20.6088L-0.798902 21.067L9.17353 26.4213L9.42301 25.9972Q10.2949 24.5149 11.5561 23.5323Q11.9597 23.2178 12.4031 22.9545Q12.9818 22.6213 13.5987 22.3901Q14.9972 21.8661 16.592 21.8661Q18.7958 21.8661 20.1205 22.8596L20.13 22.8667L20.1398 22.8733Q20.7982 23.3211 21.1195 23.9122Q21.1284 23.9286 21.1371 23.9452Q21.4379 24.5192 21.4379 25.2508Q21.4379 25.4418 21.4156 25.6301Q21.3087 26.534 20.6892 27.3772Q19.8618 28.4394 18.1312 30.0507Q15.5301 32.4659 14.1614 34.5191ZM21.0972 27.686Q20.2448 28.7818 18.4793 30.4256Q15.9224 32.7999 14.583 34.8089C13.7663 35.9968 13.3231 37.4904 13.2534 39.2895C13.2469 39.4573 13.2436 39.6279 13.2436 39.8011L24.0803 39.8011C24.0803 38.7052 24.405 37.7515 25.0544 36.9397C25.7037 36.0874 26.7184 35.0727 28.0984 33.8957Q29.9856 32.252 31.1424 30.9735C31.9541 30.0806 32.6441 29.005 33.2123 27.7468C33.7805 26.4481 34.0646 24.9667 34.0646 23.3026C34.0646 19.6904 32.5832 16.8899 29.6204 14.9012C26.6981 12.8718 22.8221 11.8572 17.9923 11.8572C13.6901 11.8572 10.017 12.6486 6.97299 14.2315Q4.0807 15.7355 2.01896 17.9967Q0.995185 19.1196 0.176196 20.4291Q0.0407489 20.6457 -0.0890895 20.8674L0.361983 21.1096L8.98203 25.7378C9.79376 24.3579 10.849 23.2823 12.1478 22.5112C13.4872 21.74 14.9686 21.3544 16.592 21.3544Q18.9664 21.3544 20.4275 22.4503Q21.2607 23.0169 21.6378 23.8025Q21.9495 24.4518 21.9495 25.2508Q21.9495 25.5192 21.9119 25.7823Q21.7705 26.7721 21.0972 27.686ZM14.7962 55.4559Q16.4715 56.385 18.662 56.385Q20.9846 56.385 22.7213 55.3763Q23.412 54.9752 24.0101 54.4145Q25.102 53.3567 25.6272 52.0679Q26.1139 50.8736 26.1139 49.481Q26.1139 47.8268 25.4558 46.4986Q24.9338 45.4451 23.9977 44.5968Q23.4864 44.1335 22.9069 43.7833Q21.1121 42.6987 18.662 42.6987Q16.2281 42.6987 14.4375 43.772Q13.8435 44.1281 13.3203 44.6023Q12.469 45.3986 11.9714 46.3751Q11.2709 47.7495 11.2709 49.481Q11.2709 50.8601 11.7495 52.046Q12.2758 53.3499 13.3808 54.4202Q14.0353 55.0339 14.7962 55.4559ZM13.7307 54.047C15.0294 55.2646 16.6732 55.8734 18.662 55.8734C20.6913 55.8734 22.3553 55.2646 23.6541 54.047Q24.6682 53.0646 25.1544 51.8678Q25.6023 50.7654 25.6023 49.481C25.6023 47.6546 24.9529 46.1529 23.6541 44.9759C22.3553 43.7989 20.6913 43.2104 18.662 43.2104C16.6326 43.2104 14.9686 43.7989 13.6698 44.9759C12.4116 46.1529 11.7825 47.6546 11.7825 49.481Q11.7825 50.7654 12.2304 51.8678Q12.7166 53.0646 13.7307 54.047Z" fill="rgb(39,26,88)" fill-rule="evenodd" transform="matrix(0.984808,0.173648,-0.174411,0.984673,312.769,-5.33472)" />
				</g>
				<g id="Frame 2043683101" customFrame="url(#clipPath_7)">
					<rect id="Frame 2043683101" width="106.460831" height="141.947784" x="0.000000" y="0.000000" rx="19.025000" fill="rgb(0,158,228)" transform="matrix(0.984808,0.173648,-0.174411,0.984673,396.1,-28.6934)" />
					<rect id="Frame 2043683101" width="105.960831" height="141.447784" x="0.250000" y="0.250000" rx="19.025000" stroke="rgb(39,26,88)" stroke-width="0.5" transform="matrix(0.984808,0.173648,-0.174411,0.984673,396.1,-28.6934)" />
					<path id="?" d="M10.7594 32.0834C10.7594 30.4462 11.1196 29.1038 11.84 28.056C12.5603 26.9754 13.6081 25.7967 14.9833 24.5197C15.9329 23.6356 16.6368 22.8989 17.0953 22.3095C17.5537 21.6874 17.7829 21.0325 17.7829 20.3449C17.7829 19.3954 17.3736 18.6423 16.555 18.0856C15.7691 17.4963 14.7377 17.2016 13.4607 17.2016C12.151 17.2016 10.9559 17.5126 9.87536 18.1348C8.82757 18.7569 7.97625 19.6246 7.32138 20.7378L0.00325668 16.8087C1.34573 14.5166 3.24484 12.7321 5.70059 11.4551C8.15633 10.1781 11.1196 9.53964 14.5904 9.53964C18.4868 9.53964 21.6138 10.3582 23.9713 11.9954C26.3616 13.5998 27.5567 15.8591 27.5567 18.7732C27.5567 20.1157 27.3275 21.3109 26.8691 22.3586C26.4107 23.3737 25.8541 24.2414 25.1992 24.9617C24.5771 25.6493 23.7585 26.4352 22.7435 27.3192C21.6302 28.2688 20.8116 29.0874 20.2877 29.775C19.7638 30.4299 19.5019 31.1993 19.5019 32.0834L10.7594 32.0834ZM15.1307 45.0497C13.5262 45.0497 12.2001 44.5586 11.1523 43.5763C10.1046 42.5612 9.58067 41.3334 9.58067 39.8927C9.58067 38.4192 10.0882 37.2077 11.1032 36.2582C12.151 35.3086 13.4935 34.8338 15.1307 34.8338C16.7678 34.8338 18.1103 35.3086 19.1581 36.2582C20.2059 37.2077 20.7298 38.4192 20.7298 39.8927C20.7298 41.3334 20.2059 42.5612 19.1581 43.5763C18.1103 44.5586 16.7678 45.0497 15.1307 45.0497Z" fill="rgb(255,255,255)" fill-rule="nonzero" transform="matrix(0.984808,0.173648,-0.174411,0.984673,426.08,21.2452)" />
					<path id="?" d="M11.4184 27.7661Q10.2478 29.4688 10.2478 32.0834L10.2478 32.595L20.0135 32.595L20.0135 32.0834Q20.0135 31.351 20.2883 30.7429Q20.4438 30.3989 20.6872 30.0946L20.691 30.0899L20.6947 30.0851Q21.4473 29.0973 23.0795 27.705Q24.625 26.359 25.5778 25.3059Q26.6145 24.1655 27.3378 22.5637Q28.0683 20.894 28.0683 18.7732Q28.0683 16.4607 27.1126 14.6539Q27.0497 14.5349 26.9826 14.4182Q26.0315 12.7621 24.2632 11.5752Q20.5953 9.02803 14.5904 9.02803Q9.25914 9.02803 5.46455 11.0012Q3.06595 12.2485 1.34991 14.1212Q0.336933 15.2267 -0.438206 16.5501L-0.706556 17.0082L7.51288 21.4214L7.76236 20.9972Q8.4621 19.8077 9.47552 19.0234Q9.78815 18.7815 10.1306 18.5781Q10.5862 18.3158 11.0718 18.133Q12.1873 17.7132 13.4607 17.7132Q15.2057 17.7132 16.248 18.4949L16.2575 18.502L16.2673 18.5087Q16.7786 18.8564 17.0264 19.3122Q17.0285 19.3162 17.0307 19.3202Q17.2712 19.768 17.2712 20.3449Q17.2712 20.4844 17.2559 20.6221Q17.1766 21.3343 16.6873 22.0008Q16.0246 22.8512 14.6352 24.1448Q12.5282 26.1012 11.4184 27.7661ZM17.0953 22.3095C16.6368 22.8989 15.9329 23.6356 14.9833 24.5197C13.6081 25.7967 12.5603 26.9754 11.84 28.056C11.1961 28.9925 10.84 30.1644 10.7716 31.5718C10.7635 31.739 10.7594 31.9095 10.7594 32.0834L19.5019 32.0834Q19.5019 31.2617 19.8036 30.5719Q19.9888 30.1486 20.2877 29.775Q21.0736 28.7436 22.7435 27.3192C23.7585 26.4352 24.5771 25.6493 25.1992 24.9617C25.8541 24.2414 26.4107 23.3737 26.8691 22.3586C27.3275 21.3109 27.5567 20.1157 27.5567 18.7732C27.5567 15.8591 26.3616 13.5998 23.9713 11.9954Q20.4351 9.53964 14.5904 9.53964C11.1196 9.53964 8.15633 10.1781 5.70059 11.4551Q3.36723 12.6685 1.70391 14.4927Q0.910856 15.3626 0.270122 16.3712Q0.133212 16.5868 0.00325668 16.8087L0.454331 17.0508L7.32138 20.7378Q8.04014 19.516 9.07445 18.6885Q9.45369 18.3851 9.87536 18.1348C10.9559 17.5126 12.151 17.2016 13.4607 17.2016Q15.3762 17.2016 16.555 18.0856Q17.2272 18.5427 17.5314 19.1765Q17.7829 19.7004 17.7829 20.3449Q17.7829 20.5615 17.7525 20.7738Q17.6385 21.5723 17.0953 22.3095ZM11.9746 44.8055Q13.344 45.5613 15.1307 45.5614Q17.0207 45.5614 18.4392 44.7435Q19.0156 44.4111 19.5141 43.9437Q20.41 43.0758 20.8412 42.0184Q21.2414 41.0371 21.2414 39.8927Q21.2414 38.5363 20.7024 37.4464Q20.2731 36.5782 19.5016 35.8791Q19.076 35.4933 18.593 35.2032Q17.1264 34.3222 15.1307 34.3222Q13.1512 34.3222 11.689 35.1919Q11.1914 35.4879 10.7537 35.8845Q10.0514 36.5416 9.64184 37.3474Q9.06905 38.4745 9.06905 39.8927Q9.06905 41.0235 9.46114 41.9963Q9.89345 43.069 10.8024 43.9495Q11.3443 44.4576 11.9746 44.8055ZM12.1684 44.3265Q13.4446 45.0497 15.1307 45.0497Q16.9363 45.0497 18.2641 44.2531Q18.742 43.9663 19.1581 43.5763C20.2059 42.5612 20.7298 41.3334 20.7298 39.8927Q20.7298 38.6494 20.2325 37.6549Q19.8457 36.8813 19.1581 36.2582Q18.8006 35.9342 18.3973 35.6839Q17.0278 34.8338 15.1307 34.8338Q13.2335 34.8338 11.864 35.6839Q11.4607 35.9342 11.1032 36.2582C10.0882 37.2077 9.58067 38.4192 9.58067 39.8927C9.58067 41.3334 10.1046 42.5612 11.1523 43.5763Q11.6229 44.0175 12.1684 44.3265Z" fill="rgb(39,26,88)" fill-rule="evenodd" transform="matrix(0.984808,0.173648,-0.174411,0.984673,426.08,21.2452)" />
				</g>
			</g>
			<g id="Frame 2043683113" customFrame="url(#clipPath_8)">
				<rect id="Frame 2043683113" width="557.411194" height="141.947739" x="0.000000" y="0.000000" transform="matrix(0.984808,0.173648,-0.173648,0.984808,-73.7148,38.8374)" />
				<g id="Frame 2043683104" customFrame="url(#clipPath_9)">
					<rect id="Frame 2043683104" width="106.460831" height="141.947784" x="0.000000" y="0.000000" rx="19.025000" fill="rgb(31.3615,164.139,108.372)" transform="matrix(0.984808,0.173648,-0.174411,0.984673,-73.6069,38.8564)" />
					<rect id="Frame 2043683104" width="105.960831" height="141.447784" x="0.250000" y="0.250000" rx="19.025000" stroke="rgb(39,26,88)" stroke-width="0.5" transform="matrix(0.984808,0.173648,-0.174411,0.984673,-73.6069,38.8564)" />
					<path id="?" d="M10.7594 32.0834C10.7594 30.4462 11.1196 29.1038 11.84 28.056C12.5603 26.9754 13.6081 25.7967 14.9833 24.5197C15.9329 23.6356 16.6368 22.8989 17.0953 22.3095C17.5537 21.6874 17.7829 21.0325 17.7829 20.3449C17.7829 19.3954 17.3736 18.6423 16.555 18.0856C15.7691 17.4963 14.7377 17.2016 13.4607 17.2016C12.151 17.2016 10.9559 17.5126 9.87536 18.1348C8.82757 18.7569 7.97625 19.6246 7.32138 20.7378L0.00325668 16.8087C1.34573 14.5166 3.24484 12.7321 5.70059 11.4551C8.15633 10.1781 11.1196 9.53964 14.5904 9.53964C18.4868 9.53964 21.6138 10.3582 23.9713 11.9954C26.3616 13.5998 27.5567 15.8591 27.5567 18.7732C27.5567 20.1157 27.3275 21.3109 26.8691 22.3586C26.4107 23.3737 25.8541 24.2414 25.1992 24.9617C24.5771 25.6493 23.7585 26.4352 22.7435 27.3192C21.6302 28.2688 20.8116 29.0874 20.2877 29.775C19.7638 30.4299 19.5019 31.1993 19.5019 32.0834L10.7594 32.0834ZM15.1307 45.0497C13.5262 45.0497 12.2001 44.5586 11.1523 43.5763C10.1046 42.5612 9.58067 41.3334 9.58067 39.8927C9.58067 38.4192 10.0882 37.2077 11.1032 36.2582C12.151 35.3086 13.4935 34.8338 15.1307 34.8338C16.7678 34.8338 18.1103 35.3086 19.1581 36.2582C20.2059 37.2077 20.7298 38.4192 20.7298 39.8927C20.7298 41.3334 20.2059 42.5612 19.1581 43.5763C18.1103 44.5586 16.7678 45.0497 15.1307 45.0497Z" fill="rgb(255,255,255)" fill-rule="nonzero" transform="matrix(0.984808,0.173648,-0.174411,0.984673,-43.627,88.7949)" />
					<path id="?" d="M11.4184 27.7661Q10.2478 29.4688 10.2478 32.0834L10.2478 32.595L20.0135 32.595L20.0135 32.0834Q20.0135 31.351 20.2883 30.7429Q20.4438 30.3989 20.6872 30.0946L20.691 30.0899L20.6947 30.0851Q21.4473 29.0973 23.0795 27.705Q24.625 26.359 25.5778 25.3059Q26.6145 24.1655 27.3378 22.5637Q28.0683 20.894 28.0683 18.7732Q28.0683 16.4607 27.1126 14.6539Q27.0497 14.5349 26.9826 14.4182Q26.0315 12.7621 24.2632 11.5752Q20.5953 9.02803 14.5904 9.02803Q9.25914 9.02803 5.46455 11.0012Q3.06595 12.2485 1.34991 14.1212Q0.336933 15.2267 -0.438206 16.5501L-0.706556 17.0082L7.51288 21.4214L7.76236 20.9972Q8.4621 19.8077 9.47552 19.0234Q9.78815 18.7815 10.1306 18.5781Q10.5862 18.3158 11.0718 18.133Q12.1873 17.7132 13.4607 17.7132Q15.2057 17.7132 16.248 18.4949L16.2575 18.502L16.2673 18.5087Q16.7786 18.8564 17.0264 19.3122Q17.0285 19.3162 17.0307 19.3202Q17.2712 19.768 17.2712 20.3449Q17.2712 20.4844 17.2559 20.6221Q17.1766 21.3343 16.6873 22.0008Q16.0246 22.8512 14.6352 24.1448Q12.5282 26.1012 11.4184 27.7661ZM17.0953 22.3095C16.6368 22.8989 15.9329 23.6356 14.9833 24.5197C13.6081 25.7967 12.5603 26.9754 11.84 28.056C11.1961 28.9925 10.84 30.1644 10.7716 31.5718C10.7635 31.739 10.7594 31.9095 10.7594 32.0834L19.5019 32.0834Q19.5019 31.2617 19.8036 30.5719Q19.9888 30.1486 20.2877 29.775Q21.0736 28.7436 22.7435 27.3192C23.7585 26.4352 24.5771 25.6493 25.1992 24.9617C25.8541 24.2414 26.4107 23.3737 26.8691 22.3586C27.3275 21.3109 27.5567 20.1157 27.5567 18.7732C27.5567 15.8591 26.3616 13.5998 23.9713 11.9954Q20.4351 9.53964 14.5904 9.53964C11.1196 9.53964 8.15633 10.1781 5.70059 11.4551Q3.36723 12.6685 1.70391 14.4927Q0.910856 15.3626 0.270122 16.3712Q0.133212 16.5868 0.00325668 16.8087L0.454331 17.0508L7.32138 20.7378Q8.04014 19.516 9.07445 18.6885Q9.45369 18.3851 9.87536 18.1348C10.9559 17.5126 12.151 17.2016 13.4607 17.2016Q15.3762 17.2016 16.555 18.0856Q17.2272 18.5427 17.5314 19.1765Q17.7829 19.7004 17.7829 20.3449Q17.7829 20.5615 17.7525 20.7738Q17.6385 21.5723 17.0953 22.3095ZM11.9746 44.8055Q13.344 45.5613 15.1307 45.5614Q17.0207 45.5614 18.4392 44.7435Q19.0156 44.4111 19.5141 43.9437Q20.41 43.0758 20.8412 42.0184Q21.2414 41.0371 21.2414 39.8927Q21.2414 38.5363 20.7024 37.4464Q20.2731 36.5782 19.5016 35.8791Q19.076 35.4933 18.593 35.2032Q17.1264 34.3222 15.1307 34.3222Q13.1512 34.3222 11.689 35.1919Q11.1914 35.4879 10.7537 35.8845Q10.0514 36.5416 9.64184 37.3474Q9.06905 38.4745 9.06905 39.8927Q9.06905 41.0235 9.46114 41.9963Q9.89345 43.069 10.8024 43.9495Q11.3443 44.4576 11.9746 44.8055ZM12.1684 44.3265Q13.4446 45.0497 15.1307 45.0497Q16.9363 45.0497 18.2641 44.2531Q18.742 43.9663 19.1581 43.5763C20.2059 42.5612 20.7298 41.3334 20.7298 39.8927Q20.7298 38.6494 20.2325 37.6549Q19.8457 36.8813 19.1581 36.2582Q18.8006 35.9342 18.3973 35.6839Q17.0278 34.8338 15.1307 34.8338Q13.2335 34.8338 11.864 35.6839Q11.4607 35.9342 11.1032 36.2582C10.0882 37.2077 9.58067 38.4192 9.58067 39.8927C9.58067 41.3334 10.1046 42.5612 11.1523 43.5763Q11.6229 44.0175 12.1684 44.3265Z" fill="rgb(39,26,88)" fill-rule="evenodd" transform="matrix(0.984808,0.173648,-0.174411,0.984673,-43.627,88.7949)" />
				</g>
				<g id="Frame 2043683096" customFrame="url(#clipPath_10)">
					<rect id="Frame 2043683096" width="106.460831" height="141.947784" x="0.000000" y="0.000000" rx="19.025000" fill="rgb(242.101,79.8018,79.8018)" transform="matrix(0.984808,0.173648,-0.174411,0.984673,37.3911,58.4283)" />
					<rect id="Frame 2043683096" width="105.960831" height="141.447784" x="0.250000" y="0.250000" rx="19.025000" stroke="rgb(39,26,88)" stroke-width="0.5" transform="matrix(0.984808,0.173648,-0.174411,0.984673,37.3911,58.4283)" />
					<path id="?" d="M13.2436 39.8011C13.2436 37.7717 13.6901 36.1077 14.583 34.8089C15.4759 33.4696 16.7747 32.0084 18.4793 30.4256C19.6563 29.3297 20.5289 28.4165 21.0972 27.686C21.6654 26.9148 21.9495 26.1031 21.9495 25.2508C21.9495 24.0737 21.4421 23.1403 20.4275 22.4503C19.4534 21.7197 18.1749 21.3544 16.592 21.3544C14.9686 21.3544 13.4872 21.74 12.1478 22.5112C10.849 23.2823 9.79376 24.3579 8.98203 25.7378L-0.0890895 20.8674C1.57496 18.0263 3.92899 15.8144 6.97299 14.2315C10.017 12.6486 13.6901 11.8572 17.9923 11.8572C22.8221 11.8572 26.6981 12.8718 29.6204 14.9012C32.5832 16.8899 34.0646 19.6904 34.0646 23.3026C34.0646 24.9667 33.7805 26.4481 33.2123 27.7468C32.6441 29.005 31.9541 30.0806 31.1424 30.9735C30.3712 31.8258 29.3565 32.7999 28.0984 33.8957C26.7184 35.0727 25.7037 36.0874 25.0544 36.9397C24.405 37.7515 24.0803 38.7052 24.0803 39.8011L13.2436 39.8011ZM18.662 55.8734C16.6732 55.8734 15.0294 55.2646 13.7307 54.047C12.4319 52.7888 11.7825 51.2668 11.7825 49.481C11.7825 47.6546 12.4116 46.1529 13.6698 44.9759C14.9686 43.7989 16.6326 43.2104 18.662 43.2104C20.6913 43.2104 22.3553 43.7989 23.6541 44.9759C24.9529 46.1529 25.6023 47.6546 25.6023 49.481C25.6023 51.2668 24.9529 52.7888 23.6541 54.047C22.3553 55.2646 20.6913 55.8734 18.662 55.8734Z" fill="rgb(255,255,255)" fill-rule="nonzero" transform="matrix(0.984808,0.173648,-0.174411,0.984673,65.0581,101.359)" />
					<path id="?" d="M14.1614 34.5191Q12.732 36.5982 12.732 39.8011L12.732 40.3127L24.5919 40.3127L24.5919 39.8011Q24.5919 38.8719 24.939 38.0985Q25.1388 37.6531 25.4539 37.2593L25.4577 37.2546L25.4613 37.2498Q26.4022 36.0149 28.4344 34.2815Q30.3446 32.6178 31.5209 31.3176Q32.7929 29.9184 33.681 27.9519Q34.5762 25.9057 34.5762 23.3026Q34.5762 20.4665 33.4058 18.2539Q33.337 18.1238 33.2642 17.9961Q32.0981 15.9481 29.9122 14.4809Q25.3972 11.3455 17.9923 11.3455Q11.4139 11.3456 6.73696 13.7776Q3.77937 15.3155 1.66487 17.6253Q0.421374 18.9836 -0.530553 20.6088L-0.798902 21.067L9.17353 26.4213L9.42301 25.9972Q10.2949 24.5149 11.5561 23.5323Q11.9597 23.2178 12.4031 22.9545Q12.9818 22.6213 13.5987 22.3901Q14.9972 21.8661 16.592 21.8661Q18.7958 21.8661 20.1205 22.8596L20.13 22.8667L20.1398 22.8733Q20.7982 23.3211 21.1195 23.9122Q21.1284 23.9286 21.1371 23.9452Q21.4379 24.5192 21.4379 25.2508Q21.4379 25.4418 21.4156 25.6301Q21.3087 26.534 20.6892 27.3772Q19.8618 28.4394 18.1312 30.0507Q15.5301 32.4659 14.1614 34.5191ZM21.0972 27.686Q20.2448 28.7818 18.4793 30.4256Q15.9224 32.7999 14.583 34.8089C13.7663 35.9968 13.3231 37.4904 13.2534 39.2895C13.2469 39.4573 13.2436 39.6279 13.2436 39.8011L24.0803 39.8011C24.0803 38.7052 24.405 37.7515 25.0544 36.9397C25.7037 36.0874 26.7184 35.0727 28.0984 33.8957Q29.9856 32.252 31.1424 30.9735C31.9541 30.0806 32.6441 29.005 33.2123 27.7468C33.7805 26.4481 34.0646 24.9667 34.0646 23.3026C34.0646 19.6904 32.5832 16.8899 29.6204 14.9012C26.6981 12.8718 22.8221 11.8572 17.9923 11.8572C13.6901 11.8572 10.017 12.6486 6.97299 14.2315Q4.0807 15.7355 2.01896 17.9967Q0.995185 19.1196 0.176196 20.4291Q0.0407489 20.6457 -0.0890895 20.8674L0.361983 21.1096L8.98203 25.7378C9.79376 24.3579 10.849 23.2823 12.1478 22.5112C13.4872 21.74 14.9686 21.3544 16.592 21.3544Q18.9664 21.3544 20.4275 22.4503Q21.2607 23.0169 21.6378 23.8025Q21.9495 24.4518 21.9495 25.2508Q21.9495 25.5192 21.9119 25.7823Q21.7705 26.7721 21.0972 27.686ZM14.7962 55.4559Q16.4715 56.385 18.662 56.385Q20.9846 56.385 22.7213 55.3763Q23.412 54.9752 24.0101 54.4145Q25.102 53.3567 25.6272 52.0679Q26.1139 50.8736 26.1139 49.481Q26.1139 47.8268 25.4558 46.4986Q24.9338 45.4451 23.9977 44.5968Q23.4864 44.1335 22.9069 43.7833Q21.1121 42.6987 18.662 42.6987Q16.2281 42.6987 14.4375 43.772Q13.8435 44.1281 13.3203 44.6023Q12.469 45.3986 11.9714 46.3751Q11.2709 47.7495 11.2709 49.481Q11.2709 50.8601 11.7495 52.046Q12.2758 53.3499 13.3808 54.4202Q14.0353 55.0339 14.7962 55.4559ZM13.7307 54.047C15.0294 55.2646 16.6732 55.8734 18.662 55.8734C20.6913 55.8734 22.3553 55.2646 23.6541 54.047Q24.6682 53.0646 25.1544 51.8678Q25.6023 50.7654 25.6023 49.481C25.6023 47.6546 24.9529 46.1529 23.6541 44.9759C22.3553 43.7989 20.6913 43.2104 18.662 43.2104C16.6326 43.2104 14.9686 43.7989 13.6698 44.9759C12.4116 46.1529 11.7825 47.6546 11.7825 49.481Q11.7825 50.7654 12.2304 51.8678Q12.7166 53.0646 13.7307 54.047Z" fill="rgb(39,26,88)" fill-rule="evenodd" transform="matrix(0.984808,0.173648,-0.174411,0.984673,65.0581,101.359)" />
				</g>
				<g id="Frame 2043683112" customFrame="url(#clipPath_11)">
					<rect id="Frame 2043683112" width="106.460831" height="141.947784" x="0.000000" y="0.000000" rx="19.025000" fill="rgb(0,158,228)" transform="matrix(0.984808,0.173648,-0.174411,0.984673,148.389,78.0004)" />
					<rect id="Frame 2043683112" width="105.960831" height="141.447784" x="0.250000" y="0.250000" rx="19.025000" stroke="rgb(39,26,88)" stroke-width="0.5" transform="matrix(0.984808,0.173648,-0.174411,0.984673,148.389,78.0004)" />
					<path id="?" d="M10.7594 32.0834C10.7594 30.4462 11.1196 29.1038 11.84 28.056C12.5603 26.9754 13.6081 25.7967 14.9833 24.5197C15.9329 23.6356 16.6368 22.8989 17.0953 22.3095C17.5537 21.6874 17.7829 21.0325 17.7829 20.3449C17.7829 19.3954 17.3736 18.6423 16.555 18.0856C15.7691 17.4963 14.7377 17.2016 13.4607 17.2016C12.151 17.2016 10.9559 17.5126 9.87536 18.1348C8.82757 18.7569 7.97625 19.6246 7.32138 20.7378L0.00325668 16.8087C1.34573 14.5166 3.24484 12.7321 5.70059 11.4551C8.15633 10.1781 11.1196 9.53964 14.5904 9.53964C18.4868 9.53964 21.6138 10.3582 23.9713 11.9954C26.3616 13.5998 27.5567 15.8591 27.5567 18.7732C27.5567 20.1157 27.3275 21.3109 26.8691 22.3586C26.4107 23.3737 25.8541 24.2414 25.1992 24.9617C24.5771 25.6493 23.7585 26.4352 22.7435 27.3192C21.6302 28.2688 20.8116 29.0874 20.2877 29.775C19.7638 30.4299 19.5019 31.1993 19.5019 32.0834L10.7594 32.0834ZM15.1307 45.0497C13.5262 45.0497 12.2001 44.5586 11.1523 43.5763C10.1046 42.5612 9.58067 41.3334 9.58067 39.8927C9.58067 38.4192 10.0882 37.2077 11.1032 36.2582C12.151 35.3086 13.4935 34.8338 15.1307 34.8338C16.7678 34.8338 18.1103 35.3086 19.1581 36.2582C20.2059 37.2077 20.7298 38.4192 20.7298 39.8927C20.7298 41.3334 20.2059 42.5612 19.1581 43.5763C18.1103 44.5586 16.7678 45.0497 15.1307 45.0497Z" fill="rgb(255,255,255)" fill-rule="nonzero" transform="matrix(0.984808,0.173648,-0.174411,0.984673,178.369,127.939)" />
					<path id="?" d="M11.4184 27.7661Q10.2478 29.4688 10.2478 32.0834L10.2478 32.595L20.0135 32.595L20.0135 32.0834Q20.0135 31.351 20.2883 30.7429Q20.4438 30.3989 20.6872 30.0946L20.691 30.0899L20.6947 30.0851Q21.4473 29.0973 23.0795 27.705Q24.625 26.359 25.5778 25.3059Q26.6145 24.1655 27.3378 22.5637Q28.0683 20.894 28.0683 18.7732Q28.0683 16.4607 27.1126 14.6539Q27.0497 14.5349 26.9826 14.4182Q26.0315 12.7621 24.2632 11.5752Q20.5953 9.02803 14.5904 9.02803Q9.25914 9.02803 5.46455 11.0012Q3.06595 12.2485 1.34991 14.1212Q0.336933 15.2267 -0.438206 16.5501L-0.706556 17.0082L7.51288 21.4214L7.76236 20.9972Q8.4621 19.8077 9.47552 19.0234Q9.78815 18.7815 10.1306 18.5781Q10.5862 18.3158 11.0718 18.133Q12.1873 17.7132 13.4607 17.7132Q15.2057 17.7132 16.248 18.4949L16.2575 18.502L16.2673 18.5087Q16.7786 18.8564 17.0264 19.3122Q17.0285 19.3162 17.0307 19.3202Q17.2712 19.768 17.2712 20.3449Q17.2712 20.4844 17.2559 20.6221Q17.1766 21.3343 16.6873 22.0008Q16.0246 22.8512 14.6352 24.1448Q12.5282 26.1012 11.4184 27.7661ZM17.0953 22.3095C16.6368 22.8989 15.9329 23.6356 14.9833 24.5197C13.6081 25.7967 12.5603 26.9754 11.84 28.056C11.1961 28.9925 10.84 30.1644 10.7716 31.5718C10.7635 31.739 10.7594 31.9095 10.7594 32.0834L19.5019 32.0834Q19.5019 31.2617 19.8036 30.5719Q19.9888 30.1486 20.2877 29.775Q21.0736 28.7436 22.7435 27.3192C23.7585 26.4352 24.5771 25.6493 25.1992 24.9617C25.8541 24.2414 26.4107 23.3737 26.8691 22.3586C27.3275 21.3109 27.5567 20.1157 27.5567 18.7732C27.5567 15.8591 26.3616 13.5998 23.9713 11.9954Q20.4351 9.53964 14.5904 9.53964C11.1196 9.53964 8.15633 10.1781 5.70059 11.4551Q3.36723 12.6685 1.70391 14.4927Q0.910856 15.3626 0.270122 16.3712Q0.133212 16.5868 0.00325668 16.8087L0.454331 17.0508L7.32138 20.7378Q8.04014 19.516 9.07445 18.6885Q9.45369 18.3851 9.87536 18.1348C10.9559 17.5126 12.151 17.2016 13.4607 17.2016Q15.3762 17.2016 16.555 18.0856Q17.2272 18.5427 17.5314 19.1765Q17.7829 19.7004 17.7829 20.3449Q17.7829 20.5615 17.7525 20.7738Q17.6385 21.5723 17.0953 22.3095ZM11.9746 44.8055Q13.344 45.5613 15.1307 45.5614Q17.0207 45.5614 18.4392 44.7435Q19.0156 44.4111 19.5141 43.9437Q20.41 43.0758 20.8412 42.0184Q21.2414 41.0371 21.2414 39.8927Q21.2414 38.5363 20.7024 37.4464Q20.2731 36.5782 19.5016 35.8791Q19.076 35.4933 18.593 35.2032Q17.1264 34.3222 15.1307 34.3222Q13.1512 34.3222 11.689 35.1919Q11.1914 35.4879 10.7537 35.8845Q10.0514 36.5416 9.64184 37.3474Q9.06905 38.4745 9.06905 39.8927Q9.06905 41.0235 9.46114 41.9963Q9.89345 43.069 10.8024 43.9495Q11.3443 44.4576 11.9746 44.8055ZM12.1684 44.3265Q13.4446 45.0497 15.1307 45.0497Q16.9363 45.0497 18.2641 44.2531Q18.742 43.9663 19.1581 43.5763C20.2059 42.5612 20.7298 41.3334 20.7298 39.8927Q20.7298 38.6494 20.2325 37.6549Q19.8457 36.8813 19.1581 36.2582Q18.8006 35.9342 18.3973 35.6839Q17.0278 34.8338 15.1307 34.8338Q13.2335 34.8338 11.864 35.6839Q11.4607 35.9342 11.1032 36.2582C10.0882 37.2077 9.58067 38.4192 9.58067 39.8927C9.58067 41.3334 10.1046 42.5612 11.1523 43.5763Q11.6229 44.0175 12.1684 44.3265Z" fill="rgb(39,26,88)" fill-rule="evenodd" transform="matrix(0.984808,0.173648,-0.174411,0.984673,178.369,127.939)" />
				</g>
				<g id="Frame 2043683098" customFrame="url(#clipPath_12)">
					<rect id="Frame 2043683098" width="106.460831" height="141.947784" x="0.000000" y="0.000000" rx="19.025000" fill="rgb(153,209,0)" transform="matrix(0.984808,0.173648,-0.174411,0.984673,259.387,97.5721)" />
					<rect id="Frame 2043683098" width="105.960831" height="141.447784" x="0.250000" y="0.250000" rx="19.025000" stroke="rgb(39,26,88)" stroke-width="0.5" transform="matrix(0.984808,0.173648,-0.174411,0.984673,259.387,97.5721)" />
					<path id="?" d="M13.2436 39.8011C13.2436 37.7717 13.6901 36.1077 14.583 34.8089C15.4759 33.4696 16.7747 32.0084 18.4793 30.4256C19.6563 29.3297 20.5289 28.4165 21.0972 27.686C21.6654 26.9148 21.9495 26.1031 21.9495 25.2508C21.9495 24.0737 21.4421 23.1403 20.4275 22.4503C19.4534 21.7197 18.1749 21.3544 16.592 21.3544C14.9686 21.3544 13.4872 21.74 12.1478 22.5112C10.849 23.2823 9.79376 24.3579 8.98203 25.7378L-0.0890895 20.8674C1.57496 18.0263 3.92899 15.8144 6.97299 14.2315C10.017 12.6486 13.6901 11.8572 17.9923 11.8572C22.8221 11.8572 26.6981 12.8718 29.6204 14.9012C32.5832 16.8899 34.0646 19.6904 34.0646 23.3026C34.0646 24.9667 33.7805 26.4481 33.2123 27.7468C32.6441 29.005 31.9541 30.0806 31.1424 30.9735C30.3712 31.8258 29.3565 32.7999 28.0984 33.8957C26.7184 35.0727 25.7037 36.0874 25.0544 36.9397C24.405 37.7515 24.0803 38.7052 24.0803 39.8011L13.2436 39.8011ZM18.662 55.8734C16.6732 55.8734 15.0294 55.2646 13.7307 54.047C12.4319 52.7888 11.7825 51.2668 11.7825 49.481C11.7825 47.6546 12.4116 46.1529 13.6698 44.9759C14.9686 43.7989 16.6326 43.2104 18.662 43.2104C20.6913 43.2104 22.3553 43.7989 23.6541 44.9759C24.9529 46.1529 25.6023 47.6546 25.6023 49.481C25.6023 51.2668 24.9529 52.7888 23.6541 54.047C22.3553 55.2646 20.6913 55.8734 18.662 55.8734Z" fill="rgb(255,255,255)" fill-rule="nonzero" transform="matrix(0.984808,0.173648,-0.174411,0.984673,287.054,140.503)" />
					<path id="?" d="M14.1614 34.5191Q12.732 36.5982 12.732 39.8011L12.732 40.3127L24.5919 40.3127L24.5919 39.8011Q24.5919 38.8719 24.939 38.0985Q25.1388 37.6531 25.4539 37.2593L25.4577 37.2546L25.4613 37.2498Q26.4022 36.0149 28.4344 34.2815Q30.3446 32.6178 31.5209 31.3176Q32.7929 29.9184 33.681 27.9519Q34.5762 25.9057 34.5762 23.3026Q34.5762 20.4665 33.4058 18.2539Q33.337 18.1238 33.2642 17.9961Q32.0981 15.9481 29.9122 14.4809Q25.3972 11.3455 17.9923 11.3455Q11.4139 11.3456 6.73696 13.7776Q3.77937 15.3155 1.66487 17.6253Q0.421374 18.9836 -0.530553 20.6088L-0.798902 21.067L9.17353 26.4213L9.42301 25.9972Q10.2949 24.5149 11.5561 23.5323Q11.9597 23.2178 12.4031 22.9545Q12.9818 22.6213 13.5987 22.3901Q14.9972 21.8661 16.592 21.8661Q18.7958 21.8661 20.1205 22.8596L20.13 22.8667L20.1398 22.8733Q20.7982 23.3211 21.1195 23.9122Q21.1284 23.9286 21.1371 23.9452Q21.4379 24.5192 21.4379 25.2508Q21.4379 25.4418 21.4156 25.6301Q21.3087 26.534 20.6892 27.3772Q19.8618 28.4394 18.1312 30.0507Q15.5301 32.4659 14.1614 34.5191ZM21.0972 27.686Q20.2448 28.7818 18.4793 30.4256Q15.9224 32.7999 14.583 34.8089C13.7663 35.9968 13.3231 37.4904 13.2534 39.2895C13.2469 39.4573 13.2436 39.6279 13.2436 39.8011L24.0803 39.8011C24.0803 38.7052 24.405 37.7515 25.0544 36.9397C25.7037 36.0874 26.7184 35.0727 28.0984 33.8957Q29.9856 32.252 31.1424 30.9735C31.9541 30.0806 32.6441 29.005 33.2123 27.7468C33.7805 26.4481 34.0646 24.9667 34.0646 23.3026C34.0646 19.6904 32.5832 16.8899 29.6204 14.9012C26.6981 12.8718 22.8221 11.8572 17.9923 11.8572C13.6901 11.8572 10.017 12.6486 6.97299 14.2315Q4.0807 15.7355 2.01896 17.9967Q0.995185 19.1196 0.176196 20.4291Q0.0407489 20.6457 -0.0890895 20.8674L0.361983 21.1096L8.98203 25.7378C9.79376 24.3579 10.849 23.2823 12.1478 22.5112C13.4872 21.74 14.9686 21.3544 16.592 21.3544Q18.9664 21.3544 20.4275 22.4503Q21.2607 23.0169 21.6378 23.8025Q21.9495 24.4518 21.9495 25.2508Q21.9495 25.5192 21.9119 25.7823Q21.7705 26.7721 21.0972 27.686ZM14.7962 55.4559Q16.4715 56.385 18.662 56.385Q20.9846 56.385 22.7213 55.3763Q23.412 54.9752 24.0101 54.4145Q25.102 53.3567 25.6272 52.0679Q26.1139 50.8736 26.1139 49.481Q26.1139 47.8268 25.4558 46.4986Q24.9338 45.4451 23.9977 44.5968Q23.4864 44.1335 22.9069 43.7833Q21.1121 42.6987 18.662 42.6987Q16.2281 42.6987 14.4375 43.772Q13.8435 44.1281 13.3203 44.6023Q12.469 45.3986 11.9714 46.3751Q11.2709 47.7495 11.2709 49.481Q11.2709 50.8601 11.7495 52.046Q12.2758 53.3499 13.3808 54.4202Q14.0353 55.0339 14.7962 55.4559ZM13.7307 54.047C15.0294 55.2646 16.6732 55.8734 18.662 55.8734C20.6913 55.8734 22.3553 55.2646 23.6541 54.047Q24.6682 53.0646 25.1544 51.8678Q25.6023 50.7654 25.6023 49.481C25.6023 47.6546 24.9529 46.1529 23.6541 44.9759C22.3553 43.7989 20.6913 43.2104 18.662 43.2104C16.6326 43.2104 14.9686 43.7989 13.6698 44.9759C12.4116 46.1529 11.7825 47.6546 11.7825 49.481Q11.7825 50.7654 12.2304 51.8678Q12.7166 53.0646 13.7307 54.047Z" fill="rgb(39,26,88)" fill-rule="evenodd" transform="matrix(0.984808,0.173648,-0.174411,0.984673,287.054,140.503)" />
				</g>
				<g id="Frame 2043683102" customFrame="url(#clipPath_13)">
					<rect id="Frame 2043683102" width="106.460831" height="141.947784" x="0.000000" y="0.000000" rx="19.025000" fill="rgb(255,199,0)" transform="matrix(0.984808,0.173648,-0.174411,0.984673,370.384,117.144)" />
					<rect id="Frame 2043683102" width="105.960831" height="141.447784" x="0.250000" y="0.250000" rx="19.025000" stroke="rgb(39,26,88)" stroke-width="0.5" transform="matrix(0.984808,0.173648,-0.174411,0.984673,370.384,117.144)" />
					<path id="?" d="M10.7594 32.0834C10.7594 30.4462 11.1196 29.1038 11.84 28.056C12.5603 26.9754 13.6081 25.7967 14.9833 24.5197C15.9329 23.6356 16.6368 22.8989 17.0953 22.3095C17.5537 21.6874 17.7829 21.0325 17.7829 20.3449C17.7829 19.3954 17.3736 18.6423 16.555 18.0856C15.7691 17.4963 14.7377 17.2016 13.4607 17.2016C12.151 17.2016 10.9559 17.5126 9.87536 18.1348C8.82757 18.7569 7.97625 19.6246 7.32138 20.7378L0.00325668 16.8087C1.34573 14.5166 3.24484 12.7321 5.70059 11.4551C8.15633 10.1781 11.1196 9.53964 14.5904 9.53964C18.4868 9.53964 21.6138 10.3582 23.9713 11.9954C26.3616 13.5998 27.5567 15.8591 27.5567 18.7732C27.5567 20.1157 27.3275 21.3109 26.8691 22.3586C26.4107 23.3737 25.8541 24.2414 25.1992 24.9617C24.5771 25.6493 23.7585 26.4352 22.7435 27.3192C21.6302 28.2688 20.8116 29.0874 20.2877 29.775C19.7638 30.4299 19.5019 31.1993 19.5019 32.0834L10.7594 32.0834ZM15.1307 45.0497C13.5262 45.0497 12.2001 44.5586 11.1523 43.5763C10.1046 42.5612 9.58067 41.3334 9.58067 39.8927C9.58067 38.4192 10.0882 37.2077 11.1032 36.2582C12.151 35.3086 13.4935 34.8338 15.1307 34.8338C16.7678 34.8338 18.1103 35.3086 19.1581 36.2582C20.2059 37.2077 20.7298 38.4192 20.7298 39.8927C20.7298 41.3334 20.2059 42.5612 19.1581 43.5763C18.1103 44.5586 16.7678 45.0497 15.1307 45.0497Z" fill="rgb(255,255,255)" fill-rule="nonzero" transform="matrix(0.984808,0.173648,-0.174411,0.984673,400.365,167.083)" />
					<path id="?" d="M11.4184 27.7661Q10.2478 29.4688 10.2478 32.0834L10.2478 32.595L20.0135 32.595L20.0135 32.0834Q20.0135 31.351 20.2883 30.7429Q20.4438 30.3989 20.6872 30.0946L20.691 30.0899L20.6947 30.0851Q21.4473 29.0973 23.0795 27.705Q24.625 26.359 25.5778 25.3059Q26.6145 24.1655 27.3378 22.5637Q28.0683 20.894 28.0683 18.7732Q28.0683 16.4607 27.1126 14.6539Q27.0497 14.5349 26.9826 14.4182Q26.0315 12.7621 24.2632 11.5752Q20.5953 9.02803 14.5904 9.02803Q9.25914 9.02803 5.46455 11.0012Q3.06595 12.2485 1.34991 14.1212Q0.336933 15.2267 -0.438206 16.5501L-0.706556 17.0082L7.51288 21.4214L7.76236 20.9972Q8.4621 19.8077 9.47552 19.0234Q9.78815 18.7815 10.1306 18.5781Q10.5862 18.3158 11.0718 18.133Q12.1873 17.7132 13.4607 17.7132Q15.2057 17.7132 16.248 18.4949L16.2575 18.502L16.2673 18.5087Q16.7786 18.8564 17.0264 19.3122Q17.0285 19.3162 17.0307 19.3202Q17.2712 19.768 17.2712 20.3449Q17.2712 20.4844 17.2559 20.6221Q17.1766 21.3343 16.6873 22.0008Q16.0246 22.8512 14.6352 24.1448Q12.5282 26.1012 11.4184 27.7661ZM17.0953 22.3095C16.6368 22.8989 15.9329 23.6356 14.9833 24.5197C13.6081 25.7967 12.5603 26.9754 11.84 28.056C11.1961 28.9925 10.84 30.1644 10.7716 31.5718C10.7635 31.739 10.7594 31.9095 10.7594 32.0834L19.5019 32.0834Q19.5019 31.2617 19.8036 30.5719Q19.9888 30.1486 20.2877 29.775Q21.0736 28.7436 22.7435 27.3192C23.7585 26.4352 24.5771 25.6493 25.1992 24.9617C25.8541 24.2414 26.4107 23.3737 26.8691 22.3586C27.3275 21.3109 27.5567 20.1157 27.5567 18.7732C27.5567 15.8591 26.3616 13.5998 23.9713 11.9954Q20.4351 9.53964 14.5904 9.53964C11.1196 9.53964 8.15633 10.1781 5.70059 11.4551Q3.36723 12.6685 1.70391 14.4927Q0.910856 15.3626 0.270122 16.3712Q0.133212 16.5868 0.00325668 16.8087L0.454331 17.0508L7.32138 20.7378Q8.04014 19.516 9.07445 18.6885Q9.45369 18.3851 9.87536 18.1348C10.9559 17.5126 12.151 17.2016 13.4607 17.2016Q15.3762 17.2016 16.555 18.0856Q17.2272 18.5427 17.5314 19.1765Q17.7829 19.7004 17.7829 20.3449Q17.7829 20.5615 17.7525 20.7738Q17.6385 21.5723 17.0953 22.3095ZM11.9746 44.8055Q13.344 45.5613 15.1307 45.5614Q17.0207 45.5614 18.4392 44.7435Q19.0156 44.4111 19.5141 43.9437Q20.41 43.0758 20.8412 42.0184Q21.2414 41.0371 21.2414 39.8927Q21.2414 38.5363 20.7024 37.4464Q20.2731 36.5782 19.5016 35.8791Q19.076 35.4933 18.593 35.2032Q17.1264 34.3222 15.1307 34.3222Q13.1512 34.3222 11.689 35.1919Q11.1914 35.4879 10.7537 35.8845Q10.0514 36.5416 9.64184 37.3474Q9.06905 38.4745 9.06905 39.8927Q9.06905 41.0235 9.46114 41.9963Q9.89345 43.069 10.8024 43.9495Q11.3443 44.4576 11.9746 44.8055ZM12.1684 44.3265Q13.4446 45.0497 15.1307 45.0497Q16.9363 45.0497 18.2641 44.2531Q18.742 43.9663 19.1581 43.5763C20.2059 42.5612 20.7298 41.3334 20.7298 39.8927Q20.7298 38.6494 20.2325 37.6549Q19.8457 36.8813 19.1581 36.2582Q18.8006 35.9342 18.3973 35.6839Q17.0278 34.8338 15.1307 34.8338Q13.2335 34.8338 11.864 35.6839Q11.4607 35.9342 11.1032 36.2582C10.0882 37.2077 9.58067 38.4192 9.58067 39.8927C9.58067 41.3334 10.1046 42.5612 11.1523 43.5763Q11.6229 44.0175 12.1684 44.3265Z" fill="rgb(39,26,88)" fill-rule="evenodd" transform="matrix(0.984808,0.173648,-0.174411,0.984673,400.365,167.083)" />
				</g>
			</g>
			<g id="Frame 2043683110" customFrame="url(#clipPath_14)">
				<rect id="Frame 2043683110" width="557.411194" height="141.947739" x="0.000000" y="0.000000" transform="matrix(0.984808,0.173648,-0.173648,0.984808,-99.4302,184.675)" />
				<g id="Frame 2043683109" customFrame="url(#clipPath_15)">
					<rect id="Frame 2043683109" width="106.460831" height="141.947784" x="0.000000" y="0.000000" rx="19.025000" fill="rgb(0,158,228)" transform="matrix(0.984808,0.173648,-0.174411,0.984673,-99.3218,184.694)" />
					<rect id="Frame 2043683109" width="105.960831" height="141.447784" x="0.250000" y="0.250000" rx="19.025000" stroke="rgb(39,26,88)" stroke-width="0.5" transform="matrix(0.984808,0.173648,-0.174411,0.984673,-99.3218,184.694)" />
					<path id="?" d="M10.7594 32.0834C10.7594 30.4462 11.1196 29.1038 11.84 28.056C12.5603 26.9754 13.6081 25.7967 14.9833 24.5197C15.9329 23.6356 16.6368 22.8989 17.0953 22.3095C17.5537 21.6874 17.7829 21.0325 17.7829 20.3449C17.7829 19.3954 17.3736 18.6423 16.555 18.0856C15.7691 17.4963 14.7377 17.2016 13.4607 17.2016C12.151 17.2016 10.9559 17.5126 9.87536 18.1348C8.82757 18.7569 7.97625 19.6246 7.32138 20.7378L0.00325668 16.8087C1.34573 14.5166 3.24484 12.7321 5.70059 11.4551C8.15633 10.1781 11.1196 9.53964 14.5904 9.53964C18.4868 9.53964 21.6138 10.3582 23.9713 11.9954C26.3616 13.5998 27.5567 15.8591 27.5567 18.7732C27.5567 20.1157 27.3275 21.3109 26.8691 22.3586C26.4107 23.3737 25.8541 24.2414 25.1992 24.9617C24.5771 25.6493 23.7585 26.4352 22.7435 27.3192C21.6302 28.2688 20.8116 29.0874 20.2877 29.775C19.7638 30.4299 19.5019 31.1993 19.5019 32.0834L10.7594 32.0834ZM15.1307 45.0497C13.5262 45.0497 12.2001 44.5586 11.1523 43.5763C10.1046 42.5612 9.58067 41.3334 9.58067 39.8927C9.58067 38.4192 10.0882 37.2077 11.1032 36.2582C12.151 35.3086 13.4935 34.8338 15.1307 34.8338C16.7678 34.8338 18.1103 35.3086 19.1581 36.2582C20.2059 37.2077 20.7298 38.4192 20.7298 39.8927C20.7298 41.3334 20.2059 42.5612 19.1581 43.5763C18.1103 44.5586 16.7678 45.0497 15.1307 45.0497Z" fill="rgb(255,255,255)" fill-rule="nonzero" transform="matrix(0.984808,0.173648,-0.174411,0.984673,-69.3418,234.632)" />
					<path id="?" d="M11.4184 27.7661Q10.2478 29.4688 10.2478 32.0834L10.2478 32.595L20.0135 32.595L20.0135 32.0834Q20.0135 31.351 20.2883 30.7429Q20.4438 30.3989 20.6872 30.0946L20.691 30.0899L20.6947 30.0851Q21.4473 29.0973 23.0795 27.705Q24.625 26.359 25.5778 25.3059Q26.6145 24.1655 27.3378 22.5637Q28.0683 20.894 28.0683 18.7732Q28.0683 16.4607 27.1126 14.6539Q27.0497 14.5349 26.9826 14.4182Q26.0315 12.7621 24.2632 11.5752Q20.5953 9.02803 14.5904 9.02803Q9.25914 9.02803 5.46455 11.0012Q3.06595 12.2485 1.34991 14.1212Q0.336933 15.2267 -0.438206 16.5501L-0.706556 17.0082L7.51288 21.4214L7.76236 20.9972Q8.4621 19.8077 9.47552 19.0234Q9.78815 18.7815 10.1306 18.5781Q10.5862 18.3158 11.0718 18.133Q12.1873 17.7132 13.4607 17.7132Q15.2057 17.7132 16.248 18.4949L16.2575 18.502L16.2673 18.5087Q16.7786 18.8564 17.0264 19.3122Q17.0285 19.3162 17.0307 19.3202Q17.2712 19.768 17.2712 20.3449Q17.2712 20.4844 17.2559 20.6221Q17.1766 21.3343 16.6873 22.0008Q16.0246 22.8512 14.6352 24.1448Q12.5282 26.1012 11.4184 27.7661ZM17.0953 22.3095C16.6368 22.8989 15.9329 23.6356 14.9833 24.5197C13.6081 25.7967 12.5603 26.9754 11.84 28.056C11.1961 28.9925 10.84 30.1644 10.7716 31.5718C10.7635 31.739 10.7594 31.9095 10.7594 32.0834L19.5019 32.0834Q19.5019 31.2617 19.8036 30.5719Q19.9888 30.1486 20.2877 29.775Q21.0736 28.7436 22.7435 27.3192C23.7585 26.4352 24.5771 25.6493 25.1992 24.9617C25.8541 24.2414 26.4107 23.3737 26.8691 22.3586C27.3275 21.3109 27.5567 20.1157 27.5567 18.7732C27.5567 15.8591 26.3616 13.5998 23.9713 11.9954Q20.4351 9.53964 14.5904 9.53964C11.1196 9.53964 8.15633 10.1781 5.70059 11.4551Q3.36723 12.6685 1.70391 14.4927Q0.910856 15.3626 0.270122 16.3712Q0.133212 16.5868 0.00325668 16.8087L0.454331 17.0508L7.32138 20.7378Q8.04014 19.516 9.07445 18.6885Q9.45369 18.3851 9.87536 18.1348C10.9559 17.5126 12.151 17.2016 13.4607 17.2016Q15.3762 17.2016 16.555 18.0856Q17.2272 18.5427 17.5314 19.1765Q17.7829 19.7004 17.7829 20.3449Q17.7829 20.5615 17.7525 20.7738Q17.6385 21.5723 17.0953 22.3095ZM11.9746 44.8055Q13.344 45.5613 15.1307 45.5614Q17.0207 45.5614 18.4392 44.7435Q19.0156 44.4111 19.5141 43.9437Q20.41 43.0758 20.8412 42.0184Q21.2414 41.0371 21.2414 39.8927Q21.2414 38.5363 20.7024 37.4464Q20.2731 36.5782 19.5016 35.8791Q19.076 35.4933 18.593 35.2032Q17.1264 34.3222 15.1307 34.3222Q13.1512 34.3222 11.689 35.1919Q11.1914 35.4879 10.7537 35.8845Q10.0514 36.5416 9.64184 37.3474Q9.06905 38.4745 9.06905 39.8927Q9.06905 41.0235 9.46114 41.9963Q9.89345 43.069 10.8024 43.9495Q11.3443 44.4576 11.9746 44.8055ZM12.1684 44.3265Q13.4446 45.0497 15.1307 45.0497Q16.9363 45.0497 18.2641 44.2531Q18.742 43.9663 19.1581 43.5763C20.2059 42.5612 20.7298 41.3334 20.7298 39.8927Q20.7298 38.6494 20.2325 37.6549Q19.8457 36.8813 19.1581 36.2582Q18.8006 35.9342 18.3973 35.6839Q17.0278 34.8338 15.1307 34.8338Q13.2335 34.8338 11.864 35.6839Q11.4607 35.9342 11.1032 36.2582C10.0882 37.2077 9.58067 38.4192 9.58067 39.8927C9.58067 41.3334 10.1046 42.5612 11.1523 43.5763Q11.6229 44.0175 12.1684 44.3265Z" fill="rgb(39,26,88)" fill-rule="evenodd" transform="matrix(0.984808,0.173648,-0.174411,0.984673,-69.3418,234.632)" />
				</g>
				<g id="Frame 2043683105" customFrame="url(#clipPath_16)">
					<rect id="Frame 2043683105" width="106.460831" height="141.947784" x="0.000000" y="0.000000" rx="19.025000" fill="rgb(153,209,0)" transform="matrix(0.984808,0.173648,-0.174411,0.984673,11.6758,204.266)" />
					<rect id="Frame 2043683105" width="105.960831" height="141.447784" x="0.250000" y="0.250000" rx="19.025000" stroke="rgb(39,26,88)" stroke-width="0.5" transform="matrix(0.984808,0.173648,-0.174411,0.984673,11.6758,204.266)" />
					<path id="?" d="M13.2436 39.8011C13.2436 37.7717 13.6901 36.1077 14.583 34.8089C15.4759 33.4696 16.7747 32.0084 18.4793 30.4256C19.6563 29.3297 20.5289 28.4165 21.0972 27.686C21.6654 26.9148 21.9495 26.1031 21.9495 25.2508C21.9495 24.0737 21.4421 23.1403 20.4275 22.4503C19.4534 21.7197 18.1749 21.3544 16.592 21.3544C14.9686 21.3544 13.4872 21.74 12.1478 22.5112C10.849 23.2823 9.79376 24.3579 8.98203 25.7378L-0.0890895 20.8674C1.57496 18.0263 3.92899 15.8144 6.97299 14.2315C10.017 12.6486 13.6901 11.8572 17.9923 11.8572C22.8221 11.8572 26.6981 12.8718 29.6204 14.9012C32.5832 16.8899 34.0646 19.6904 34.0646 23.3026C34.0646 24.9667 33.7805 26.4481 33.2123 27.7468C32.6441 29.005 31.9541 30.0806 31.1424 30.9735C30.3712 31.8258 29.3565 32.7999 28.0984 33.8957C26.7184 35.0727 25.7037 36.0874 25.0544 36.9397C24.405 37.7515 24.0803 38.7052 24.0803 39.8011L13.2436 39.8011ZM18.662 55.8734C16.6732 55.8734 15.0294 55.2646 13.7307 54.047C12.4319 52.7888 11.7825 51.2668 11.7825 49.481C11.7825 47.6546 12.4116 46.1529 13.6698 44.9759C14.9686 43.7989 16.6326 43.2104 18.662 43.2104C20.6913 43.2104 22.3553 43.7989 23.6541 44.9759C24.9529 46.1529 25.6023 47.6546 25.6023 49.481C25.6023 51.2668 24.9529 52.7888 23.6541 54.047C22.3553 55.2646 20.6913 55.8734 18.662 55.8734Z" fill="rgb(255,255,255)" fill-rule="nonzero" transform="matrix(0.984808,0.173648,-0.174411,0.984673,39.3428,247.196)" />
					<path id="?" d="M14.1614 34.5191Q12.732 36.5982 12.732 39.8011L12.732 40.3127L24.5919 40.3127L24.5919 39.8011Q24.5919 38.8719 24.939 38.0985Q25.1388 37.6531 25.4539 37.2593L25.4577 37.2546L25.4613 37.2498Q26.4022 36.0149 28.4344 34.2815Q30.3446 32.6178 31.5209 31.3176Q32.7929 29.9184 33.681 27.9519Q34.5762 25.9057 34.5762 23.3026Q34.5762 20.4665 33.4058 18.2539Q33.337 18.1238 33.2642 17.9961Q32.0981 15.9481 29.9122 14.4809Q25.3972 11.3455 17.9923 11.3455Q11.4139 11.3456 6.73696 13.7776Q3.77937 15.3155 1.66487 17.6253Q0.421374 18.9836 -0.530553 20.6088L-0.798902 21.067L9.17353 26.4213L9.42301 25.9972Q10.2949 24.5149 11.5561 23.5323Q11.9597 23.2178 12.4031 22.9545Q12.9818 22.6213 13.5987 22.3901Q14.9972 21.8661 16.592 21.8661Q18.7958 21.8661 20.1205 22.8596L20.13 22.8667L20.1398 22.8733Q20.7982 23.3211 21.1195 23.9122Q21.1284 23.9286 21.1371 23.9452Q21.4379 24.5192 21.4379 25.2508Q21.4379 25.4418 21.4156 25.6301Q21.3087 26.534 20.6892 27.3772Q19.8618 28.4394 18.1312 30.0507Q15.5301 32.4659 14.1614 34.5191ZM21.0972 27.686Q20.2448 28.7818 18.4793 30.4256Q15.9224 32.7999 14.583 34.8089C13.7663 35.9968 13.3231 37.4904 13.2534 39.2895C13.2469 39.4573 13.2436 39.6279 13.2436 39.8011L24.0803 39.8011C24.0803 38.7052 24.405 37.7515 25.0544 36.9397C25.7037 36.0874 26.7184 35.0727 28.0984 33.8957Q29.9856 32.252 31.1424 30.9735C31.9541 30.0806 32.6441 29.005 33.2123 27.7468C33.7805 26.4481 34.0646 24.9667 34.0646 23.3026C34.0646 19.6904 32.5832 16.8899 29.6204 14.9012C26.6981 12.8718 22.8221 11.8572 17.9923 11.8572C13.6901 11.8572 10.017 12.6486 6.97299 14.2315Q4.0807 15.7355 2.01896 17.9967Q0.995185 19.1196 0.176196 20.4291Q0.0407489 20.6457 -0.0890895 20.8674L0.361983 21.1096L8.98203 25.7378C9.79376 24.3579 10.849 23.2823 12.1478 22.5112C13.4872 21.74 14.9686 21.3544 16.592 21.3544Q18.9664 21.3544 20.4275 22.4503Q21.2607 23.0169 21.6378 23.8025Q21.9495 24.4518 21.9495 25.2508Q21.9495 25.5192 21.9119 25.7823Q21.7705 26.7721 21.0972 27.686ZM14.7962 55.4559Q16.4715 56.385 18.662 56.385Q20.9846 56.385 22.7213 55.3763Q23.412 54.9752 24.0101 54.4145Q25.102 53.3567 25.6272 52.0679Q26.1139 50.8736 26.1139 49.481Q26.1139 47.8268 25.4558 46.4986Q24.9338 45.4451 23.9977 44.5968Q23.4864 44.1335 22.9069 43.7833Q21.1121 42.6987 18.662 42.6987Q16.2281 42.6987 14.4375 43.772Q13.8435 44.1281 13.3203 44.6023Q12.469 45.3986 11.9714 46.3751Q11.2709 47.7495 11.2709 49.481Q11.2709 50.8601 11.7495 52.046Q12.2758 53.3499 13.3808 54.4202Q14.0353 55.0339 14.7962 55.4559ZM13.7307 54.047C15.0294 55.2646 16.6732 55.8734 18.662 55.8734C20.6913 55.8734 22.3553 55.2646 23.6541 54.047Q24.6682 53.0646 25.1544 51.8678Q25.6023 50.7654 25.6023 49.481C25.6023 47.6546 24.9529 46.1529 23.6541 44.9759C22.3553 43.7989 20.6913 43.2104 18.662 43.2104C16.6326 43.2104 14.9686 43.7989 13.6698 44.9759C12.4116 46.1529 11.7825 47.6546 11.7825 49.481Q11.7825 50.7654 12.2304 51.8678Q12.7166 53.0646 13.7307 54.047Z" fill="rgb(39,26,88)" fill-rule="evenodd" transform="matrix(0.984808,0.173648,-0.174411,0.984673,39.3428,247.196)" />
				</g>
				<g id="Frame 2043683106" customFrame="url(#clipPath_17)">
					<rect id="Frame 2043683106" width="106.460831" height="141.947784" x="0.000000" y="0.000000" rx="19.025000" fill="rgb(0,158,228)" transform="matrix(0.984808,0.173648,-0.174411,0.984673,122.674,223.838)" />
					<rect id="Frame 2043683106" width="105.960831" height="141.447784" x="0.250000" y="0.250000" rx="19.025000" stroke="rgb(39,26,88)" stroke-width="0.5" transform="matrix(0.984808,0.173648,-0.174411,0.984673,122.674,223.838)" />
					<path id="?" d="M13.2436 39.8011C13.2436 37.7717 13.6901 36.1077 14.583 34.8089C15.4759 33.4696 16.7747 32.0084 18.4793 30.4256C19.6563 29.3297 20.5289 28.4165 21.0972 27.686C21.6654 26.9148 21.9495 26.1031 21.9495 25.2508C21.9495 24.0737 21.4421 23.1403 20.4275 22.4503C19.4534 21.7197 18.1749 21.3544 16.592 21.3544C14.9686 21.3544 13.4872 21.74 12.1478 22.5112C10.849 23.2823 9.79376 24.3579 8.98203 25.7378L-0.0890895 20.8674C1.57496 18.0263 3.92899 15.8144 6.97299 14.2315C10.017 12.6486 13.6901 11.8572 17.9923 11.8572C22.8221 11.8572 26.6981 12.8718 29.6204 14.9012C32.5832 16.8899 34.0646 19.6904 34.0646 23.3026C34.0646 24.9667 33.7805 26.4481 33.2123 27.7468C32.6441 29.005 31.9541 30.0806 31.1424 30.9735C30.3712 31.8258 29.3565 32.7999 28.0984 33.8957C26.7184 35.0727 25.7037 36.0874 25.0544 36.9397C24.405 37.7515 24.0803 38.7052 24.0803 39.8011L13.2436 39.8011ZM18.662 55.8734C16.6732 55.8734 15.0294 55.2646 13.7307 54.047C12.4319 52.7888 11.7825 51.2668 11.7825 49.481C11.7825 47.6546 12.4116 46.1529 13.6698 44.9759C14.9686 43.7989 16.6326 43.2104 18.662 43.2104C20.6913 43.2104 22.3553 43.7989 23.6541 44.9759C24.9529 46.1529 25.6023 47.6546 25.6023 49.481C25.6023 51.2668 24.9529 52.7888 23.6541 54.047C22.3553 55.2646 20.6913 55.8734 18.662 55.8734Z" fill="rgb(255,255,255)" fill-rule="nonzero" transform="matrix(0.984808,0.173648,-0.174411,0.984673,150.341,266.768)" />
					<path id="?" d="M14.1614 34.5191Q12.732 36.5982 12.732 39.8011L12.732 40.3127L24.5919 40.3127L24.5919 39.8011Q24.5919 38.8719 24.939 38.0985Q25.1388 37.6531 25.4539 37.2593L25.4577 37.2546L25.4613 37.2498Q26.4022 36.0149 28.4344 34.2815Q30.3446 32.6178 31.5209 31.3176Q32.7929 29.9184 33.681 27.9519Q34.5762 25.9057 34.5762 23.3026Q34.5762 20.4665 33.4058 18.2539Q33.337 18.1238 33.2642 17.9961Q32.0981 15.9481 29.9122 14.4809Q25.3972 11.3455 17.9923 11.3455Q11.4139 11.3456 6.73696 13.7776Q3.77937 15.3155 1.66487 17.6253Q0.421374 18.9836 -0.530553 20.6088L-0.798902 21.067L9.17353 26.4213L9.42301 25.9972Q10.2949 24.5149 11.5561 23.5323Q11.9597 23.2178 12.4031 22.9545Q12.9818 22.6213 13.5987 22.3901Q14.9972 21.8661 16.592 21.8661Q18.7958 21.8661 20.1205 22.8596L20.13 22.8667L20.1398 22.8733Q20.7982 23.3211 21.1195 23.9122Q21.1284 23.9286 21.1371 23.9452Q21.4379 24.5192 21.4379 25.2508Q21.4379 25.4418 21.4156 25.6301Q21.3087 26.534 20.6892 27.3772Q19.8618 28.4394 18.1312 30.0507Q15.5301 32.4659 14.1614 34.5191ZM21.0972 27.686Q20.2448 28.7818 18.4793 30.4256Q15.9224 32.7999 14.583 34.8089C13.7663 35.9968 13.3231 37.4904 13.2534 39.2895C13.2469 39.4573 13.2436 39.6279 13.2436 39.8011L24.0803 39.8011C24.0803 38.7052 24.405 37.7515 25.0544 36.9397C25.7037 36.0874 26.7184 35.0727 28.0984 33.8957Q29.9856 32.252 31.1424 30.9735C31.9541 30.0806 32.6441 29.005 33.2123 27.7468C33.7805 26.4481 34.0646 24.9667 34.0646 23.3026C34.0646 19.6904 32.5832 16.8899 29.6204 14.9012C26.6981 12.8718 22.8221 11.8572 17.9923 11.8572C13.6901 11.8572 10.017 12.6486 6.97299 14.2315Q4.0807 15.7355 2.01896 17.9967Q0.995185 19.1196 0.176196 20.4291Q0.0407489 20.6457 -0.0890895 20.8674L0.361983 21.1096L8.98203 25.7378C9.79376 24.3579 10.849 23.2823 12.1478 22.5112C13.4872 21.74 14.9686 21.3544 16.592 21.3544Q18.9664 21.3544 20.4275 22.4503Q21.2607 23.0169 21.6378 23.8025Q21.9495 24.4518 21.9495 25.2508Q21.9495 25.5192 21.9119 25.7823Q21.7705 26.7721 21.0972 27.686ZM14.7962 55.4559Q16.4715 56.385 18.662 56.385Q20.9846 56.385 22.7213 55.3763Q23.412 54.9752 24.0101 54.4145Q25.102 53.3567 25.6272 52.0679Q26.1139 50.8736 26.1139 49.481Q26.1139 47.8268 25.4558 46.4986Q24.9338 45.4451 23.9977 44.5968Q23.4864 44.1335 22.9069 43.7833Q21.1121 42.6987 18.662 42.6987Q16.2281 42.6987 14.4375 43.772Q13.8435 44.1281 13.3203 44.6023Q12.469 45.3986 11.9714 46.3751Q11.2709 47.7495 11.2709 49.481Q11.2709 50.8601 11.7495 52.046Q12.2758 53.3499 13.3808 54.4202Q14.0353 55.0339 14.7962 55.4559ZM13.7307 54.047C15.0294 55.2646 16.6732 55.8734 18.662 55.8734C20.6913 55.8734 22.3553 55.2646 23.6541 54.047Q24.6682 53.0646 25.1544 51.8678Q25.6023 50.7654 25.6023 49.481C25.6023 47.6546 24.9529 46.1529 23.6541 44.9759C22.3553 43.7989 20.6913 43.2104 18.662 43.2104C16.6326 43.2104 14.9686 43.7989 13.6698 44.9759C12.4116 46.1529 11.7825 47.6546 11.7825 49.481Q11.7825 50.7654 12.2304 51.8678Q12.7166 53.0646 13.7307 54.047Z" fill="rgb(39,26,88)" fill-rule="evenodd" transform="matrix(0.984808,0.173648,-0.174411,0.984673,150.341,266.768)" />
				</g>
				<g id="Frame 2043683107" customFrame="url(#clipPath_18)">
					<rect id="Frame 2043683107" width="106.460831" height="141.947784" x="0.000000" y="0.000000" rx="19.025000" fill="rgb(173,97,255)" transform="matrix(0.984808,0.173648,-0.174411,0.984673,233.671,243.409)" />
					<rect id="Frame 2043683107" width="105.960831" height="141.447784" x="0.250000" y="0.250000" rx="19.025000" stroke="rgb(39,26,88)" stroke-width="0.5" transform="matrix(0.984808,0.173648,-0.174411,0.984673,233.671,243.409)" />
					<path id="?" d="M10.7594 32.0834C10.7594 30.4462 11.1196 29.1038 11.84 28.056C12.5603 26.9754 13.6081 25.7967 14.9833 24.5197C15.9329 23.6356 16.6368 22.8989 17.0953 22.3095C17.5537 21.6874 17.7829 21.0325 17.7829 20.3449C17.7829 19.3954 17.3736 18.6423 16.555 18.0856C15.7691 17.4963 14.7377 17.2016 13.4607 17.2016C12.151 17.2016 10.9559 17.5126 9.87536 18.1348C8.82757 18.7569 7.97625 19.6246 7.32138 20.7378L0.00325668 16.8087C1.34573 14.5166 3.24484 12.7321 5.70059 11.4551C8.15633 10.1781 11.1196 9.53964 14.5904 9.53964C18.4868 9.53964 21.6138 10.3582 23.9713 11.9954C26.3616 13.5998 27.5567 15.8591 27.5567 18.7732C27.5567 20.1157 27.3275 21.3109 26.8691 22.3586C26.4107 23.3737 25.8541 24.2414 25.1992 24.9617C24.5771 25.6493 23.7585 26.4352 22.7435 27.3192C21.6302 28.2688 20.8116 29.0874 20.2877 29.775C19.7638 30.4299 19.5019 31.1993 19.5019 32.0834L10.7594 32.0834ZM15.1307 45.0497C13.5262 45.0497 12.2001 44.5586 11.1523 43.5763C10.1046 42.5612 9.58067 41.3334 9.58067 39.8927C9.58067 38.4192 10.0882 37.2077 11.1032 36.2582C12.151 35.3086 13.4935 34.8338 15.1307 34.8338C16.7678 34.8338 18.1103 35.3086 19.1581 36.2582C20.2059 37.2077 20.7298 38.4192 20.7298 39.8927C20.7298 41.3334 20.2059 42.5612 19.1581 43.5763C18.1103 44.5586 16.7678 45.0497 15.1307 45.0497Z" fill="rgb(255,255,255)" fill-rule="nonzero" transform="matrix(0.984808,0.173648,-0.174411,0.984673,263.652,293.348)" />
					<path id="?" d="M11.4184 27.7661Q10.2478 29.4688 10.2478 32.0834L10.2478 32.595L20.0135 32.595L20.0135 32.0834Q20.0135 31.351 20.2883 30.7429Q20.4438 30.3989 20.6872 30.0946L20.691 30.0899L20.6947 30.0851Q21.4473 29.0973 23.0795 27.705Q24.625 26.359 25.5778 25.3059Q26.6145 24.1655 27.3378 22.5637Q28.0683 20.894 28.0683 18.7732Q28.0683 16.4607 27.1126 14.6539Q27.0497 14.5349 26.9826 14.4182Q26.0315 12.7621 24.2632 11.5752Q20.5953 9.02803 14.5904 9.02803Q9.25914 9.02803 5.46455 11.0012Q3.06595 12.2485 1.34991 14.1212Q0.336933 15.2267 -0.438206 16.5501L-0.706556 17.0082L7.51288 21.4214L7.76236 20.9972Q8.4621 19.8077 9.47552 19.0234Q9.78815 18.7815 10.1306 18.5781Q10.5862 18.3158 11.0718 18.133Q12.1873 17.7132 13.4607 17.7132Q15.2057 17.7132 16.248 18.4949L16.2575 18.502L16.2673 18.5087Q16.7786 18.8564 17.0264 19.3122Q17.0285 19.3162 17.0307 19.3202Q17.2712 19.768 17.2712 20.3449Q17.2712 20.4844 17.2559 20.6221Q17.1766 21.3343 16.6873 22.0008Q16.0246 22.8512 14.6352 24.1448Q12.5282 26.1012 11.4184 27.7661ZM17.0953 22.3095C16.6368 22.8989 15.9329 23.6356 14.9833 24.5197C13.6081 25.7967 12.5603 26.9754 11.84 28.056C11.1961 28.9925 10.84 30.1644 10.7716 31.5718C10.7635 31.739 10.7594 31.9095 10.7594 32.0834L19.5019 32.0834Q19.5019 31.2617 19.8036 30.5719Q19.9888 30.1486 20.2877 29.775Q21.0736 28.7436 22.7435 27.3192C23.7585 26.4352 24.5771 25.6493 25.1992 24.9617C25.8541 24.2414 26.4107 23.3737 26.8691 22.3586C27.3275 21.3109 27.5567 20.1157 27.5567 18.7732C27.5567 15.8591 26.3616 13.5998 23.9713 11.9954Q20.4351 9.53964 14.5904 9.53964C11.1196 9.53964 8.15633 10.1781 5.70059 11.4551Q3.36723 12.6685 1.70391 14.4927Q0.910856 15.3626 0.270122 16.3712Q0.133212 16.5868 0.00325668 16.8087L0.454331 17.0508L7.32138 20.7378Q8.04014 19.516 9.07445 18.6885Q9.45369 18.3851 9.87536 18.1348C10.9559 17.5126 12.151 17.2016 13.4607 17.2016Q15.3762 17.2016 16.555 18.0856Q17.2272 18.5427 17.5314 19.1765Q17.7829 19.7004 17.7829 20.3449Q17.7829 20.5615 17.7525 20.7738Q17.6385 21.5723 17.0953 22.3095ZM11.9746 44.8055Q13.344 45.5613 15.1307 45.5614Q17.0207 45.5614 18.4392 44.7435Q19.0156 44.4111 19.5141 43.9437Q20.41 43.0758 20.8412 42.0184Q21.2414 41.0371 21.2414 39.8927Q21.2414 38.5363 20.7024 37.4464Q20.2731 36.5782 19.5016 35.8791Q19.076 35.4933 18.593 35.2032Q17.1264 34.3222 15.1307 34.3222Q13.1512 34.3222 11.689 35.1919Q11.1914 35.4879 10.7537 35.8845Q10.0514 36.5416 9.64184 37.3474Q9.06905 38.4745 9.06905 39.8927Q9.06905 41.0235 9.46114 41.9963Q9.89345 43.069 10.8024 43.9495Q11.3443 44.4576 11.9746 44.8055ZM12.1684 44.3265Q13.4446 45.0497 15.1307 45.0497Q16.9363 45.0497 18.2641 44.2531Q18.742 43.9663 19.1581 43.5763C20.2059 42.5612 20.7298 41.3334 20.7298 39.8927Q20.7298 38.6494 20.2325 37.6549Q19.8457 36.8813 19.1581 36.2582Q18.8006 35.9342 18.3973 35.6839Q17.0278 34.8338 15.1307 34.8338Q13.2335 34.8338 11.864 35.6839Q11.4607 35.9342 11.1032 36.2582C10.0882 37.2077 9.58067 38.4192 9.58067 39.8927C9.58067 41.3334 10.1046 42.5612 11.1523 43.5763Q11.6229 44.0175 12.1684 44.3265Z" fill="rgb(39,26,88)" fill-rule="evenodd" transform="matrix(0.984808,0.173648,-0.174411,0.984673,263.652,293.348)" />
				</g>
				<g id="Frame 2043683108" customFrame="url(#clipPath_19)">
					<rect id="Frame 2043683108" width="106.460831" height="141.947784" x="0.000000" y="0.000000" rx="19.025000" fill="rgb(86,94,239)" transform="matrix(0.984808,0.173648,-0.174411,0.984673,344.669,262.981)" />
					<rect id="Frame 2043683108" width="105.960831" height="141.447784" x="0.250000" y="0.250000" rx="19.025000" stroke="rgb(39,26,88)" stroke-width="0.5" transform="matrix(0.984808,0.173648,-0.174411,0.984673,344.669,262.981)" />
					<path id="?" d="M10.7594 32.0834C10.7594 30.4462 11.1196 29.1038 11.84 28.056C12.5603 26.9754 13.6081 25.7967 14.9833 24.5197C15.9329 23.6356 16.6368 22.8989 17.0953 22.3095C17.5537 21.6874 17.7829 21.0325 17.7829 20.3449C17.7829 19.3954 17.3736 18.6423 16.555 18.0856C15.7691 17.4963 14.7377 17.2016 13.4607 17.2016C12.151 17.2016 10.9559 17.5126 9.87536 18.1348C8.82757 18.7569 7.97625 19.6246 7.32138 20.7378L0.00325668 16.8087C1.34573 14.5166 3.24484 12.7321 5.70059 11.4551C8.15633 10.1781 11.1196 9.53964 14.5904 9.53964C18.4868 9.53964 21.6138 10.3582 23.9713 11.9954C26.3616 13.5998 27.5567 15.8591 27.5567 18.7732C27.5567 20.1157 27.3275 21.3109 26.8691 22.3586C26.4107 23.3737 25.8541 24.2414 25.1992 24.9617C24.5771 25.6493 23.7585 26.4352 22.7435 27.3192C21.6302 28.2688 20.8116 29.0874 20.2877 29.775C19.7638 30.4299 19.5019 31.1993 19.5019 32.0834L10.7594 32.0834ZM15.1307 45.0497C13.5262 45.0497 12.2001 44.5586 11.1523 43.5763C10.1046 42.5612 9.58067 41.3334 9.58067 39.8927C9.58067 38.4192 10.0882 37.2077 11.1032 36.2582C12.151 35.3086 13.4935 34.8338 15.1307 34.8338C16.7678 34.8338 18.1103 35.3086 19.1581 36.2582C20.2059 37.2077 20.7298 38.4192 20.7298 39.8927C20.7298 41.3334 20.2059 42.5612 19.1581 43.5763C18.1103 44.5586 16.7678 45.0497 15.1307 45.0497Z" fill="rgb(255,255,255)" fill-rule="nonzero" transform="matrix(0.984808,0.173648,-0.174411,0.984673,374.649,312.92)" />
					<path id="?" d="M11.4184 27.7661Q10.2478 29.4688 10.2478 32.0834L10.2478 32.595L20.0135 32.595L20.0135 32.0834Q20.0135 31.351 20.2883 30.7429Q20.4438 30.3989 20.6872 30.0946L20.691 30.0899L20.6947 30.0851Q21.4473 29.0973 23.0795 27.705Q24.625 26.359 25.5778 25.3059Q26.6145 24.1655 27.3378 22.5637Q28.0683 20.894 28.0683 18.7732Q28.0683 16.4607 27.1126 14.6539Q27.0497 14.5349 26.9826 14.4182Q26.0315 12.7621 24.2632 11.5752Q20.5953 9.02803 14.5904 9.02803Q9.25914 9.02803 5.46455 11.0012Q3.06595 12.2485 1.34991 14.1212Q0.336933 15.2267 -0.438206 16.5501L-0.706556 17.0082L7.51288 21.4214L7.76236 20.9972Q8.4621 19.8077 9.47552 19.0234Q9.78815 18.7815 10.1306 18.5781Q10.5862 18.3158 11.0718 18.133Q12.1873 17.7132 13.4607 17.7132Q15.2057 17.7132 16.248 18.4949L16.2575 18.502L16.2673 18.5087Q16.7786 18.8564 17.0264 19.3122Q17.0285 19.3162 17.0307 19.3202Q17.2712 19.768 17.2712 20.3449Q17.2712 20.4844 17.2559 20.6221Q17.1766 21.3343 16.6873 22.0008Q16.0246 22.8512 14.6352 24.1448Q12.5282 26.1012 11.4184 27.7661ZM17.0953 22.3095C16.6368 22.8989 15.9329 23.6356 14.9833 24.5197C13.6081 25.7967 12.5603 26.9754 11.84 28.056C11.1961 28.9925 10.84 30.1644 10.7716 31.5718C10.7635 31.739 10.7594 31.9095 10.7594 32.0834L19.5019 32.0834Q19.5019 31.2617 19.8036 30.5719Q19.9888 30.1486 20.2877 29.775Q21.0736 28.7436 22.7435 27.3192C23.7585 26.4352 24.5771 25.6493 25.1992 24.9617C25.8541 24.2414 26.4107 23.3737 26.8691 22.3586C27.3275 21.3109 27.5567 20.1157 27.5567 18.7732C27.5567 15.8591 26.3616 13.5998 23.9713 11.9954Q20.4351 9.53964 14.5904 9.53964C11.1196 9.53964 8.15633 10.1781 5.70059 11.4551Q3.36723 12.6685 1.70391 14.4927Q0.910856 15.3626 0.270122 16.3712Q0.133212 16.5868 0.00325668 16.8087L0.454331 17.0508L7.32138 20.7378Q8.04014 19.516 9.07445 18.6885Q9.45369 18.3851 9.87536 18.1348C10.9559 17.5126 12.151 17.2016 13.4607 17.2016Q15.3762 17.2016 16.555 18.0856Q17.2272 18.5427 17.5314 19.1765Q17.7829 19.7004 17.7829 20.3449Q17.7829 20.5615 17.7525 20.7738Q17.6385 21.5723 17.0953 22.3095ZM11.9746 44.8055Q13.344 45.5613 15.1307 45.5614Q17.0207 45.5614 18.4392 44.7435Q19.0156 44.4111 19.5141 43.9437Q20.41 43.0758 20.8412 42.0184Q21.2414 41.0371 21.2414 39.8927Q21.2414 38.5363 20.7024 37.4464Q20.2731 36.5782 19.5016 35.8791Q19.076 35.4933 18.593 35.2032Q17.1264 34.3222 15.1307 34.3222Q13.1512 34.3222 11.689 35.1919Q11.1914 35.4879 10.7537 35.8845Q10.0514 36.5416 9.64184 37.3474Q9.06905 38.4745 9.06905 39.8927Q9.06905 41.0235 9.46114 41.9963Q9.89345 43.069 10.8024 43.9495Q11.3443 44.4576 11.9746 44.8055ZM12.1684 44.3265Q13.4446 45.0497 15.1307 45.0497Q16.9363 45.0497 18.2641 44.2531Q18.742 43.9663 19.1581 43.5763C20.2059 42.5612 20.7298 41.3334 20.7298 39.8927Q20.7298 38.6494 20.2325 37.6549Q19.8457 36.8813 19.1581 36.2582Q18.8006 35.9342 18.3973 35.6839Q17.0278 34.8338 15.1307 34.8338Q13.2335 34.8338 11.864 35.6839Q11.4607 35.9342 11.1032 36.2582C10.0882 37.2077 9.58067 38.4192 9.58067 39.8927C9.58067 41.3334 10.1046 42.5612 11.1523 43.5763Q11.6229 44.0175 12.1684 44.3265Z" fill="rgb(39,26,88)" fill-rule="evenodd" transform="matrix(0.984808,0.173648,-0.174411,0.984673,374.649,312.92)" />
				</g>
			</g>
		</g>
		<g id="Group 1597880560">
			<g id="Frame 2043683065" filter="url(#filter_0)" customFrame="url(#clipPath_20)">
				<rect id="Frame 2043683065" width="138.132965" height="184.177322" x="0.000000" y="0.000000" rx="19.025000" fill="rgb(255,199,0)" transform="matrix(0.984808,0.173648,-0.174411,0.984673,136.538,54.3774)" />
				<rect id="Frame 2043683065" width="138.632965" height="184.677322" x="-0.250000" y="-0.250000" rx="19.025000" stroke="rgb(39,26,88)" stroke-width="0.5" transform="matrix(0.984808,0.173648,-0.174411,0.984673,136.538,54.3774)" />
				<rect id="Frame 2043683065" width="138.632965" height="184.677322" x="-0.250000" y="-0.250000" rx="19.025000" stroke="rgb(0,0,0)" stroke-opacity="0.200000003" stroke-width="0.5" transform="matrix(0.984808,0.173648,-0.174411,0.984673,136.538,54.3774)" />
			</g>
			<path id="✊" transform="matrix(0.984808,0.173648,-0.174411,0.984673,156.008,105.922)" />
		</g>
	</g>
</svg>
