<svg viewBox="0 0 600 500" xmlns="http://www.w3.org/2000/svg" xmlns:xlink="http://www.w3.org/1999/xlink" width="600.000000" height="500.000000" fill="none" clip-path="url(#clipPath_42)" customFrame="url(#clipPath_42)">
	<defs>
		<clipPath id="clipPath_42">
			<rect width="600.000000" height="500.000000" x="0.000000" y="0.000000" rx="30.000000" fill="rgb(255,255,255)" />
		</clipPath>
		<clipPath id="clipPath_43">
			<rect width="878.966492" height="690.862488" x="0.000000" y="0.000000" rx="30.000000" fill="rgb(255,255,255)" transform="matrix(0.984808,0.173648,-0.173648,0.984808,-73,-166)" />
		</clipPath>
		<clipPath id="clipPath_44">
			<rect width="878.966492" height="223.833496" x="0.000000" y="0.000000" fill="rgb(255,255,255)" transform="matrix(0.984808,0.173648,-0.173648,0.984808,-73,-166)" />
		</clipPath>
		<clipPath id="clipPath_45">
			<rect width="167.875168" height="223.833557" x="0.000000" y="0.000000" rx="30.000000" fill="rgb(255,255,255)" transform="matrix(0.984808,0.173648,-0.174411,0.984673,-72.8291,-165.97)" />
		</clipPath>
		<clipPath id="clipPath_46">
			<rect width="167.875168" height="223.833557" x="0.000000" y="0.000000" rx="30.000000" fill="rgb(255,255,255)" transform="matrix(0.984808,0.173648,-0.174411,0.984673,102.2,-135.107)" />
		</clipPath>
		<clipPath id="clipPath_47">
			<rect width="167.875168" height="223.833557" x="0.000000" y="0.000000" rx="30.000000" fill="rgb(255,255,255)" transform="matrix(0.984808,0.173648,-0.174411,0.984673,277.229,-104.245)" />
		</clipPath>
		<clipPath id="clipPath_48">
			<rect width="167.875168" height="223.833557" x="0.000000" y="0.000000" rx="30.000000" fill="rgb(255,255,255)" transform="matrix(0.984808,0.173648,-0.174411,0.984673,452.259,-73.3828)" />
		</clipPath>
		<clipPath id="clipPath_49">
			<rect width="167.875168" height="223.833557" x="0.000000" y="0.000000" rx="30.000000" fill="rgb(255,255,255)" transform="matrix(0.984808,0.173648,-0.174411,0.984673,627.288,-42.5205)" />
		</clipPath>
		<clipPath id="clipPath_50">
			<rect width="878.966492" height="223.833496" x="0.000000" y="0.000000" fill="rgb(255,255,255)" transform="matrix(0.984808,0.173648,-0.173648,0.984808,-113.55,63.9668)" />
		</clipPath>
		<clipPath id="clipPath_51">
			<rect width="167.875168" height="223.833557" x="0.000000" y="0.000000" rx="30.000000" fill="rgb(255,255,255)" transform="matrix(0.984808,0.173648,-0.174411,0.984673,-113.379,63.9971)" />
		</clipPath>
		<clipPath id="clipPath_52">
			<rect width="167.875168" height="223.833557" x="0.000000" y="0.000000" rx="30.000000" fill="rgb(255,255,255)" transform="matrix(0.984808,0.173648,-0.174411,0.984673,61.6504,94.8594)" />
		</clipPath>
		<clipPath id="clipPath_53">
			<rect width="167.875168" height="223.833557" x="0.000000" y="0.000000" rx="30.000000" fill="rgb(255,255,255)" transform="matrix(0.984808,0.173648,-0.174411,0.984673,236.68,125.722)" />
		</clipPath>
		<clipPath id="clipPath_54">
			<rect width="167.875168" height="223.833557" x="0.000000" y="0.000000" rx="30.000000" fill="rgb(255,255,255)" transform="matrix(0.984808,0.173648,-0.174411,0.984673,411.709,156.584)" />
		</clipPath>
		<clipPath id="clipPath_55">
			<rect width="167.875168" height="223.833557" x="0.000000" y="0.000000" rx="30.000000" fill="rgb(255,255,255)" transform="matrix(0.984808,0.173648,-0.174411,0.984673,586.739,187.447)" />
		</clipPath>
		<clipPath id="clipPath_56">
			<rect width="878.966492" height="223.833496" x="0.000000" y="0.000000" fill="rgb(255,255,255)" transform="matrix(0.984808,0.173648,-0.173648,0.984808,-154.099,293.934)" />
		</clipPath>
		<clipPath id="clipPath_57">
			<rect width="167.875168" height="223.833557" x="0.000000" y="0.000000" rx="30.000000" fill="rgb(255,255,255)" transform="matrix(0.984808,0.173648,-0.174411,0.984673,-153.928,293.964)" />
		</clipPath>
		<clipPath id="clipPath_58">
			<rect width="167.875168" height="223.833557" x="0.000000" y="0.000000" rx="30.000000" fill="rgb(255,255,255)" transform="matrix(0.984808,0.173648,-0.174411,0.984673,21.1016,324.826)" />
		</clipPath>
		<clipPath id="clipPath_59">
			<rect width="167.875168" height="223.833557" x="0.000000" y="0.000000" rx="30.000000" fill="rgb(255,255,255)" transform="matrix(0.984808,0.173648,-0.174411,0.984673,196.131,355.688)" />
		</clipPath>
		<clipPath id="clipPath_60">
			<rect width="167.875168" height="223.833557" x="0.000000" y="0.000000" rx="30.000000" fill="rgb(255,255,255)" transform="matrix(0.984808,0.173648,-0.174411,0.984673,371.16,386.551)" />
		</clipPath>
		<clipPath id="clipPath_61">
			<rect width="167.875168" height="223.833557" x="0.000000" y="0.000000" rx="30.000000" fill="rgb(255,255,255)" transform="matrix(0.984808,0.173648,-0.174411,0.984673,546.189,417.414)" />
		</clipPath>
		<g id="pixso_custom_effect_2">
			<effect x="0.000000" y="24.072372" visibility="visible" fill="rgb(0,0,0)" fill-opacity="0.300000012" effectType="dropShadow" stdDeviation="80.6424484" radius="-14.4434223" />
		</g>
		<filter id="filter_2" width="390.025879" height="448.697754" x="104.910156" y="50.093262" filterUnits="userSpaceOnUse" customEffect="url(#pixso_custom_effect_2)" color-interpolation-filters="sRGB">
			<feFlood flood-opacity="0" result="BackgroundImageFix" />
			<feColorMatrix result="hardAlpha" in="SourceAlpha" type="matrix" values="0 0 0 0 0 0 0 0 0 0 0 0 0 0 0 0 0 0 127 0 " />
			<feOffset dx="4259.000488" dy="4171.072266" in="hardAlpha" />
			<feMorphology radius="-14.4434223" operator="dilate" />
			<feOffset dx="-4259.000488" dy="-4147.000000" />
			<feGaussianBlur stdDeviation="26.8808155" />
			<feComposite k2="-1" k3="1" in2="hardAlpha" operator="out" />
			<feColorMatrix type="matrix" values="0 0 0 0 0 0 0 0 0 0 0 0 0 0 0 0 0 0 0.3 0 " />
			<feBlend result="effect_dropShadow_1" in2="BackgroundImageFix" mode="normal" />
			<feBlend result="shape" in="SourceGraphic" in2="effect_dropShadow_1" mode="normal" />
		</filter>
		<clipPath id="clipPath_62">
			<rect width="217.818085" height="290.424133" x="0.000000" y="0.000000" rx="30.000000" fill="rgb(255,255,255)" transform="matrix(0.984808,0.173648,-0.174411,0.984673,217.995,88.4717)" />
		</clipPath>
	</defs>
	<rect id="Обложка карточки" width="600.000000" height="500.000000" x="0.000000" y="0.000000" rx="30.000000" fill="rgb(39,26,88)" />
	<g id="Group 1597880559">
		<g id="Frame 2043683114" customFrame="url(#clipPath_43)">
			<rect id="Frame 2043683114" width="878.966492" height="690.862488" x="0.000000" y="0.000000" rx="30.000000" transform="matrix(0.984808,0.173648,-0.173648,0.984808,-73,-166)" />
			<g id="Frame 2043683111" customFrame="url(#clipPath_44)">
				<rect id="Frame 2043683111" width="878.966492" height="223.833496" x="0.000000" y="0.000000" transform="matrix(0.984808,0.173648,-0.173648,0.984808,-73,-166)" />
				<g id="Frame 2043683103" customFrame="url(#clipPath_45)">
					<rect id="Frame 2043683103" width="167.875168" height="223.833557" x="0.000000" y="0.000000" rx="30.000000" fill="rgb(86,94,239)" transform="matrix(0.984808,0.173648,-0.174411,0.984673,-72.8291,-165.97)" />
					<rect id="Frame 2043683103" width="166.875168" height="222.833557" x="0.500000" y="0.500000" rx="30.000000" stroke="rgb(39,26,88)" stroke-width="1" transform="matrix(0.984808,0.173648,-0.174411,0.984673,-72.8291,-165.97)" />
					<path id="?" d="M16.8132 50.5159C16.8132 47.9343 17.3811 45.8174 18.517 44.1651C19.6529 42.4613 21.3051 40.6025 23.4737 38.5889C24.971 37.1948 26.0811 36.0331 26.8039 35.1037C27.5268 34.1227 27.8882 33.0901 27.8882 32.0058C27.8882 30.5085 27.2428 29.3209 25.952 28.4432C24.7128 27.5138 23.0864 27.0491 21.0728 27.0491C19.0075 27.0491 17.1229 27.5396 15.4191 28.5206C13.7669 29.5016 12.4244 30.8699 11.3918 32.6254L-0.147956 26.4295C1.96896 22.8153 4.96361 20.0014 8.83601 17.9877C12.7084 15.9741 17.3811 14.9672 22.8541 14.9672C28.9983 14.9672 33.9292 16.258 37.6467 18.8396C41.4158 21.3696 43.3004 24.9322 43.3004 29.5275C43.3004 31.6444 42.9389 33.5289 42.2161 35.1812C41.4932 36.7818 40.6155 38.15 39.5829 39.2859C38.6019 40.3702 37.3111 41.6093 35.7105 43.0034C33.955 44.5007 32.6642 45.7915 31.8381 46.8758C31.012 47.9084 30.5989 49.1218 30.5989 50.5159L16.8132 50.5159ZM23.706 70.9621C21.1761 70.9621 19.085 70.1877 17.4327 68.6387C15.7805 67.0381 14.9544 65.1019 14.9544 62.8301C14.9544 60.5067 15.7547 58.5963 17.3553 57.0989C19.0075 55.6016 21.1244 54.853 23.706 54.853C26.2876 54.853 28.4045 55.6016 30.0568 57.0989C31.709 58.5963 32.5351 60.5067 32.5351 62.8301C32.5351 65.1019 31.709 67.0381 30.0568 68.6387C28.4045 70.1877 26.2876 70.9621 23.706 70.9621Z" fill="rgb(255,255,255)" fill-rule="nonzero" transform="matrix(0.984808,0.173648,-0.174411,0.984673,-25.417,-87.1221)" />
					<path id="?" d="M17.8522 43.7081Q16.0064 46.3929 16.0064 50.5159L16.0064 51.3226L31.4056 51.3226L31.4056 50.5159Q31.4056 49.361 31.839 48.4021Q32.0842 47.8596 32.468 47.3798L32.474 47.3723L32.4798 47.3647Q33.6665 45.8071 36.2403 43.6118Q38.6774 41.4892 40.1798 39.8286Q41.8146 38.0303 42.9552 35.5045Q44.1071 32.8716 44.1071 29.5275Q44.1071 25.8808 42.6001 23.0318Q42.5007 22.8441 42.395 22.6599Q40.8951 20.0485 38.1068 18.177Q32.3231 14.1605 22.8541 14.1605Q14.4474 14.1605 8.46381 17.2719Q4.68147 19.2388 1.97547 22.1919Q0.378179 23.935 -0.844087 26.0218L-1.26724 26.7443L11.6938 33.7032L12.0872 33.0344Q13.1905 31.1587 14.7885 29.922Q15.2815 29.5405 15.8216 29.2198Q16.5401 28.8061 17.3059 28.5179Q19.0648 27.8559 21.0728 27.8559Q23.8243 27.8559 25.468 29.0886L25.4829 29.0998L25.4984 29.1103Q26.3047 29.6586 26.6953 30.3774Q26.6988 30.3837 26.7021 30.39Q27.0815 31.096 27.0815 32.0058Q27.0815 32.2256 27.0573 32.4428Q26.9323 33.5658 26.1606 34.6168Q25.1157 35.9578 22.9247 37.9977Q19.6023 41.0828 17.8522 43.7081ZM26.8039 35.1037C26.0811 36.0331 24.971 37.1948 23.4737 38.5889C21.3051 40.6025 19.6529 42.4613 18.517 44.1651C17.5017 45.6419 16.9402 47.4899 16.8324 49.7091C16.8196 49.9728 16.8132 50.2417 16.8132 50.5159L30.5989 50.5159C30.5989 49.1218 31.012 47.9084 31.8381 46.8758C32.6642 45.7915 33.955 44.5007 35.7105 43.0034C37.3111 41.6093 38.6019 40.3702 39.5829 39.2859C40.6155 38.15 41.4932 36.7818 42.2161 35.1812C42.9389 33.5289 43.3004 31.6444 43.3004 29.5275C43.3004 24.9322 41.4158 21.3696 37.6467 18.8396Q32.0704 14.9672 22.8541 14.9672Q14.6446 14.9672 8.83601 17.9877Q5.15661 19.901 2.53379 22.7776Q1.28322 24.1492 0.272858 25.7398Q0.0569677 26.0797 -0.147956 26.4295L0.563331 26.8114L11.3918 32.6254Q12.5252 30.6986 14.1562 29.3938Q14.7542 28.9154 15.4191 28.5206C17.1229 27.5396 19.0075 27.0491 21.0728 27.0491C23.0864 27.0491 24.7128 27.5138 25.952 28.4432C27.2428 29.3209 27.8882 30.5085 27.8882 32.0058C27.8882 33.0901 27.5268 34.1227 26.8039 35.1037ZM18.7292 70.5769Q20.8886 71.7689 23.706 71.7689Q26.6866 71.7689 28.9234 70.479Q29.8321 69.955 30.6181 69.2181Q31.9692 67.9092 32.6526 66.3142L32.6575 66.3027Q32.7126 66.1736 32.7632 66.0429Q33.3419 64.5485 33.3418 62.8301Q33.3418 60.9206 32.656 59.3345Q32.5458 59.0796 32.4181 58.8337Q31.7481 57.543 30.5985 56.5012Q29.9273 55.8929 29.1655 55.4353Q26.853 54.0462 23.706 54.0462Q20.5848 54.0462 18.2791 55.4175Q17.4944 55.8842 16.8042 56.5098Q15.7604 57.4862 15.125 58.6799Q14.9528 59.0035 14.8105 59.343Q14.1476 60.9254 14.1477 62.8301Q14.1477 64.5484 14.7262 66.0428Q14.7769 66.1736 14.832 66.3027Q15.5154 67.9045 16.881 69.2272Q17.7354 70.0283 18.7292 70.5769ZM17.4327 68.6387C19.085 70.1877 21.1761 70.9621 23.706 70.9621C26.2876 70.9621 28.4045 70.1877 30.0568 68.6387C31.709 67.0381 32.5351 65.1019 32.5351 62.8301C32.5351 60.5067 31.709 58.5963 30.0568 57.0989C28.4045 55.6016 26.2876 54.853 23.706 54.853C21.1244 54.853 19.0075 55.6016 17.3553 57.0989Q16.3748 58.0162 15.7947 59.14Q14.9544 60.7682 14.9544 62.8301C14.9544 65.1019 15.7805 67.0381 17.4327 68.6387Z" fill="rgb(39,26,88)" fill-rule="evenodd" transform="matrix(0.984808,0.173648,-0.174411,0.984673,-25.417,-87.1221)" />
				</g>
				<g id="Frame 2043683100" customFrame="url(#clipPath_46)">
					<rect id="Frame 2043683100" width="167.875168" height="223.833557" x="0.000000" y="0.000000" rx="30.000000" fill="rgb(0,158,228)" transform="matrix(0.984808,0.173648,-0.174411,0.984673,102.2,-135.107)" />
					<rect id="Frame 2043683100" width="166.875168" height="222.833557" x="0.500000" y="0.500000" rx="30.000000" stroke="rgb(39,26,88)" stroke-width="1" transform="matrix(0.984808,0.173648,-0.174411,0.984673,102.2,-135.107)" />
					<path id="?" d="M16.8132 50.5159C16.8132 47.9343 17.3811 45.8174 18.517 44.1651C19.6529 42.4613 21.3051 40.6025 23.4737 38.5889C24.971 37.1948 26.0811 36.0331 26.8039 35.1037C27.5268 34.1227 27.8882 33.0901 27.8882 32.0058C27.8882 30.5085 27.2428 29.3209 25.952 28.4432C24.7128 27.5138 23.0864 27.0491 21.0728 27.0491C19.0075 27.0491 17.1229 27.5396 15.4191 28.5206C13.7669 29.5016 12.4244 30.8699 11.3918 32.6254L-0.147956 26.4295C1.96896 22.8153 4.96361 20.0014 8.83601 17.9877C12.7084 15.9741 17.3811 14.9672 22.8541 14.9672C28.9983 14.9672 33.9292 16.258 37.6467 18.8396C41.4158 21.3696 43.3004 24.9322 43.3004 29.5275C43.3004 31.6444 42.9389 33.5289 42.2161 35.1812C41.4932 36.7818 40.6155 38.15 39.5829 39.2859C38.6019 40.3702 37.3111 41.6093 35.7105 43.0034C33.955 44.5007 32.6642 45.7915 31.8381 46.8758C31.012 47.9084 30.5989 49.1218 30.5989 50.5159L16.8132 50.5159ZM23.706 70.9621C21.1761 70.9621 19.085 70.1877 17.4327 68.6387C15.7805 67.0381 14.9544 65.1019 14.9544 62.8301C14.9544 60.5067 15.7547 58.5963 17.3553 57.0989C19.0075 55.6016 21.1244 54.853 23.706 54.853C26.2876 54.853 28.4045 55.6016 30.0568 57.0989C31.709 58.5963 32.5351 60.5067 32.5351 62.8301C32.5351 65.1019 31.709 67.0381 30.0568 68.6387C28.4045 70.1877 26.2876 70.9621 23.706 70.9621Z" fill="rgb(255,255,255)" fill-rule="nonzero" transform="matrix(0.984808,0.173648,-0.174411,0.984673,149.613,-56.2598)" />
					<path id="?" d="M17.8522 43.7081Q16.0064 46.3929 16.0064 50.5159L16.0064 51.3226L31.4056 51.3226L31.4056 50.5159Q31.4056 49.361 31.839 48.4021Q32.0842 47.8596 32.468 47.3798L32.474 47.3723L32.4798 47.3647Q33.6665 45.8071 36.2403 43.6118Q38.6774 41.4892 40.1798 39.8286Q41.8146 38.0303 42.9552 35.5045Q44.1071 32.8716 44.1071 29.5275Q44.1071 25.8808 42.6001 23.0318Q42.5007 22.8441 42.395 22.6599Q40.8951 20.0485 38.1068 18.177Q32.3231 14.1605 22.8541 14.1605Q14.4474 14.1605 8.46381 17.2719Q4.68147 19.2388 1.97547 22.1919Q0.378179 23.935 -0.844087 26.0218L-1.26724 26.7443L11.6938 33.7032L12.0872 33.0344Q13.1905 31.1587 14.7885 29.922Q15.2815 29.5405 15.8216 29.2198Q16.5401 28.8061 17.3059 28.5179Q19.0648 27.8559 21.0728 27.8559Q23.8243 27.8559 25.468 29.0886L25.4829 29.0998L25.4984 29.1103Q26.3047 29.6586 26.6953 30.3774Q26.6988 30.3837 26.7021 30.39Q27.0815 31.096 27.0815 32.0058Q27.0815 32.2256 27.0573 32.4428Q26.9323 33.5658 26.1606 34.6168Q25.1157 35.9578 22.9247 37.9977Q19.6023 41.0828 17.8522 43.7081ZM26.8039 35.1037C26.0811 36.0331 24.971 37.1948 23.4737 38.5889C21.3051 40.6025 19.6529 42.4613 18.517 44.1651C17.5017 45.6419 16.9402 47.4899 16.8324 49.7091C16.8196 49.9728 16.8132 50.2417 16.8132 50.5159L30.5989 50.5159C30.5989 49.1218 31.012 47.9084 31.8381 46.8758C32.6642 45.7915 33.955 44.5007 35.7105 43.0034C37.3111 41.6093 38.6019 40.3702 39.5829 39.2859C40.6155 38.15 41.4932 36.7818 42.2161 35.1812C42.9389 33.5289 43.3004 31.6444 43.3004 29.5275C43.3004 24.9322 41.4158 21.3696 37.6467 18.8396Q32.0704 14.9672 22.8541 14.9672Q14.6446 14.9672 8.83601 17.9877Q5.15661 19.901 2.53379 22.7776Q1.28322 24.1492 0.272858 25.7398Q0.0569677 26.0797 -0.147956 26.4295L0.563331 26.8114L11.3918 32.6254Q12.5252 30.6986 14.1562 29.3938Q14.7542 28.9154 15.4191 28.5206C17.1229 27.5396 19.0075 27.0491 21.0728 27.0491C23.0864 27.0491 24.7128 27.5138 25.952 28.4432C27.2428 29.3209 27.8882 30.5085 27.8882 32.0058C27.8882 33.0901 27.5268 34.1227 26.8039 35.1037ZM18.7292 70.5769Q20.8886 71.7689 23.706 71.7689Q26.6866 71.7689 28.9234 70.479Q29.8321 69.955 30.6181 69.2181Q31.9692 67.9092 32.6526 66.3142L32.6575 66.3027Q32.7126 66.1736 32.7632 66.0429Q33.3419 64.5485 33.3418 62.8301Q33.3418 60.9206 32.656 59.3345Q32.5458 59.0796 32.4181 58.8337Q31.7481 57.543 30.5985 56.5012Q29.9273 55.8929 29.1655 55.4353Q26.853 54.0462 23.706 54.0462Q20.5848 54.0462 18.2791 55.4175Q17.4944 55.8842 16.8042 56.5098Q15.7604 57.4862 15.125 58.6799Q14.9528 59.0035 14.8105 59.343Q14.1476 60.9254 14.1477 62.8301Q14.1477 64.5484 14.7262 66.0428Q14.7769 66.1736 14.832 66.3027Q15.5154 67.9045 16.881 69.2272Q17.7354 70.0283 18.7292 70.5769ZM17.4327 68.6387C19.085 70.1877 21.1761 70.9621 23.706 70.9621C26.2876 70.9621 28.4045 70.1877 30.0568 68.6387C31.709 67.0381 32.5351 65.1019 32.5351 62.8301C32.5351 60.5067 31.709 58.5963 30.0568 57.0989C28.4045 55.6016 26.2876 54.853 23.706 54.853C21.1244 54.853 19.0075 55.6016 17.3553 57.0989Q16.3748 58.0162 15.7947 59.14Q14.9544 60.7682 14.9544 62.8301C14.9544 65.1019 15.7805 67.0381 17.4327 68.6387Z" fill="rgb(39,26,88)" fill-rule="evenodd" transform="matrix(0.984808,0.173648,-0.174411,0.984673,149.613,-56.2598)" />
				</g>
				<g id="Frame 2043683094" customFrame="url(#clipPath_47)">
					<rect id="Frame 2043683094" width="167.875168" height="223.833557" x="0.000000" y="0.000000" rx="30.000000" fill="rgb(173,97,255)" transform="matrix(0.984808,0.173648,-0.174411,0.984673,277.229,-104.245)" />
					<rect id="Frame 2043683094" width="166.875168" height="222.833557" x="0.500000" y="0.500000" rx="30.000000" stroke="rgb(39,26,88)" stroke-width="1" transform="matrix(0.984808,0.173648,-0.174411,0.984673,277.229,-104.245)" />
					<path id="?" d="M20.7114 62.936C20.7114 59.736 21.4154 57.112 22.8234 55.064C24.2314 52.952 26.2794 50.648 28.9674 48.152C30.8234 46.424 32.1994 44.984 33.0954 43.832C33.9914 42.616 34.4394 41.336 34.4394 39.992C34.4394 38.136 33.6394 36.664 32.0394 35.576C30.5034 34.424 28.4874 33.848 25.9914 33.848C23.4314 33.848 21.0954 34.456 18.9834 35.672C16.9354 36.888 15.2714 38.584 13.9914 40.76L-0.312625 33.08C2.31138 28.6 6.02338 25.112 10.8234 22.616C15.6234 20.12 21.4154 18.872 28.1994 18.872C35.8154 18.872 41.9274 20.472 46.5354 23.672C51.2074 26.808 53.5434 31.224 53.5434 36.92C53.5434 39.544 53.0954 41.88 52.1994 43.928C51.3034 45.912 50.2154 47.608 48.9354 49.016C47.7194 50.36 46.1194 51.896 44.1354 53.624C41.9594 55.48 40.3594 57.08 39.3354 58.424C38.3114 59.704 37.7994 61.208 37.7994 62.936L20.7114 62.936ZM29.2554 88.28C26.1194 88.28 23.5274 87.32 21.4794 85.4C19.4314 83.416 18.4074 81.016 18.4074 78.2C18.4074 75.32 19.3994 72.952 21.3834 71.096C23.4314 69.24 26.0554 68.312 29.2554 68.312C32.4554 68.312 35.0794 69.24 37.1274 71.096C39.1754 72.952 40.1994 75.32 40.1994 78.2C40.1994 81.016 39.1754 83.416 37.1274 85.4C35.0794 87.32 32.4554 88.28 29.2554 88.28Z" fill="rgb(255,255,255)" fill-rule="nonzero" transform="matrix(0.984808,0.173648,-0.174411,0.984673,321.057,-36.6914)" />
					<path id="?" d="M22.1586 54.607Q19.9046 57.8854 19.9046 62.936L19.9046 63.7427L38.6061 63.7427L38.6061 62.936Q38.6061 61.4708 39.1535 60.2512Q39.4686 59.5488 39.9653 58.928L39.9714 58.9205L39.9771 58.9129Q41.4607 56.9657 44.6652 54.2324Q47.6774 51.6088 49.5323 49.5587Q51.5381 47.3523 52.9385 44.2514Q54.3501 41.0248 54.3501 36.92Q54.3501 32.4478 52.5045 28.9588Q52.396 28.7536 52.2812 28.552Q50.4423 25.3229 46.9955 23.0094Q39.876 18.0652 28.1994 18.0652Q17.8262 18.0652 10.4512 21.9002Q5.78744 24.3254 2.45314 27.9676Q0.492309 30.1095 -1.00876 32.6723L-1.43191 33.3947L14.2933 41.8378L14.6867 41.169Q16.0616 38.8317 18.0503 37.2822Q18.6867 36.7863 19.3859 36.3711Q20.2984 35.8458 21.2712 35.4812Q23.4764 34.6548 25.9914 34.6548Q29.4665 34.6547 31.5553 36.2214L31.5702 36.2326L31.5857 36.2431Q32.624 36.9491 33.1305 37.8812Q33.1446 37.9072 33.1583 37.9333Q33.6326 38.8384 33.6326 39.992Q33.6326 40.2932 33.5975 40.5903Q33.429 42.0155 32.452 43.3451Q31.1474 45.02 28.4184 47.5608Q24.3168 51.3695 22.1586 54.607ZM33.0954 43.832C32.1994 44.984 30.8234 46.424 28.9674 48.152Q24.9354 51.896 22.8234 55.064Q20.8916 57.8738 20.7268 62.1292Q20.7114 62.5263 20.7114 62.936L37.7994 62.936C37.7994 61.208 38.3114 59.704 39.3354 58.424C40.3594 57.08 41.9594 55.48 44.1354 53.624Q47.1114 51.032 48.9354 49.016C50.2154 47.608 51.3034 45.912 52.1994 43.928C53.0954 41.88 53.5434 39.544 53.5434 36.92C53.5434 31.224 51.2074 26.808 46.5354 23.672Q39.6234 18.872 28.1994 18.872Q18.0234 18.872 10.8234 22.616Q6.26258 24.9876 3.01147 28.5533Q1.39712 30.3239 0.105696 32.3889Q-0.10788 32.7304 -0.312625 33.08L0.398658 33.4619L13.9914 40.76C15.2714 38.584 16.9354 36.888 18.9834 35.672C21.0954 34.456 23.4314 33.848 25.9914 33.848C28.4874 33.848 30.5034 34.424 32.0394 35.576Q33.3533 36.4695 33.9479 37.7082Q34.4394 38.7322 34.4394 39.992C34.4394 41.336 33.9914 42.616 33.0954 43.832ZM23.1595 87.6216Q25.8011 89.0867 29.2554 89.0867Q32.9178 89.0868 35.6564 87.4962Q36.7456 86.8636 37.6887 85.9794Q39.3415 84.3783 40.1734 82.4286Q40.2345 82.2853 40.2912 82.1403Q41.0061 80.3098 41.0061 78.2Q41.0061 75.873 40.1719 73.9438Q40.043 73.6459 39.8946 73.3581Q39.0783 71.7753 37.6691 70.4982Q36.863 69.7677 35.9492 69.2155Q33.119 67.5052 29.2554 67.5052Q25.4174 67.5052 22.5939 69.1977Q21.6573 69.7591 20.8322 70.5069Q19.5539 71.7027 18.7794 73.1655Q18.5759 73.5497 18.4073 73.9523Q17.6006 75.8778 17.6006 78.2Q17.6006 80.3098 18.3156 82.1403Q18.3722 82.2853 18.4333 82.4286Q19.2652 84.3782 20.9276 85.9886Q21.9598 86.9562 23.1595 87.6216ZM23.4653 86.8664Q25.9598 88.28 29.2554 88.28Q32.7848 88.28 35.38 86.7229Q36.3142 86.1624 37.1274 85.4Q38.7265 83.8509 39.4932 81.9636Q40.1994 80.2253 40.1994 78.2C40.1994 75.32 39.1754 72.952 37.1274 71.096Q36.4286 70.4627 35.6404 69.9735Q32.9635 68.312 29.2554 68.312Q25.5472 68.312 22.8704 69.9735Q22.0822 70.4627 21.3834 71.096C19.3994 72.952 18.4074 75.32 18.4074 78.2Q18.4074 80.2253 19.1136 81.9636Q19.8803 83.8509 21.4794 85.4Q22.3992 86.2623 23.4653 86.8664Z" fill="rgb(39,26,88)" fill-rule="evenodd" transform="matrix(0.984808,0.173648,-0.174411,0.984673,321.057,-36.6914)" />
				</g>
				<g id="Frame 2043683095" customFrame="url(#clipPath_48)">
					<rect id="Frame 2043683095" width="167.875168" height="223.833557" x="0.000000" y="0.000000" rx="30.000000" fill="rgb(242.101,79.8018,79.8018)" transform="matrix(0.984808,0.173648,-0.174411,0.984673,452.259,-73.3828)" />
					<rect id="Frame 2043683095" width="166.875168" height="222.833557" x="0.500000" y="0.500000" rx="30.000000" stroke="rgb(39,26,88)" stroke-width="1" transform="matrix(0.984808,0.173648,-0.174411,0.984673,452.259,-73.3828)" />
					<path id="?" d="M20.7114 62.936C20.7114 59.736 21.4154 57.112 22.8234 55.064C24.2314 52.952 26.2794 50.648 28.9674 48.152C30.8234 46.424 32.1994 44.984 33.0954 43.832C33.9914 42.616 34.4394 41.336 34.4394 39.992C34.4394 38.136 33.6394 36.664 32.0394 35.576C30.5034 34.424 28.4874 33.848 25.9914 33.848C23.4314 33.848 21.0954 34.456 18.9834 35.672C16.9354 36.888 15.2714 38.584 13.9914 40.76L-0.312625 33.08C2.31138 28.6 6.02338 25.112 10.8234 22.616C15.6234 20.12 21.4154 18.872 28.1994 18.872C35.8154 18.872 41.9274 20.472 46.5354 23.672C51.2074 26.808 53.5434 31.224 53.5434 36.92C53.5434 39.544 53.0954 41.88 52.1994 43.928C51.3034 45.912 50.2154 47.608 48.9354 49.016C47.7194 50.36 46.1194 51.896 44.1354 53.624C41.9594 55.48 40.3594 57.08 39.3354 58.424C38.3114 59.704 37.7994 61.208 37.7994 62.936L20.7114 62.936ZM29.2554 88.28C26.1194 88.28 23.5274 87.32 21.4794 85.4C19.4314 83.416 18.4074 81.016 18.4074 78.2C18.4074 75.32 19.3994 72.952 21.3834 71.096C23.4314 69.24 26.0554 68.312 29.2554 68.312C32.4554 68.312 35.0794 69.24 37.1274 71.096C39.1754 72.952 40.1994 75.32 40.1994 78.2C40.1994 81.016 39.1754 83.416 37.1274 85.4C35.0794 87.32 32.4554 88.28 29.2554 88.28Z" fill="rgb(255,255,255)" fill-rule="nonzero" transform="matrix(0.984808,0.173648,-0.174411,0.984673,496.086,-5.8291)" />
					<path id="?" d="M22.1586 54.607Q19.9046 57.8854 19.9046 62.936L19.9046 63.7427L38.6061 63.7427L38.6061 62.936Q38.6061 61.4708 39.1535 60.2512Q39.4686 59.5488 39.9653 58.928L39.9714 58.9205L39.9771 58.9129Q41.4607 56.9657 44.6652 54.2324Q47.6774 51.6088 49.5323 49.5587Q51.5381 47.3523 52.9385 44.2514Q54.3501 41.0248 54.3501 36.92Q54.3501 32.4478 52.5045 28.9588Q52.396 28.7536 52.2812 28.552Q50.4423 25.3229 46.9955 23.0094Q39.876 18.0652 28.1994 18.0652Q17.8262 18.0652 10.4512 21.9002Q5.78744 24.3254 2.45314 27.9676Q0.492309 30.1095 -1.00876 32.6723L-1.43191 33.3947L14.2933 41.8378L14.6867 41.169Q16.0616 38.8317 18.0503 37.2822Q18.6867 36.7863 19.3859 36.3711Q20.2984 35.8458 21.2712 35.4812Q23.4764 34.6548 25.9914 34.6548Q29.4665 34.6547 31.5553 36.2214L31.5702 36.2326L31.5857 36.2431Q32.624 36.9491 33.1305 37.8812Q33.1446 37.9072 33.1583 37.9333Q33.6326 38.8384 33.6326 39.992Q33.6326 40.2932 33.5975 40.5903Q33.429 42.0155 32.452 43.3451Q31.1474 45.02 28.4184 47.5608Q24.3168 51.3695 22.1586 54.607ZM33.0954 43.832C32.1994 44.984 30.8234 46.424 28.9674 48.152Q24.9354 51.896 22.8234 55.064Q20.8916 57.8738 20.7268 62.1292Q20.7114 62.5263 20.7114 62.936L37.7994 62.936C37.7994 61.208 38.3114 59.704 39.3354 58.424C40.3594 57.08 41.9594 55.48 44.1354 53.624Q47.1114 51.032 48.9354 49.016C50.2154 47.608 51.3034 45.912 52.1994 43.928C53.0954 41.88 53.5434 39.544 53.5434 36.92C53.5434 31.224 51.2074 26.808 46.5354 23.672Q39.6234 18.872 28.1994 18.872Q18.0234 18.872 10.8234 22.616Q6.26258 24.9876 3.01147 28.5533Q1.39712 30.3239 0.105696 32.3889Q-0.10788 32.7304 -0.312625 33.08L0.398658 33.4619L13.9914 40.76C15.2714 38.584 16.9354 36.888 18.9834 35.672C21.0954 34.456 23.4314 33.848 25.9914 33.848C28.4874 33.848 30.5034 34.424 32.0394 35.576Q33.3533 36.4695 33.9479 37.7082Q34.4394 38.7322 34.4394 39.992C34.4394 41.336 33.9914 42.616 33.0954 43.832ZM23.1595 87.6216Q25.8011 89.0867 29.2554 89.0867Q32.9178 89.0868 35.6564 87.4962Q36.7456 86.8636 37.6887 85.9794Q39.3415 84.3783 40.1734 82.4286Q40.2345 82.2853 40.2912 82.1403Q41.0061 80.3098 41.0061 78.2Q41.0061 75.873 40.1719 73.9438Q40.043 73.6459 39.8946 73.3581Q39.0783 71.7753 37.6691 70.4982Q36.863 69.7677 35.9492 69.2155Q33.119 67.5052 29.2554 67.5052Q25.4174 67.5052 22.5939 69.1977Q21.6573 69.7591 20.8322 70.5069Q19.5539 71.7027 18.7794 73.1655Q18.5759 73.5497 18.4073 73.9523Q17.6006 75.8778 17.6006 78.2Q17.6006 80.3098 18.3156 82.1403Q18.3722 82.2853 18.4333 82.4286Q19.2652 84.3782 20.9276 85.9886Q21.9598 86.9562 23.1595 87.6216ZM23.4653 86.8664Q25.9598 88.28 29.2554 88.28Q32.7848 88.28 35.38 86.7229Q36.3142 86.1624 37.1274 85.4Q38.7265 83.8509 39.4932 81.9636Q40.1994 80.2253 40.1994 78.2C40.1994 75.32 39.1754 72.952 37.1274 71.096Q36.4286 70.4627 35.6404 69.9735Q32.9635 68.312 29.2554 68.312Q25.5472 68.312 22.8704 69.9735Q22.0822 70.4627 21.3834 71.096C19.3994 72.952 18.4074 75.32 18.4074 78.2Q18.4074 80.2253 19.1136 81.9636Q19.8803 83.8509 21.4794 85.4Q22.3992 86.2623 23.4653 86.8664Z" fill="rgb(39,26,88)" fill-rule="evenodd" transform="matrix(0.984808,0.173648,-0.174411,0.984673,496.086,-5.8291)" />
				</g>
				<g id="Frame 2043683101" customFrame="url(#clipPath_49)">
					<rect id="Frame 2043683101" width="167.875168" height="223.833557" x="0.000000" y="0.000000" rx="30.000000" fill="rgb(0,158,228)" transform="matrix(0.984808,0.173648,-0.174411,0.984673,627.288,-42.5205)" />
					<rect id="Frame 2043683101" width="166.875168" height="222.833557" x="0.500000" y="0.500000" rx="30.000000" stroke="rgb(39,26,88)" stroke-width="1" transform="matrix(0.984808,0.173648,-0.174411,0.984673,627.288,-42.5205)" />
					<path id="?" d="M16.8132 50.5159C16.8132 47.9343 17.3811 45.8174 18.517 44.1651C19.6529 42.4613 21.3051 40.6025 23.4737 38.5889C24.971 37.1948 26.0811 36.0331 26.8039 35.1037C27.5268 34.1227 27.8882 33.0901 27.8882 32.0058C27.8882 30.5085 27.2428 29.3209 25.952 28.4432C24.7128 27.5138 23.0864 27.0491 21.0728 27.0491C19.0075 27.0491 17.1229 27.5396 15.4191 28.5206C13.7669 29.5016 12.4244 30.8699 11.3918 32.6254L-0.147956 26.4295C1.96896 22.8153 4.96361 20.0014 8.83601 17.9877C12.7084 15.9741 17.3811 14.9672 22.8541 14.9672C28.9983 14.9672 33.9292 16.258 37.6467 18.8396C41.4158 21.3696 43.3004 24.9322 43.3004 29.5275C43.3004 31.6444 42.9389 33.5289 42.2161 35.1812C41.4932 36.7818 40.6155 38.15 39.5829 39.2859C38.6019 40.3702 37.3111 41.6093 35.7105 43.0034C33.955 44.5007 32.6642 45.7915 31.8381 46.8758C31.012 47.9084 30.5989 49.1218 30.5989 50.5159L16.8132 50.5159ZM23.706 70.9621C21.1761 70.9621 19.085 70.1877 17.4327 68.6387C15.7805 67.0381 14.9544 65.1019 14.9544 62.8301C14.9544 60.5067 15.7547 58.5963 17.3553 57.0989C19.0075 55.6016 21.1244 54.853 23.706 54.853C26.2876 54.853 28.4045 55.6016 30.0568 57.0989C31.709 58.5963 32.5351 60.5067 32.5351 62.8301C32.5351 65.1019 31.709 67.0381 30.0568 68.6387C28.4045 70.1877 26.2876 70.9621 23.706 70.9621Z" fill="rgb(255,255,255)" fill-rule="nonzero" transform="matrix(0.984808,0.173648,-0.174411,0.984673,674.701,36.3271)" />
					<path id="?" d="M17.8522 43.7081Q16.0064 46.3929 16.0064 50.5159L16.0064 51.3226L31.4056 51.3226L31.4056 50.5159Q31.4056 49.361 31.839 48.4021Q32.0842 47.8596 32.468 47.3798L32.474 47.3723L32.4798 47.3647Q33.6665 45.8071 36.2403 43.6118Q38.6774 41.4892 40.1798 39.8286Q41.8146 38.0303 42.9552 35.5045Q44.1071 32.8716 44.1071 29.5275Q44.1071 25.8808 42.6001 23.0318Q42.5007 22.8441 42.395 22.6599Q40.8951 20.0485 38.1068 18.177Q32.3231 14.1605 22.8541 14.1605Q14.4474 14.1605 8.46381 17.2719Q4.68147 19.2388 1.97547 22.1919Q0.378179 23.935 -0.844087 26.0218L-1.26724 26.7443L11.6938 33.7032L12.0872 33.0344Q13.1905 31.1587 14.7885 29.922Q15.2815 29.5405 15.8216 29.2198Q16.5401 28.8061 17.3059 28.5179Q19.0648 27.8559 21.0728 27.8559Q23.8243 27.8559 25.468 29.0886L25.4829 29.0998L25.4984 29.1103Q26.3047 29.6586 26.6953 30.3774Q26.6988 30.3837 26.7021 30.39Q27.0815 31.096 27.0815 32.0058Q27.0815 32.2256 27.0573 32.4428Q26.9323 33.5658 26.1606 34.6168Q25.1157 35.9578 22.9247 37.9977Q19.6023 41.0828 17.8522 43.7081ZM26.8039 35.1037C26.0811 36.0331 24.971 37.1948 23.4737 38.5889C21.3051 40.6025 19.6529 42.4613 18.517 44.1651C17.5017 45.6419 16.9402 47.4899 16.8324 49.7091C16.8196 49.9728 16.8132 50.2417 16.8132 50.5159L30.5989 50.5159C30.5989 49.1218 31.012 47.9084 31.8381 46.8758C32.6642 45.7915 33.955 44.5007 35.7105 43.0034C37.3111 41.6093 38.6019 40.3702 39.5829 39.2859C40.6155 38.15 41.4932 36.7818 42.2161 35.1812C42.9389 33.5289 43.3004 31.6444 43.3004 29.5275C43.3004 24.9322 41.4158 21.3696 37.6467 18.8396Q32.0704 14.9672 22.8541 14.9672Q14.6446 14.9672 8.83601 17.9877Q5.15661 19.901 2.53379 22.7776Q1.28322 24.1492 0.272858 25.7398Q0.0569677 26.0797 -0.147956 26.4295L0.563331 26.8114L11.3918 32.6254Q12.5252 30.6986 14.1562 29.3938Q14.7542 28.9154 15.4191 28.5206C17.1229 27.5396 19.0075 27.0491 21.0728 27.0491C23.0864 27.0491 24.7128 27.5138 25.952 28.4432C27.2428 29.3209 27.8882 30.5085 27.8882 32.0058C27.8882 33.0901 27.5268 34.1227 26.8039 35.1037ZM18.7292 70.5769Q20.8886 71.7689 23.706 71.7689Q26.6866 71.7689 28.9234 70.479Q29.8321 69.955 30.6181 69.2181Q31.9692 67.9092 32.6526 66.3142L32.6575 66.3027Q32.7126 66.1736 32.7632 66.0429Q33.3419 64.5485 33.3418 62.8301Q33.3418 60.9206 32.656 59.3345Q32.5458 59.0796 32.4181 58.8337Q31.7481 57.543 30.5985 56.5012Q29.9273 55.8929 29.1655 55.4353Q26.853 54.0462 23.706 54.0462Q20.5848 54.0462 18.2791 55.4175Q17.4944 55.8842 16.8042 56.5098Q15.7604 57.4862 15.125 58.6799Q14.9528 59.0035 14.8105 59.343Q14.1476 60.9254 14.1477 62.8301Q14.1477 64.5484 14.7262 66.0428Q14.7769 66.1736 14.832 66.3027Q15.5154 67.9045 16.881 69.2272Q17.7354 70.0283 18.7292 70.5769ZM17.4327 68.6387C19.085 70.1877 21.1761 70.9621 23.706 70.9621C26.2876 70.9621 28.4045 70.1877 30.0568 68.6387C31.709 67.0381 32.5351 65.1019 32.5351 62.8301C32.5351 60.5067 31.709 58.5963 30.0568 57.0989C28.4045 55.6016 26.2876 54.853 23.706 54.853C21.1244 54.853 19.0075 55.6016 17.3553 57.0989Q16.3748 58.0162 15.7947 59.14Q14.9544 60.7682 14.9544 62.8301C14.9544 65.1019 15.7805 67.0381 17.4327 68.6387Z" fill="rgb(39,26,88)" fill-rule="evenodd" transform="matrix(0.984808,0.173648,-0.174411,0.984673,674.701,36.3271)" />
				</g>
			</g>
			<g id="Frame 2043683113" customFrame="url(#clipPath_50)">
				<rect id="Frame 2043683113" width="878.966492" height="223.833496" x="0.000000" y="0.000000" transform="matrix(0.984808,0.173648,-0.173648,0.984808,-113.55,63.9668)" />
				<g id="Frame 2043683104" customFrame="url(#clipPath_51)">
					<rect id="Frame 2043683104" width="167.875168" height="223.833557" x="0.000000" y="0.000000" rx="30.000000" fill="rgb(31.3615,164.139,108.372)" transform="matrix(0.984808,0.173648,-0.174411,0.984673,-113.379,63.9971)" />
					<rect id="Frame 2043683104" width="166.875168" height="222.833557" x="0.500000" y="0.500000" rx="30.000000" stroke="rgb(39,26,88)" stroke-width="1" transform="matrix(0.984808,0.173648,-0.174411,0.984673,-113.379,63.9971)" />
					<path id="?" d="M16.8132 50.5159C16.8132 47.9343 17.3811 45.8174 18.517 44.1651C19.6529 42.4613 21.3051 40.6025 23.4737 38.5889C24.971 37.1948 26.0811 36.0331 26.8039 35.1037C27.5268 34.1227 27.8882 33.0901 27.8882 32.0058C27.8882 30.5085 27.2428 29.3209 25.952 28.4432C24.7128 27.5138 23.0864 27.0491 21.0728 27.0491C19.0075 27.0491 17.1229 27.5396 15.4191 28.5206C13.7669 29.5016 12.4244 30.8699 11.3918 32.6254L-0.147956 26.4295C1.96896 22.8153 4.96361 20.0014 8.83601 17.9877C12.7084 15.9741 17.3811 14.9672 22.8541 14.9672C28.9983 14.9672 33.9292 16.258 37.6467 18.8396C41.4158 21.3696 43.3004 24.9322 43.3004 29.5275C43.3004 31.6444 42.9389 33.5289 42.2161 35.1812C41.4932 36.7818 40.6155 38.15 39.5829 39.2859C38.6019 40.3702 37.3111 41.6093 35.7105 43.0034C33.955 44.5007 32.6642 45.7915 31.8381 46.8758C31.012 47.9084 30.5989 49.1218 30.5989 50.5159L16.8132 50.5159ZM23.706 70.9621C21.1761 70.9621 19.085 70.1877 17.4327 68.6387C15.7805 67.0381 14.9544 65.1019 14.9544 62.8301C14.9544 60.5067 15.7547 58.5963 17.3553 57.0989C19.0075 55.6016 21.1244 54.853 23.706 54.853C26.2876 54.853 28.4045 55.6016 30.0568 57.0989C31.709 58.5963 32.5351 60.5067 32.5351 62.8301C32.5351 65.1019 31.709 67.0381 30.0568 68.6387C28.4045 70.1877 26.2876 70.9621 23.706 70.9621Z" fill="rgb(255,255,255)" fill-rule="nonzero" transform="matrix(0.984808,0.173648,-0.174411,0.984673,-65.9663,142.845)" />
					<path id="?" d="M17.8522 43.7081Q16.0064 46.3929 16.0064 50.5159L16.0064 51.3226L31.4056 51.3226L31.4056 50.5159Q31.4056 49.361 31.839 48.4021Q32.0842 47.8596 32.468 47.3798L32.474 47.3723L32.4798 47.3647Q33.6665 45.8071 36.2403 43.6118Q38.6774 41.4892 40.1798 39.8286Q41.8146 38.0303 42.9552 35.5045Q44.1071 32.8716 44.1071 29.5275Q44.1071 25.8808 42.6001 23.0318Q42.5007 22.8441 42.395 22.6599Q40.8951 20.0485 38.1068 18.177Q32.3231 14.1605 22.8541 14.1605Q14.4474 14.1605 8.46381 17.2719Q4.68147 19.2388 1.97547 22.1919Q0.378179 23.935 -0.844087 26.0218L-1.26724 26.7443L11.6938 33.7032L12.0872 33.0344Q13.1905 31.1587 14.7885 29.922Q15.2815 29.5405 15.8216 29.2198Q16.5401 28.8061 17.3059 28.5179Q19.0648 27.8559 21.0728 27.8559Q23.8243 27.8559 25.468 29.0886L25.4829 29.0998L25.4984 29.1103Q26.3047 29.6586 26.6953 30.3774Q26.6988 30.3837 26.7021 30.39Q27.0815 31.096 27.0815 32.0058Q27.0815 32.2256 27.0573 32.4428Q26.9323 33.5658 26.1606 34.6168Q25.1157 35.9578 22.9247 37.9977Q19.6023 41.0828 17.8522 43.7081ZM26.8039 35.1037C26.0811 36.0331 24.971 37.1948 23.4737 38.5889C21.3051 40.6025 19.6529 42.4613 18.517 44.1651C17.5017 45.6419 16.9402 47.4899 16.8324 49.7091C16.8196 49.9728 16.8132 50.2417 16.8132 50.5159L30.5989 50.5159C30.5989 49.1218 31.012 47.9084 31.8381 46.8758C32.6642 45.7915 33.955 44.5007 35.7105 43.0034C37.3111 41.6093 38.6019 40.3702 39.5829 39.2859C40.6155 38.15 41.4932 36.7818 42.2161 35.1812C42.9389 33.5289 43.3004 31.6444 43.3004 29.5275C43.3004 24.9322 41.4158 21.3696 37.6467 18.8396Q32.0704 14.9672 22.8541 14.9672Q14.6446 14.9672 8.83601 17.9877Q5.15661 19.901 2.53379 22.7776Q1.28322 24.1492 0.272858 25.7398Q0.0569677 26.0797 -0.147956 26.4295L0.563331 26.8114L11.3918 32.6254Q12.5252 30.6986 14.1562 29.3938Q14.7542 28.9154 15.4191 28.5206C17.1229 27.5396 19.0075 27.0491 21.0728 27.0491C23.0864 27.0491 24.7128 27.5138 25.952 28.4432C27.2428 29.3209 27.8882 30.5085 27.8882 32.0058C27.8882 33.0901 27.5268 34.1227 26.8039 35.1037ZM18.7292 70.5769Q20.8886 71.7689 23.706 71.7689Q26.6866 71.7689 28.9234 70.479Q29.8321 69.955 30.6181 69.2181Q31.9692 67.9092 32.6526 66.3142L32.6575 66.3027Q32.7126 66.1736 32.7632 66.0429Q33.3419 64.5485 33.3418 62.8301Q33.3418 60.9206 32.656 59.3345Q32.5458 59.0796 32.4181 58.8337Q31.7481 57.543 30.5985 56.5012Q29.9273 55.8929 29.1655 55.4353Q26.853 54.0462 23.706 54.0462Q20.5848 54.0462 18.2791 55.4175Q17.4944 55.8842 16.8042 56.5098Q15.7604 57.4862 15.125 58.6799Q14.9528 59.0035 14.8105 59.343Q14.1476 60.9254 14.1477 62.8301Q14.1477 64.5484 14.7262 66.0428Q14.7769 66.1736 14.832 66.3027Q15.5154 67.9045 16.881 69.2272Q17.7354 70.0283 18.7292 70.5769ZM17.4327 68.6387C19.085 70.1877 21.1761 70.9621 23.706 70.9621C26.2876 70.9621 28.4045 70.1877 30.0568 68.6387C31.709 67.0381 32.5351 65.1019 32.5351 62.8301C32.5351 60.5067 31.709 58.5963 30.0568 57.0989C28.4045 55.6016 26.2876 54.853 23.706 54.853C21.1244 54.853 19.0075 55.6016 17.3553 57.0989Q16.3748 58.0162 15.7947 59.14Q14.9544 60.7682 14.9544 62.8301C14.9544 65.1019 15.7805 67.0381 17.4327 68.6387Z" fill="rgb(39,26,88)" fill-rule="evenodd" transform="matrix(0.984808,0.173648,-0.174411,0.984673,-65.9663,142.845)" />
				</g>
				<g id="Frame 2043683096" customFrame="url(#clipPath_52)">
					<rect id="Frame 2043683096" width="167.875168" height="223.833557" x="0.000000" y="0.000000" rx="30.000000" fill="rgb(242.101,79.8018,79.8018)" transform="matrix(0.984808,0.173648,-0.174411,0.984673,61.6504,94.8594)" />
					<rect id="Frame 2043683096" width="166.875168" height="222.833557" x="0.500000" y="0.500000" rx="30.000000" stroke="rgb(39,26,88)" stroke-width="1" transform="matrix(0.984808,0.173648,-0.174411,0.984673,61.6504,94.8594)" />
					<path id="?" d="M20.7114 62.936C20.7114 59.736 21.4154 57.112 22.8234 55.064C24.2314 52.952 26.2794 50.648 28.9674 48.152C30.8234 46.424 32.1994 44.984 33.0954 43.832C33.9914 42.616 34.4394 41.336 34.4394 39.992C34.4394 38.136 33.6394 36.664 32.0394 35.576C30.5034 34.424 28.4874 33.848 25.9914 33.848C23.4314 33.848 21.0954 34.456 18.9834 35.672C16.9354 36.888 15.2714 38.584 13.9914 40.76L-0.312625 33.08C2.31138 28.6 6.02338 25.112 10.8234 22.616C15.6234 20.12 21.4154 18.872 28.1994 18.872C35.8154 18.872 41.9274 20.472 46.5354 23.672C51.2074 26.808 53.5434 31.224 53.5434 36.92C53.5434 39.544 53.0954 41.88 52.1994 43.928C51.3034 45.912 50.2154 47.608 48.9354 49.016C47.7194 50.36 46.1194 51.896 44.1354 53.624C41.9594 55.48 40.3594 57.08 39.3354 58.424C38.3114 59.704 37.7994 61.208 37.7994 62.936L20.7114 62.936ZM29.2554 88.28C26.1194 88.28 23.5274 87.32 21.4794 85.4C19.4314 83.416 18.4074 81.016 18.4074 78.2C18.4074 75.32 19.3994 72.952 21.3834 71.096C23.4314 69.24 26.0554 68.312 29.2554 68.312C32.4554 68.312 35.0794 69.24 37.1274 71.096C39.1754 72.952 40.1994 75.32 40.1994 78.2C40.1994 81.016 39.1754 83.416 37.1274 85.4C35.0794 87.32 32.4554 88.28 29.2554 88.28Z" fill="rgb(255,255,255)" fill-rule="nonzero" transform="matrix(0.984808,0.173648,-0.174411,0.984673,105.478,162.413)" />
					<path id="?" d="M22.1586 54.607Q19.9046 57.8854 19.9046 62.936L19.9046 63.7427L38.6061 63.7427L38.6061 62.936Q38.6061 61.4708 39.1535 60.2512Q39.4686 59.5488 39.9653 58.928L39.9714 58.9205L39.9771 58.9129Q41.4607 56.9657 44.6652 54.2324Q47.6774 51.6088 49.5323 49.5587Q51.5381 47.3523 52.9385 44.2514Q54.3501 41.0248 54.3501 36.92Q54.3501 32.4478 52.5045 28.9588Q52.396 28.7536 52.2812 28.552Q50.4423 25.3229 46.9955 23.0094Q39.876 18.0652 28.1994 18.0652Q17.8262 18.0652 10.4512 21.9002Q5.78744 24.3254 2.45314 27.9676Q0.492309 30.1095 -1.00876 32.6723L-1.43191 33.3947L14.2933 41.8378L14.6867 41.169Q16.0616 38.8317 18.0503 37.2822Q18.6867 36.7863 19.3859 36.3711Q20.2984 35.8458 21.2712 35.4812Q23.4764 34.6548 25.9914 34.6548Q29.4665 34.6547 31.5553 36.2214L31.5702 36.2326L31.5857 36.2431Q32.624 36.9491 33.1305 37.8812Q33.1446 37.9072 33.1583 37.9333Q33.6326 38.8384 33.6326 39.992Q33.6326 40.2932 33.5975 40.5903Q33.429 42.0155 32.452 43.3451Q31.1474 45.02 28.4184 47.5608Q24.3168 51.3695 22.1586 54.607ZM33.0954 43.832C32.1994 44.984 30.8234 46.424 28.9674 48.152Q24.9354 51.896 22.8234 55.064Q20.8916 57.8738 20.7268 62.1292Q20.7114 62.5263 20.7114 62.936L37.7994 62.936C37.7994 61.208 38.3114 59.704 39.3354 58.424C40.3594 57.08 41.9594 55.48 44.1354 53.624Q47.1114 51.032 48.9354 49.016C50.2154 47.608 51.3034 45.912 52.1994 43.928C53.0954 41.88 53.5434 39.544 53.5434 36.92C53.5434 31.224 51.2074 26.808 46.5354 23.672Q39.6234 18.872 28.1994 18.872Q18.0234 18.872 10.8234 22.616Q6.26258 24.9876 3.01147 28.5533Q1.39712 30.3239 0.105696 32.3889Q-0.10788 32.7304 -0.312625 33.08L0.398658 33.4619L13.9914 40.76C15.2714 38.584 16.9354 36.888 18.9834 35.672C21.0954 34.456 23.4314 33.848 25.9914 33.848C28.4874 33.848 30.5034 34.424 32.0394 35.576Q33.3533 36.4695 33.9479 37.7082Q34.4394 38.7322 34.4394 39.992C34.4394 41.336 33.9914 42.616 33.0954 43.832ZM23.1595 87.6216Q25.8011 89.0867 29.2554 89.0867Q32.9178 89.0868 35.6564 87.4962Q36.7456 86.8636 37.6887 85.9794Q39.3415 84.3783 40.1734 82.4286Q40.2345 82.2853 40.2912 82.1403Q41.0061 80.3098 41.0061 78.2Q41.0061 75.873 40.1719 73.9438Q40.043 73.6459 39.8946 73.3581Q39.0783 71.7753 37.6691 70.4982Q36.863 69.7677 35.9492 69.2155Q33.119 67.5052 29.2554 67.5052Q25.4174 67.5052 22.5939 69.1977Q21.6573 69.7591 20.8322 70.5069Q19.5539 71.7027 18.7794 73.1655Q18.5759 73.5497 18.4073 73.9523Q17.6006 75.8778 17.6006 78.2Q17.6006 80.3098 18.3156 82.1403Q18.3722 82.2853 18.4333 82.4286Q19.2652 84.3782 20.9276 85.9886Q21.9598 86.9562 23.1595 87.6216ZM23.4653 86.8664Q25.9598 88.28 29.2554 88.28Q32.7848 88.28 35.38 86.7229Q36.3142 86.1624 37.1274 85.4Q38.7265 83.8509 39.4932 81.9636Q40.1994 80.2253 40.1994 78.2C40.1994 75.32 39.1754 72.952 37.1274 71.096Q36.4286 70.4627 35.6404 69.9735Q32.9635 68.312 29.2554 68.312Q25.5472 68.312 22.8704 69.9735Q22.0822 70.4627 21.3834 71.096C19.3994 72.952 18.4074 75.32 18.4074 78.2Q18.4074 80.2253 19.1136 81.9636Q19.8803 83.8509 21.4794 85.4Q22.3992 86.2623 23.4653 86.8664Z" fill="rgb(39,26,88)" fill-rule="evenodd" transform="matrix(0.984808,0.173648,-0.174411,0.984673,105.478,162.413)" />
				</g>
				<g id="Frame 2043683112" customFrame="url(#clipPath_53)">
					<rect id="Frame 2043683112" width="167.875168" height="223.833557" x="0.000000" y="0.000000" rx="30.000000" fill="rgb(0,158,228)" transform="matrix(0.984808,0.173648,-0.174411,0.984673,236.68,125.722)" />
					<rect id="Frame 2043683112" width="166.875168" height="222.833557" x="0.500000" y="0.500000" rx="30.000000" stroke="rgb(39,26,88)" stroke-width="1" transform="matrix(0.984808,0.173648,-0.174411,0.984673,236.68,125.722)" />
					<path id="?" d="M16.8132 50.5159C16.8132 47.9343 17.3811 45.8174 18.517 44.1651C19.6529 42.4613 21.3051 40.6025 23.4737 38.5889C24.971 37.1948 26.0811 36.0331 26.8039 35.1037C27.5268 34.1227 27.8882 33.0901 27.8882 32.0058C27.8882 30.5085 27.2428 29.3209 25.952 28.4432C24.7128 27.5138 23.0864 27.0491 21.0728 27.0491C19.0075 27.0491 17.1229 27.5396 15.4191 28.5206C13.7669 29.5016 12.4244 30.8699 11.3918 32.6254L-0.147956 26.4295C1.96896 22.8153 4.96361 20.0014 8.83601 17.9877C12.7084 15.9741 17.3811 14.9672 22.8541 14.9672C28.9983 14.9672 33.9292 16.258 37.6467 18.8396C41.4158 21.3696 43.3004 24.9322 43.3004 29.5275C43.3004 31.6444 42.9389 33.5289 42.2161 35.1812C41.4932 36.7818 40.6155 38.15 39.5829 39.2859C38.6019 40.3702 37.3111 41.6093 35.7105 43.0034C33.955 44.5007 32.6642 45.7915 31.8381 46.8758C31.012 47.9084 30.5989 49.1218 30.5989 50.5159L16.8132 50.5159ZM23.706 70.9621C21.1761 70.9621 19.085 70.1877 17.4327 68.6387C15.7805 67.0381 14.9544 65.1019 14.9544 62.8301C14.9544 60.5067 15.7547 58.5963 17.3553 57.0989C19.0075 55.6016 21.1244 54.853 23.706 54.853C26.2876 54.853 28.4045 55.6016 30.0568 57.0989C31.709 58.5963 32.5351 60.5067 32.5351 62.8301C32.5351 65.1019 31.709 67.0381 30.0568 68.6387C28.4045 70.1877 26.2876 70.9621 23.706 70.9621Z" fill="rgb(255,255,255)" fill-rule="nonzero" transform="matrix(0.984808,0.173648,-0.174411,0.984673,284.092,204.569)" />
					<path id="?" d="M17.8522 43.7081Q16.0064 46.3929 16.0064 50.5159L16.0064 51.3226L31.4056 51.3226L31.4056 50.5159Q31.4056 49.361 31.839 48.4021Q32.0842 47.8596 32.468 47.3798L32.474 47.3723L32.4798 47.3647Q33.6665 45.8071 36.2403 43.6118Q38.6774 41.4892 40.1798 39.8286Q41.8146 38.0303 42.9552 35.5045Q44.1071 32.8716 44.1071 29.5275Q44.1071 25.8808 42.6001 23.0318Q42.5007 22.8441 42.395 22.6599Q40.8951 20.0485 38.1068 18.177Q32.3231 14.1605 22.8541 14.1605Q14.4474 14.1605 8.46381 17.2719Q4.68147 19.2388 1.97547 22.1919Q0.378179 23.935 -0.844087 26.0218L-1.26724 26.7443L11.6938 33.7032L12.0872 33.0344Q13.1905 31.1587 14.7885 29.922Q15.2815 29.5405 15.8216 29.2198Q16.5401 28.8061 17.3059 28.5179Q19.0648 27.8559 21.0728 27.8559Q23.8243 27.8559 25.468 29.0886L25.4829 29.0998L25.4984 29.1103Q26.3047 29.6586 26.6953 30.3774Q26.6988 30.3837 26.7021 30.39Q27.0815 31.096 27.0815 32.0058Q27.0815 32.2256 27.0573 32.4428Q26.9323 33.5658 26.1606 34.6168Q25.1157 35.9578 22.9247 37.9977Q19.6023 41.0828 17.8522 43.7081ZM26.8039 35.1037C26.0811 36.0331 24.971 37.1948 23.4737 38.5889C21.3051 40.6025 19.6529 42.4613 18.517 44.1651C17.5017 45.6419 16.9402 47.4899 16.8324 49.7091C16.8196 49.9728 16.8132 50.2417 16.8132 50.5159L30.5989 50.5159C30.5989 49.1218 31.012 47.9084 31.8381 46.8758C32.6642 45.7915 33.955 44.5007 35.7105 43.0034C37.3111 41.6093 38.6019 40.3702 39.5829 39.2859C40.6155 38.15 41.4932 36.7818 42.2161 35.1812C42.9389 33.5289 43.3004 31.6444 43.3004 29.5275C43.3004 24.9322 41.4158 21.3696 37.6467 18.8396Q32.0704 14.9672 22.8541 14.9672Q14.6446 14.9672 8.83601 17.9877Q5.15661 19.901 2.53379 22.7776Q1.28322 24.1492 0.272858 25.7398Q0.0569677 26.0797 -0.147956 26.4295L0.563331 26.8114L11.3918 32.6254Q12.5252 30.6986 14.1562 29.3938Q14.7542 28.9154 15.4191 28.5206C17.1229 27.5396 19.0075 27.0491 21.0728 27.0491C23.0864 27.0491 24.7128 27.5138 25.952 28.4432C27.2428 29.3209 27.8882 30.5085 27.8882 32.0058C27.8882 33.0901 27.5268 34.1227 26.8039 35.1037ZM18.7292 70.5769Q20.8886 71.7689 23.706 71.7689Q26.6866 71.7689 28.9234 70.479Q29.8321 69.955 30.6181 69.2181Q31.9692 67.9092 32.6526 66.3142L32.6575 66.3027Q32.7126 66.1736 32.7632 66.0429Q33.3419 64.5485 33.3418 62.8301Q33.3418 60.9206 32.656 59.3345Q32.5458 59.0796 32.4181 58.8337Q31.7481 57.543 30.5985 56.5012Q29.9273 55.8929 29.1655 55.4353Q26.853 54.0462 23.706 54.0462Q20.5848 54.0462 18.2791 55.4175Q17.4944 55.8842 16.8042 56.5098Q15.7604 57.4862 15.125 58.6799Q14.9528 59.0035 14.8105 59.343Q14.1476 60.9254 14.1477 62.8301Q14.1477 64.5484 14.7262 66.0428Q14.7769 66.1736 14.832 66.3027Q15.5154 67.9045 16.881 69.2272Q17.7354 70.0283 18.7292 70.5769ZM17.4327 68.6387C19.085 70.1877 21.1761 70.9621 23.706 70.9621C26.2876 70.9621 28.4045 70.1877 30.0568 68.6387C31.709 67.0381 32.5351 65.1019 32.5351 62.8301C32.5351 60.5067 31.709 58.5963 30.0568 57.0989C28.4045 55.6016 26.2876 54.853 23.706 54.853C21.1244 54.853 19.0075 55.6016 17.3553 57.0989Q16.3748 58.0162 15.7947 59.14Q14.9544 60.7682 14.9544 62.8301C14.9544 65.1019 15.7805 67.0381 17.4327 68.6387Z" fill="rgb(39,26,88)" fill-rule="evenodd" transform="matrix(0.984808,0.173648,-0.174411,0.984673,284.092,204.569)" />
				</g>
				<g id="Frame 2043683098" customFrame="url(#clipPath_54)">
					<rect id="Frame 2043683098" width="167.875168" height="223.833557" x="0.000000" y="0.000000" rx="30.000000" fill="rgb(153,209,0)" transform="matrix(0.984808,0.173648,-0.174411,0.984673,411.709,156.584)" />
					<rect id="Frame 2043683098" width="166.875168" height="222.833557" x="0.500000" y="0.500000" rx="30.000000" stroke="rgb(39,26,88)" stroke-width="1" transform="matrix(0.984808,0.173648,-0.174411,0.984673,411.709,156.584)" />
					<path id="?" d="M20.7114 62.936C20.7114 59.736 21.4154 57.112 22.8234 55.064C24.2314 52.952 26.2794 50.648 28.9674 48.152C30.8234 46.424 32.1994 44.984 33.0954 43.832C33.9914 42.616 34.4394 41.336 34.4394 39.992C34.4394 38.136 33.6394 36.664 32.0394 35.576C30.5034 34.424 28.4874 33.848 25.9914 33.848C23.4314 33.848 21.0954 34.456 18.9834 35.672C16.9354 36.888 15.2714 38.584 13.9914 40.76L-0.312625 33.08C2.31138 28.6 6.02338 25.112 10.8234 22.616C15.6234 20.12 21.4154 18.872 28.1994 18.872C35.8154 18.872 41.9274 20.472 46.5354 23.672C51.2074 26.808 53.5434 31.224 53.5434 36.92C53.5434 39.544 53.0954 41.88 52.1994 43.928C51.3034 45.912 50.2154 47.608 48.9354 49.016C47.7194 50.36 46.1194 51.896 44.1354 53.624C41.9594 55.48 40.3594 57.08 39.3354 58.424C38.3114 59.704 37.7994 61.208 37.7994 62.936L20.7114 62.936ZM29.2554 88.28C26.1194 88.28 23.5274 87.32 21.4794 85.4C19.4314 83.416 18.4074 81.016 18.4074 78.2C18.4074 75.32 19.3994 72.952 21.3834 71.096C23.4314 69.24 26.0554 68.312 29.2554 68.312C32.4554 68.312 35.0794 69.24 37.1274 71.096C39.1754 72.952 40.1994 75.32 40.1994 78.2C40.1994 81.016 39.1754 83.416 37.1274 85.4C35.0794 87.32 32.4554 88.28 29.2554 88.28Z" fill="rgb(255,255,255)" fill-rule="nonzero" transform="matrix(0.984808,0.173648,-0.174411,0.984673,455.537,224.138)" />
					<path id="?" d="M22.1586 54.607Q19.9046 57.8854 19.9046 62.936L19.9046 63.7427L38.6061 63.7427L38.6061 62.936Q38.6061 61.4708 39.1535 60.2512Q39.4686 59.5488 39.9653 58.928L39.9714 58.9205L39.9771 58.9129Q41.4607 56.9657 44.6652 54.2324Q47.6774 51.6088 49.5323 49.5587Q51.5381 47.3523 52.9385 44.2514Q54.3501 41.0248 54.3501 36.92Q54.3501 32.4478 52.5045 28.9588Q52.396 28.7536 52.2812 28.552Q50.4423 25.3229 46.9955 23.0094Q39.876 18.0652 28.1994 18.0652Q17.8262 18.0652 10.4512 21.9002Q5.78744 24.3254 2.45314 27.9676Q0.492309 30.1095 -1.00876 32.6723L-1.43191 33.3947L14.2933 41.8378L14.6867 41.169Q16.0616 38.8317 18.0503 37.2822Q18.6867 36.7863 19.3859 36.3711Q20.2984 35.8458 21.2712 35.4812Q23.4764 34.6548 25.9914 34.6548Q29.4665 34.6547 31.5553 36.2214L31.5702 36.2326L31.5857 36.2431Q32.624 36.9491 33.1305 37.8812Q33.1446 37.9072 33.1583 37.9333Q33.6326 38.8384 33.6326 39.992Q33.6326 40.2932 33.5975 40.5903Q33.429 42.0155 32.452 43.3451Q31.1474 45.02 28.4184 47.5608Q24.3168 51.3695 22.1586 54.607ZM33.0954 43.832C32.1994 44.984 30.8234 46.424 28.9674 48.152Q24.9354 51.896 22.8234 55.064Q20.8916 57.8738 20.7268 62.1292Q20.7114 62.5263 20.7114 62.936L37.7994 62.936C37.7994 61.208 38.3114 59.704 39.3354 58.424C40.3594 57.08 41.9594 55.48 44.1354 53.624Q47.1114 51.032 48.9354 49.016C50.2154 47.608 51.3034 45.912 52.1994 43.928C53.0954 41.88 53.5434 39.544 53.5434 36.92C53.5434 31.224 51.2074 26.808 46.5354 23.672Q39.6234 18.872 28.1994 18.872Q18.0234 18.872 10.8234 22.616Q6.26258 24.9876 3.01147 28.5533Q1.39712 30.3239 0.105696 32.3889Q-0.10788 32.7304 -0.312625 33.08L0.398658 33.4619L13.9914 40.76C15.2714 38.584 16.9354 36.888 18.9834 35.672C21.0954 34.456 23.4314 33.848 25.9914 33.848C28.4874 33.848 30.5034 34.424 32.0394 35.576Q33.3533 36.4695 33.9479 37.7082Q34.4394 38.7322 34.4394 39.992C34.4394 41.336 33.9914 42.616 33.0954 43.832ZM23.1595 87.6216Q25.8011 89.0867 29.2554 89.0867Q32.9178 89.0868 35.6564 87.4962Q36.7456 86.8636 37.6887 85.9794Q39.3415 84.3783 40.1734 82.4286Q40.2345 82.2853 40.2912 82.1403Q41.0061 80.3098 41.0061 78.2Q41.0061 75.873 40.1719 73.9438Q40.043 73.6459 39.8946 73.3581Q39.0783 71.7753 37.6691 70.4982Q36.863 69.7677 35.9492 69.2155Q33.119 67.5052 29.2554 67.5052Q25.4174 67.5052 22.5939 69.1977Q21.6573 69.7591 20.8322 70.5069Q19.5539 71.7027 18.7794 73.1655Q18.5759 73.5497 18.4073 73.9523Q17.6006 75.8778 17.6006 78.2Q17.6006 80.3098 18.3156 82.1403Q18.3722 82.2853 18.4333 82.4286Q19.2652 84.3782 20.9276 85.9886Q21.9598 86.9562 23.1595 87.6216ZM23.4653 86.8664Q25.9598 88.28 29.2554 88.28Q32.7848 88.28 35.38 86.7229Q36.3142 86.1624 37.1274 85.4Q38.7265 83.8509 39.4932 81.9636Q40.1994 80.2253 40.1994 78.2C40.1994 75.32 39.1754 72.952 37.1274 71.096Q36.4286 70.4627 35.6404 69.9735Q32.9635 68.312 29.2554 68.312Q25.5472 68.312 22.8704 69.9735Q22.0822 70.4627 21.3834 71.096C19.3994 72.952 18.4074 75.32 18.4074 78.2Q18.4074 80.2253 19.1136 81.9636Q19.8803 83.8509 21.4794 85.4Q22.3992 86.2623 23.4653 86.8664Z" fill="rgb(39,26,88)" fill-rule="evenodd" transform="matrix(0.984808,0.173648,-0.174411,0.984673,455.537,224.138)" />
				</g>
				<g id="Frame 2043683102" customFrame="url(#clipPath_55)">
					<rect id="Frame 2043683102" width="167.875168" height="223.833557" x="0.000000" y="0.000000" rx="30.000000" fill="rgb(255,199,0)" transform="matrix(0.984808,0.173648,-0.174411,0.984673,586.739,187.447)" />
					<rect id="Frame 2043683102" width="166.875168" height="222.833557" x="0.500000" y="0.500000" rx="30.000000" stroke="rgb(39,26,88)" stroke-width="1" transform="matrix(0.984808,0.173648,-0.174411,0.984673,586.739,187.447)" />
					<path id="?" d="M16.8132 50.5159C16.8132 47.9343 17.3811 45.8174 18.517 44.1651C19.6529 42.4613 21.3051 40.6025 23.4737 38.5889C24.971 37.1948 26.0811 36.0331 26.8039 35.1037C27.5268 34.1227 27.8882 33.0901 27.8882 32.0058C27.8882 30.5085 27.2428 29.3209 25.952 28.4432C24.7128 27.5138 23.0864 27.0491 21.0728 27.0491C19.0075 27.0491 17.1229 27.5396 15.4191 28.5206C13.7669 29.5016 12.4244 30.8699 11.3918 32.6254L-0.147956 26.4295C1.96896 22.8153 4.96361 20.0014 8.83601 17.9877C12.7084 15.9741 17.3811 14.9672 22.8541 14.9672C28.9983 14.9672 33.9292 16.258 37.6467 18.8396C41.4158 21.3696 43.3004 24.9322 43.3004 29.5275C43.3004 31.6444 42.9389 33.5289 42.2161 35.1812C41.4932 36.7818 40.6155 38.15 39.5829 39.2859C38.6019 40.3702 37.3111 41.6093 35.7105 43.0034C33.955 44.5007 32.6642 45.7915 31.8381 46.8758C31.012 47.9084 30.5989 49.1218 30.5989 50.5159L16.8132 50.5159ZM23.706 70.9621C21.1761 70.9621 19.085 70.1877 17.4327 68.6387C15.7805 67.0381 14.9544 65.1019 14.9544 62.8301C14.9544 60.5067 15.7547 58.5963 17.3553 57.0989C19.0075 55.6016 21.1244 54.853 23.706 54.853C26.2876 54.853 28.4045 55.6016 30.0568 57.0989C31.709 58.5963 32.5351 60.5067 32.5351 62.8301C32.5351 65.1019 31.709 67.0381 30.0568 68.6387C28.4045 70.1877 26.2876 70.9621 23.706 70.9621Z" fill="rgb(255,255,255)" fill-rule="nonzero" transform="matrix(0.984808,0.173648,-0.174411,0.984673,634.151,266.294)" />
					<path id="?" d="M17.8522 43.7081Q16.0064 46.3929 16.0064 50.5159L16.0064 51.3226L31.4056 51.3226L31.4056 50.5159Q31.4056 49.361 31.839 48.4021Q32.0842 47.8596 32.468 47.3798L32.474 47.3723L32.4798 47.3647Q33.6665 45.8071 36.2403 43.6118Q38.6774 41.4892 40.1798 39.8286Q41.8146 38.0303 42.9552 35.5045Q44.1071 32.8716 44.1071 29.5275Q44.1071 25.8808 42.6001 23.0318Q42.5007 22.8441 42.395 22.6599Q40.8951 20.0485 38.1068 18.177Q32.3231 14.1605 22.8541 14.1605Q14.4474 14.1605 8.46381 17.2719Q4.68147 19.2388 1.97547 22.1919Q0.378179 23.935 -0.844087 26.0218L-1.26724 26.7443L11.6938 33.7032L12.0872 33.0344Q13.1905 31.1587 14.7885 29.922Q15.2815 29.5405 15.8216 29.2198Q16.5401 28.8061 17.3059 28.5179Q19.0648 27.8559 21.0728 27.8559Q23.8243 27.8559 25.468 29.0886L25.4829 29.0998L25.4984 29.1103Q26.3047 29.6586 26.6953 30.3774Q26.6988 30.3837 26.7021 30.39Q27.0815 31.096 27.0815 32.0058Q27.0815 32.2256 27.0573 32.4428Q26.9323 33.5658 26.1606 34.6168Q25.1157 35.9578 22.9247 37.9977Q19.6023 41.0828 17.8522 43.7081ZM26.8039 35.1037C26.0811 36.0331 24.971 37.1948 23.4737 38.5889C21.3051 40.6025 19.6529 42.4613 18.517 44.1651C17.5017 45.6419 16.9402 47.4899 16.8324 49.7091C16.8196 49.9728 16.8132 50.2417 16.8132 50.5159L30.5989 50.5159C30.5989 49.1218 31.012 47.9084 31.8381 46.8758C32.6642 45.7915 33.955 44.5007 35.7105 43.0034C37.3111 41.6093 38.6019 40.3702 39.5829 39.2859C40.6155 38.15 41.4932 36.7818 42.2161 35.1812C42.9389 33.5289 43.3004 31.6444 43.3004 29.5275C43.3004 24.9322 41.4158 21.3696 37.6467 18.8396Q32.0704 14.9672 22.8541 14.9672Q14.6446 14.9672 8.83601 17.9877Q5.15661 19.901 2.53379 22.7776Q1.28322 24.1492 0.272858 25.7398Q0.0569677 26.0797 -0.147956 26.4295L0.563331 26.8114L11.3918 32.6254Q12.5252 30.6986 14.1562 29.3938Q14.7542 28.9154 15.4191 28.5206C17.1229 27.5396 19.0075 27.0491 21.0728 27.0491C23.0864 27.0491 24.7128 27.5138 25.952 28.4432C27.2428 29.3209 27.8882 30.5085 27.8882 32.0058C27.8882 33.0901 27.5268 34.1227 26.8039 35.1037ZM18.7292 70.5769Q20.8886 71.7689 23.706 71.7689Q26.6866 71.7689 28.9234 70.479Q29.8321 69.955 30.6181 69.2181Q31.9692 67.9092 32.6526 66.3142L32.6575 66.3027Q32.7126 66.1736 32.7632 66.0429Q33.3419 64.5485 33.3418 62.8301Q33.3418 60.9206 32.656 59.3345Q32.5458 59.0796 32.4181 58.8337Q31.7481 57.543 30.5985 56.5012Q29.9273 55.8929 29.1655 55.4353Q26.853 54.0462 23.706 54.0462Q20.5848 54.0462 18.2791 55.4175Q17.4944 55.8842 16.8042 56.5098Q15.7604 57.4862 15.125 58.6799Q14.9528 59.0035 14.8105 59.343Q14.1476 60.9254 14.1477 62.8301Q14.1477 64.5484 14.7262 66.0428Q14.7769 66.1736 14.832 66.3027Q15.5154 67.9045 16.881 69.2272Q17.7354 70.0283 18.7292 70.5769ZM17.4327 68.6387C19.085 70.1877 21.1761 70.9621 23.706 70.9621C26.2876 70.9621 28.4045 70.1877 30.0568 68.6387C31.709 67.0381 32.5351 65.1019 32.5351 62.8301C32.5351 60.5067 31.709 58.5963 30.0568 57.0989C28.4045 55.6016 26.2876 54.853 23.706 54.853C21.1244 54.853 19.0075 55.6016 17.3553 57.0989Q16.3748 58.0162 15.7947 59.14Q14.9544 60.7682 14.9544 62.8301C14.9544 65.1019 15.7805 67.0381 17.4327 68.6387Z" fill="rgb(39,26,88)" fill-rule="evenodd" transform="matrix(0.984808,0.173648,-0.174411,0.984673,634.151,266.294)" />
				</g>
			</g>
			<g id="Frame 2043683110" customFrame="url(#clipPath_56)">
				<rect id="Frame 2043683110" width="878.966492" height="223.833496" x="0.000000" y="0.000000" transform="matrix(0.984808,0.173648,-0.173648,0.984808,-154.099,293.934)" />
				<g id="Frame 2043683109" customFrame="url(#clipPath_57)">
					<rect id="Frame 2043683109" width="167.875168" height="223.833557" x="0.000000" y="0.000000" rx="30.000000" fill="rgb(0,158,228)" transform="matrix(0.984808,0.173648,-0.174411,0.984673,-153.928,293.964)" />
					<rect id="Frame 2043683109" width="166.875168" height="222.833557" x="0.500000" y="0.500000" rx="30.000000" stroke="rgb(39,26,88)" stroke-width="1" transform="matrix(0.984808,0.173648,-0.174411,0.984673,-153.928,293.964)" />
					<path id="?" d="M16.8132 50.5159C16.8132 47.9343 17.3811 45.8174 18.517 44.1651C19.6529 42.4613 21.3051 40.6025 23.4737 38.5889C24.971 37.1948 26.0811 36.0331 26.8039 35.1037C27.5268 34.1227 27.8882 33.0901 27.8882 32.0058C27.8882 30.5085 27.2428 29.3209 25.952 28.4432C24.7128 27.5138 23.0864 27.0491 21.0728 27.0491C19.0075 27.0491 17.1229 27.5396 15.4191 28.5206C13.7669 29.5016 12.4244 30.8699 11.3918 32.6254L-0.147956 26.4295C1.96896 22.8153 4.96361 20.0014 8.83601 17.9877C12.7084 15.9741 17.3811 14.9672 22.8541 14.9672C28.9983 14.9672 33.9292 16.258 37.6467 18.8396C41.4158 21.3696 43.3004 24.9322 43.3004 29.5275C43.3004 31.6444 42.9389 33.5289 42.2161 35.1812C41.4932 36.7818 40.6155 38.15 39.5829 39.2859C38.6019 40.3702 37.3111 41.6093 35.7105 43.0034C33.955 44.5007 32.6642 45.7915 31.8381 46.8758C31.012 47.9084 30.5989 49.1218 30.5989 50.5159L16.8132 50.5159ZM23.706 70.9621C21.1761 70.9621 19.085 70.1877 17.4327 68.6387C15.7805 67.0381 14.9544 65.1019 14.9544 62.8301C14.9544 60.5067 15.7547 58.5963 17.3553 57.0989C19.0075 55.6016 21.1244 54.853 23.706 54.853C26.2876 54.853 28.4045 55.6016 30.0568 57.0989C31.709 58.5963 32.5351 60.5067 32.5351 62.8301C32.5351 65.1019 31.709 67.0381 30.0568 68.6387C28.4045 70.1877 26.2876 70.9621 23.706 70.9621Z" fill="rgb(255,255,255)" fill-rule="nonzero" transform="matrix(0.984808,0.173648,-0.174411,0.984673,-106.516,372.812)" />
					<path id="?" d="M17.8522 43.7081Q16.0064 46.3929 16.0064 50.5159L16.0064 51.3226L31.4056 51.3226L31.4056 50.5159Q31.4056 49.361 31.839 48.4021Q32.0842 47.8596 32.468 47.3798L32.474 47.3723L32.4798 47.3647Q33.6665 45.8071 36.2403 43.6118Q38.6774 41.4892 40.1798 39.8286Q41.8146 38.0303 42.9552 35.5045Q44.1071 32.8716 44.1071 29.5275Q44.1071 25.8808 42.6001 23.0318Q42.5007 22.8441 42.395 22.6599Q40.8951 20.0485 38.1068 18.177Q32.3231 14.1605 22.8541 14.1605Q14.4474 14.1605 8.46381 17.2719Q4.68147 19.2388 1.97547 22.1919Q0.378179 23.935 -0.844087 26.0218L-1.26724 26.7443L11.6938 33.7032L12.0872 33.0344Q13.1905 31.1587 14.7885 29.922Q15.2815 29.5405 15.8216 29.2198Q16.5401 28.8061 17.3059 28.5179Q19.0648 27.8559 21.0728 27.8559Q23.8243 27.8559 25.468 29.0886L25.4829 29.0998L25.4984 29.1103Q26.3047 29.6586 26.6953 30.3774Q26.6988 30.3837 26.7021 30.39Q27.0815 31.096 27.0815 32.0058Q27.0815 32.2256 27.0573 32.4428Q26.9323 33.5658 26.1606 34.6168Q25.1157 35.9578 22.9247 37.9977Q19.6023 41.0828 17.8522 43.7081ZM26.8039 35.1037C26.0811 36.0331 24.971 37.1948 23.4737 38.5889C21.3051 40.6025 19.6529 42.4613 18.517 44.1651C17.5017 45.6419 16.9402 47.4899 16.8324 49.7091C16.8196 49.9728 16.8132 50.2417 16.8132 50.5159L30.5989 50.5159C30.5989 49.1218 31.012 47.9084 31.8381 46.8758C32.6642 45.7915 33.955 44.5007 35.7105 43.0034C37.3111 41.6093 38.6019 40.3702 39.5829 39.2859C40.6155 38.15 41.4932 36.7818 42.2161 35.1812C42.9389 33.5289 43.3004 31.6444 43.3004 29.5275C43.3004 24.9322 41.4158 21.3696 37.6467 18.8396Q32.0704 14.9672 22.8541 14.9672Q14.6446 14.9672 8.83601 17.9877Q5.15661 19.901 2.53379 22.7776Q1.28322 24.1492 0.272858 25.7398Q0.0569677 26.0797 -0.147956 26.4295L0.563331 26.8114L11.3918 32.6254Q12.5252 30.6986 14.1562 29.3938Q14.7542 28.9154 15.4191 28.5206C17.1229 27.5396 19.0075 27.0491 21.0728 27.0491C23.0864 27.0491 24.7128 27.5138 25.952 28.4432C27.2428 29.3209 27.8882 30.5085 27.8882 32.0058C27.8882 33.0901 27.5268 34.1227 26.8039 35.1037ZM18.7292 70.5769Q20.8886 71.7689 23.706 71.7689Q26.6866 71.7689 28.9234 70.479Q29.8321 69.955 30.6181 69.2181Q31.9692 67.9092 32.6526 66.3142L32.6575 66.3027Q32.7126 66.1736 32.7632 66.0429Q33.3419 64.5485 33.3418 62.8301Q33.3418 60.9206 32.656 59.3345Q32.5458 59.0796 32.4181 58.8337Q31.7481 57.543 30.5985 56.5012Q29.9273 55.8929 29.1655 55.4353Q26.853 54.0462 23.706 54.0462Q20.5848 54.0462 18.2791 55.4175Q17.4944 55.8842 16.8042 56.5098Q15.7604 57.4862 15.125 58.6799Q14.9528 59.0035 14.8105 59.343Q14.1476 60.9254 14.1477 62.8301Q14.1477 64.5484 14.7262 66.0428Q14.7769 66.1736 14.832 66.3027Q15.5154 67.9045 16.881 69.2272Q17.7354 70.0283 18.7292 70.5769ZM17.4327 68.6387C19.085 70.1877 21.1761 70.9621 23.706 70.9621C26.2876 70.9621 28.4045 70.1877 30.0568 68.6387C31.709 67.0381 32.5351 65.1019 32.5351 62.8301C32.5351 60.5067 31.709 58.5963 30.0568 57.0989C28.4045 55.6016 26.2876 54.853 23.706 54.853C21.1244 54.853 19.0075 55.6016 17.3553 57.0989Q16.3748 58.0162 15.7947 59.14Q14.9544 60.7682 14.9544 62.8301C14.9544 65.1019 15.7805 67.0381 17.4327 68.6387Z" fill="rgb(39,26,88)" fill-rule="evenodd" transform="matrix(0.984808,0.173648,-0.174411,0.984673,-106.516,372.812)" />
				</g>
				<g id="Frame 2043683105" customFrame="url(#clipPath_58)">
					<rect id="Frame 2043683105" width="167.875168" height="223.833557" x="0.000000" y="0.000000" rx="30.000000" fill="rgb(153,209,0)" transform="matrix(0.984808,0.173648,-0.174411,0.984673,21.1016,324.826)" />
					<rect id="Frame 2043683105" width="166.875168" height="222.833557" x="0.500000" y="0.500000" rx="30.000000" stroke="rgb(39,26,88)" stroke-width="1" transform="matrix(0.984808,0.173648,-0.174411,0.984673,21.1016,324.826)" />
					<path id="?" d="M20.7114 62.936C20.7114 59.736 21.4154 57.112 22.8234 55.064C24.2314 52.952 26.2794 50.648 28.9674 48.152C30.8234 46.424 32.1994 44.984 33.0954 43.832C33.9914 42.616 34.4394 41.336 34.4394 39.992C34.4394 38.136 33.6394 36.664 32.0394 35.576C30.5034 34.424 28.4874 33.848 25.9914 33.848C23.4314 33.848 21.0954 34.456 18.9834 35.672C16.9354 36.888 15.2714 38.584 13.9914 40.76L-0.312625 33.08C2.31138 28.6 6.02338 25.112 10.8234 22.616C15.6234 20.12 21.4154 18.872 28.1994 18.872C35.8154 18.872 41.9274 20.472 46.5354 23.672C51.2074 26.808 53.5434 31.224 53.5434 36.92C53.5434 39.544 53.0954 41.88 52.1994 43.928C51.3034 45.912 50.2154 47.608 48.9354 49.016C47.7194 50.36 46.1194 51.896 44.1354 53.624C41.9594 55.48 40.3594 57.08 39.3354 58.424C38.3114 59.704 37.7994 61.208 37.7994 62.936L20.7114 62.936ZM29.2554 88.28C26.1194 88.28 23.5274 87.32 21.4794 85.4C19.4314 83.416 18.4074 81.016 18.4074 78.2C18.4074 75.32 19.3994 72.952 21.3834 71.096C23.4314 69.24 26.0554 68.312 29.2554 68.312C32.4554 68.312 35.0794 69.24 37.1274 71.096C39.1754 72.952 40.1994 75.32 40.1994 78.2C40.1994 81.016 39.1754 83.416 37.1274 85.4C35.0794 87.32 32.4554 88.28 29.2554 88.28Z" fill="rgb(255,255,255)" fill-rule="nonzero" transform="matrix(0.984808,0.173648,-0.174411,0.984673,64.9287,392.38)" />
					<path id="?" d="M22.1586 54.607Q19.9046 57.8854 19.9046 62.936L19.9046 63.7427L38.6061 63.7427L38.6061 62.936Q38.6061 61.4708 39.1535 60.2512Q39.4686 59.5488 39.9653 58.928L39.9714 58.9205L39.9771 58.9129Q41.4607 56.9657 44.6652 54.2324Q47.6774 51.6088 49.5323 49.5587Q51.5381 47.3523 52.9385 44.2514Q54.3501 41.0248 54.3501 36.92Q54.3501 32.4478 52.5045 28.9588Q52.396 28.7536 52.2812 28.552Q50.4423 25.3229 46.9955 23.0094Q39.876 18.0652 28.1994 18.0652Q17.8262 18.0652 10.4512 21.9002Q5.78744 24.3254 2.45314 27.9676Q0.492309 30.1095 -1.00876 32.6723L-1.43191 33.3947L14.2933 41.8378L14.6867 41.169Q16.0616 38.8317 18.0503 37.2822Q18.6867 36.7863 19.3859 36.3711Q20.2984 35.8458 21.2712 35.4812Q23.4764 34.6548 25.9914 34.6548Q29.4665 34.6547 31.5553 36.2214L31.5702 36.2326L31.5857 36.2431Q32.624 36.9491 33.1305 37.8812Q33.1446 37.9072 33.1583 37.9333Q33.6326 38.8384 33.6326 39.992Q33.6326 40.2932 33.5975 40.5903Q33.429 42.0155 32.452 43.3451Q31.1474 45.02 28.4184 47.5608Q24.3168 51.3695 22.1586 54.607ZM33.0954 43.832C32.1994 44.984 30.8234 46.424 28.9674 48.152Q24.9354 51.896 22.8234 55.064Q20.8916 57.8738 20.7268 62.1292Q20.7114 62.5263 20.7114 62.936L37.7994 62.936C37.7994 61.208 38.3114 59.704 39.3354 58.424C40.3594 57.08 41.9594 55.48 44.1354 53.624Q47.1114 51.032 48.9354 49.016C50.2154 47.608 51.3034 45.912 52.1994 43.928C53.0954 41.88 53.5434 39.544 53.5434 36.92C53.5434 31.224 51.2074 26.808 46.5354 23.672Q39.6234 18.872 28.1994 18.872Q18.0234 18.872 10.8234 22.616Q6.26258 24.9876 3.01147 28.5533Q1.39712 30.3239 0.105696 32.3889Q-0.10788 32.7304 -0.312625 33.08L0.398658 33.4619L13.9914 40.76C15.2714 38.584 16.9354 36.888 18.9834 35.672C21.0954 34.456 23.4314 33.848 25.9914 33.848C28.4874 33.848 30.5034 34.424 32.0394 35.576Q33.3533 36.4695 33.9479 37.7082Q34.4394 38.7322 34.4394 39.992C34.4394 41.336 33.9914 42.616 33.0954 43.832ZM23.1595 87.6216Q25.8011 89.0867 29.2554 89.0867Q32.9178 89.0868 35.6564 87.4962Q36.7456 86.8636 37.6887 85.9794Q39.3415 84.3783 40.1734 82.4286Q40.2345 82.2853 40.2912 82.1403Q41.0061 80.3098 41.0061 78.2Q41.0061 75.873 40.1719 73.9438Q40.043 73.6459 39.8946 73.3581Q39.0783 71.7753 37.6691 70.4982Q36.863 69.7677 35.9492 69.2155Q33.119 67.5052 29.2554 67.5052Q25.4174 67.5052 22.5939 69.1977Q21.6573 69.7591 20.8322 70.5069Q19.5539 71.7027 18.7794 73.1655Q18.5759 73.5497 18.4073 73.9523Q17.6006 75.8778 17.6006 78.2Q17.6006 80.3098 18.3156 82.1403Q18.3722 82.2853 18.4333 82.4286Q19.2652 84.3782 20.9276 85.9886Q21.9598 86.9562 23.1595 87.6216ZM23.4653 86.8664Q25.9598 88.28 29.2554 88.28Q32.7848 88.28 35.38 86.7229Q36.3142 86.1624 37.1274 85.4Q38.7265 83.8509 39.4932 81.9636Q40.1994 80.2253 40.1994 78.2C40.1994 75.32 39.1754 72.952 37.1274 71.096Q36.4286 70.4627 35.6404 69.9735Q32.9635 68.312 29.2554 68.312Q25.5472 68.312 22.8704 69.9735Q22.0822 70.4627 21.3834 71.096C19.3994 72.952 18.4074 75.32 18.4074 78.2Q18.4074 80.2253 19.1136 81.9636Q19.8803 83.8509 21.4794 85.4Q22.3992 86.2623 23.4653 86.8664Z" fill="rgb(39,26,88)" fill-rule="evenodd" transform="matrix(0.984808,0.173648,-0.174411,0.984673,64.9287,392.38)" />
				</g>
				<g id="Frame 2043683106" customFrame="url(#clipPath_59)">
					<rect id="Frame 2043683106" width="167.875168" height="223.833557" x="0.000000" y="0.000000" rx="30.000000" fill="rgb(0,158,228)" transform="matrix(0.984808,0.173648,-0.174411,0.984673,196.131,355.688)" />
					<rect id="Frame 2043683106" width="166.875168" height="222.833557" x="0.500000" y="0.500000" rx="30.000000" stroke="rgb(39,26,88)" stroke-width="1" transform="matrix(0.984808,0.173648,-0.174411,0.984673,196.131,355.688)" />
					<path id="?" d="M20.7114 62.936C20.7114 59.736 21.4154 57.112 22.8234 55.064C24.2314 52.952 26.2794 50.648 28.9674 48.152C30.8234 46.424 32.1994 44.984 33.0954 43.832C33.9914 42.616 34.4394 41.336 34.4394 39.992C34.4394 38.136 33.6394 36.664 32.0394 35.576C30.5034 34.424 28.4874 33.848 25.9914 33.848C23.4314 33.848 21.0954 34.456 18.9834 35.672C16.9354 36.888 15.2714 38.584 13.9914 40.76L-0.312625 33.08C2.31138 28.6 6.02338 25.112 10.8234 22.616C15.6234 20.12 21.4154 18.872 28.1994 18.872C35.8154 18.872 41.9274 20.472 46.5354 23.672C51.2074 26.808 53.5434 31.224 53.5434 36.92C53.5434 39.544 53.0954 41.88 52.1994 43.928C51.3034 45.912 50.2154 47.608 48.9354 49.016C47.7194 50.36 46.1194 51.896 44.1354 53.624C41.9594 55.48 40.3594 57.08 39.3354 58.424C38.3114 59.704 37.7994 61.208 37.7994 62.936L20.7114 62.936ZM29.2554 88.28C26.1194 88.28 23.5274 87.32 21.4794 85.4C19.4314 83.416 18.4074 81.016 18.4074 78.2C18.4074 75.32 19.3994 72.952 21.3834 71.096C23.4314 69.24 26.0554 68.312 29.2554 68.312C32.4554 68.312 35.0794 69.24 37.1274 71.096C39.1754 72.952 40.1994 75.32 40.1994 78.2C40.1994 81.016 39.1754 83.416 37.1274 85.4C35.0794 87.32 32.4554 88.28 29.2554 88.28Z" fill="rgb(255,255,255)" fill-rule="nonzero" transform="matrix(0.984808,0.173648,-0.174411,0.984673,239.958,423.242)" />
					<path id="?" d="M22.1586 54.607Q19.9046 57.8854 19.9046 62.936L19.9046 63.7427L38.6061 63.7427L38.6061 62.936Q38.6061 61.4708 39.1535 60.2512Q39.4686 59.5488 39.9653 58.928L39.9714 58.9205L39.9771 58.9129Q41.4607 56.9657 44.6652 54.2324Q47.6774 51.6088 49.5323 49.5587Q51.5381 47.3523 52.9385 44.2514Q54.3501 41.0248 54.3501 36.92Q54.3501 32.4478 52.5045 28.9588Q52.396 28.7536 52.2812 28.552Q50.4423 25.3229 46.9955 23.0094Q39.876 18.0652 28.1994 18.0652Q17.8262 18.0652 10.4512 21.9002Q5.78744 24.3254 2.45314 27.9676Q0.492309 30.1095 -1.00876 32.6723L-1.43191 33.3947L14.2933 41.8378L14.6867 41.169Q16.0616 38.8317 18.0503 37.2822Q18.6867 36.7863 19.3859 36.3711Q20.2984 35.8458 21.2712 35.4812Q23.4764 34.6548 25.9914 34.6548Q29.4665 34.6547 31.5553 36.2214L31.5702 36.2326L31.5857 36.2431Q32.624 36.9491 33.1305 37.8812Q33.1446 37.9072 33.1583 37.9333Q33.6326 38.8384 33.6326 39.992Q33.6326 40.2932 33.5975 40.5903Q33.429 42.0155 32.452 43.3451Q31.1474 45.02 28.4184 47.5608Q24.3168 51.3695 22.1586 54.607ZM33.0954 43.832C32.1994 44.984 30.8234 46.424 28.9674 48.152Q24.9354 51.896 22.8234 55.064Q20.8916 57.8738 20.7268 62.1292Q20.7114 62.5263 20.7114 62.936L37.7994 62.936C37.7994 61.208 38.3114 59.704 39.3354 58.424C40.3594 57.08 41.9594 55.48 44.1354 53.624Q47.1114 51.032 48.9354 49.016C50.2154 47.608 51.3034 45.912 52.1994 43.928C53.0954 41.88 53.5434 39.544 53.5434 36.92C53.5434 31.224 51.2074 26.808 46.5354 23.672Q39.6234 18.872 28.1994 18.872Q18.0234 18.872 10.8234 22.616Q6.26258 24.9876 3.01147 28.5533Q1.39712 30.3239 0.105696 32.3889Q-0.10788 32.7304 -0.312625 33.08L0.398658 33.4619L13.9914 40.76C15.2714 38.584 16.9354 36.888 18.9834 35.672C21.0954 34.456 23.4314 33.848 25.9914 33.848C28.4874 33.848 30.5034 34.424 32.0394 35.576Q33.3533 36.4695 33.9479 37.7082Q34.4394 38.7322 34.4394 39.992C34.4394 41.336 33.9914 42.616 33.0954 43.832ZM23.1595 87.6216Q25.8011 89.0867 29.2554 89.0867Q32.9178 89.0868 35.6564 87.4962Q36.7456 86.8636 37.6887 85.9794Q39.3415 84.3783 40.1734 82.4286Q40.2345 82.2853 40.2912 82.1403Q41.0061 80.3098 41.0061 78.2Q41.0061 75.873 40.1719 73.9438Q40.043 73.6459 39.8946 73.3581Q39.0783 71.7753 37.6691 70.4982Q36.863 69.7677 35.9492 69.2155Q33.119 67.5052 29.2554 67.5052Q25.4174 67.5052 22.5939 69.1977Q21.6573 69.7591 20.8322 70.5069Q19.5539 71.7027 18.7794 73.1655Q18.5759 73.5497 18.4073 73.9523Q17.6006 75.8778 17.6006 78.2Q17.6006 80.3098 18.3156 82.1403Q18.3722 82.2853 18.4333 82.4286Q19.2652 84.3782 20.9276 85.9886Q21.9598 86.9562 23.1595 87.6216ZM23.4653 86.8664Q25.9598 88.28 29.2554 88.28Q32.7848 88.28 35.38 86.7229Q36.3142 86.1624 37.1274 85.4Q38.7265 83.8509 39.4932 81.9636Q40.1994 80.2253 40.1994 78.2C40.1994 75.32 39.1754 72.952 37.1274 71.096Q36.4286 70.4627 35.6404 69.9735Q32.9635 68.312 29.2554 68.312Q25.5472 68.312 22.8704 69.9735Q22.0822 70.4627 21.3834 71.096C19.3994 72.952 18.4074 75.32 18.4074 78.2Q18.4074 80.2253 19.1136 81.9636Q19.8803 83.8509 21.4794 85.4Q22.3992 86.2623 23.4653 86.8664Z" fill="rgb(39,26,88)" fill-rule="evenodd" transform="matrix(0.984808,0.173648,-0.174411,0.984673,239.958,423.242)" />
				</g>
				<g id="Frame 2043683107" customFrame="url(#clipPath_60)">
					<rect id="Frame 2043683107" width="167.875168" height="223.833557" x="0.000000" y="0.000000" rx="30.000000" fill="rgb(173,97,255)" transform="matrix(0.984808,0.173648,-0.174411,0.984673,371.16,386.551)" />
					<rect id="Frame 2043683107" width="166.875168" height="222.833557" x="0.500000" y="0.500000" rx="30.000000" stroke="rgb(39,26,88)" stroke-width="1" transform="matrix(0.984808,0.173648,-0.174411,0.984673,371.16,386.551)" />
					<path id="?" d="M16.8132 50.5159C16.8132 47.9343 17.3811 45.8174 18.517 44.1651C19.6529 42.4613 21.3051 40.6025 23.4737 38.5889C24.971 37.1948 26.0811 36.0331 26.8039 35.1037C27.5268 34.1227 27.8882 33.0901 27.8882 32.0058C27.8882 30.5085 27.2428 29.3209 25.952 28.4432C24.7128 27.5138 23.0864 27.0491 21.0728 27.0491C19.0075 27.0491 17.1229 27.5396 15.4191 28.5206C13.7669 29.5016 12.4244 30.8699 11.3918 32.6254L-0.147956 26.4295C1.96896 22.8153 4.96361 20.0014 8.83601 17.9877C12.7084 15.9741 17.3811 14.9672 22.8541 14.9672C28.9983 14.9672 33.9292 16.258 37.6467 18.8396C41.4158 21.3696 43.3004 24.9322 43.3004 29.5275C43.3004 31.6444 42.9389 33.5289 42.2161 35.1812C41.4932 36.7818 40.6155 38.15 39.5829 39.2859C38.6019 40.3702 37.3111 41.6093 35.7105 43.0034C33.955 44.5007 32.6642 45.7915 31.8381 46.8758C31.012 47.9084 30.5989 49.1218 30.5989 50.5159L16.8132 50.5159ZM23.706 70.9621C21.1761 70.9621 19.085 70.1877 17.4327 68.6387C15.7805 67.0381 14.9544 65.1019 14.9544 62.8301C14.9544 60.5067 15.7547 58.5963 17.3553 57.0989C19.0075 55.6016 21.1244 54.853 23.706 54.853C26.2876 54.853 28.4045 55.6016 30.0568 57.0989C31.709 58.5963 32.5351 60.5067 32.5351 62.8301C32.5351 65.1019 31.709 67.0381 30.0568 68.6387C28.4045 70.1877 26.2876 70.9621 23.706 70.9621Z" fill="rgb(255,255,255)" fill-rule="nonzero" transform="matrix(0.984808,0.173648,-0.174411,0.984673,418.573,465.399)" />
					<path id="?" d="M17.8522 43.7081Q16.0064 46.3929 16.0064 50.5159L16.0064 51.3226L31.4056 51.3226L31.4056 50.5159Q31.4056 49.361 31.839 48.4021Q32.0842 47.8596 32.468 47.3798L32.474 47.3723L32.4798 47.3647Q33.6665 45.8071 36.2403 43.6118Q38.6774 41.4892 40.1798 39.8286Q41.8146 38.0303 42.9552 35.5045Q44.1071 32.8716 44.1071 29.5275Q44.1071 25.8808 42.6001 23.0318Q42.5007 22.8441 42.395 22.6599Q40.8951 20.0485 38.1068 18.177Q32.3231 14.1605 22.8541 14.1605Q14.4474 14.1605 8.46381 17.2719Q4.68147 19.2388 1.97547 22.1919Q0.378179 23.935 -0.844087 26.0218L-1.26724 26.7443L11.6938 33.7032L12.0872 33.0344Q13.1905 31.1587 14.7885 29.922Q15.2815 29.5405 15.8216 29.2198Q16.5401 28.8061 17.3059 28.5179Q19.0648 27.8559 21.0728 27.8559Q23.8243 27.8559 25.468 29.0886L25.4829 29.0998L25.4984 29.1103Q26.3047 29.6586 26.6953 30.3774Q26.6988 30.3837 26.7021 30.39Q27.0815 31.096 27.0815 32.0058Q27.0815 32.2256 27.0573 32.4428Q26.9323 33.5658 26.1606 34.6168Q25.1157 35.9578 22.9247 37.9977Q19.6023 41.0828 17.8522 43.7081ZM26.8039 35.1037C26.0811 36.0331 24.971 37.1948 23.4737 38.5889C21.3051 40.6025 19.6529 42.4613 18.517 44.1651C17.5017 45.6419 16.9402 47.4899 16.8324 49.7091C16.8196 49.9728 16.8132 50.2417 16.8132 50.5159L30.5989 50.5159C30.5989 49.1218 31.012 47.9084 31.8381 46.8758C32.6642 45.7915 33.955 44.5007 35.7105 43.0034C37.3111 41.6093 38.6019 40.3702 39.5829 39.2859C40.6155 38.15 41.4932 36.7818 42.2161 35.1812C42.9389 33.5289 43.3004 31.6444 43.3004 29.5275C43.3004 24.9322 41.4158 21.3696 37.6467 18.8396Q32.0704 14.9672 22.8541 14.9672Q14.6446 14.9672 8.83601 17.9877Q5.15661 19.901 2.53379 22.7776Q1.28322 24.1492 0.272858 25.7398Q0.0569677 26.0797 -0.147956 26.4295L0.563331 26.8114L11.3918 32.6254Q12.5252 30.6986 14.1562 29.3938Q14.7542 28.9154 15.4191 28.5206C17.1229 27.5396 19.0075 27.0491 21.0728 27.0491C23.0864 27.0491 24.7128 27.5138 25.952 28.4432C27.2428 29.3209 27.8882 30.5085 27.8882 32.0058C27.8882 33.0901 27.5268 34.1227 26.8039 35.1037ZM18.7292 70.5769Q20.8886 71.7689 23.706 71.7689Q26.6866 71.7689 28.9234 70.479Q29.8321 69.955 30.6181 69.2181Q31.9692 67.9092 32.6526 66.3142L32.6575 66.3027Q32.7126 66.1736 32.7632 66.0429Q33.3419 64.5485 33.3418 62.8301Q33.3418 60.9206 32.656 59.3345Q32.5458 59.0796 32.4181 58.8337Q31.7481 57.543 30.5985 56.5012Q29.9273 55.8929 29.1655 55.4353Q26.853 54.0462 23.706 54.0462Q20.5848 54.0462 18.2791 55.4175Q17.4944 55.8842 16.8042 56.5098Q15.7604 57.4862 15.125 58.6799Q14.9528 59.0035 14.8105 59.343Q14.1476 60.9254 14.1477 62.8301Q14.1477 64.5484 14.7262 66.0428Q14.7769 66.1736 14.832 66.3027Q15.5154 67.9045 16.881 69.2272Q17.7354 70.0283 18.7292 70.5769ZM17.4327 68.6387C19.085 70.1877 21.1761 70.9621 23.706 70.9621C26.2876 70.9621 28.4045 70.1877 30.0568 68.6387C31.709 67.0381 32.5351 65.1019 32.5351 62.8301C32.5351 60.5067 31.709 58.5963 30.0568 57.0989C28.4045 55.6016 26.2876 54.853 23.706 54.853C21.1244 54.853 19.0075 55.6016 17.3553 57.0989Q16.3748 58.0162 15.7947 59.14Q14.9544 60.7682 14.9544 62.8301C14.9544 65.1019 15.7805 67.0381 17.4327 68.6387Z" fill="rgb(39,26,88)" fill-rule="evenodd" transform="matrix(0.984808,0.173648,-0.174411,0.984673,418.573,465.399)" />
				</g>
				<g id="Frame 2043683108" customFrame="url(#clipPath_61)">
					<rect id="Frame 2043683108" width="167.875168" height="223.833557" x="0.000000" y="0.000000" rx="30.000000" fill="rgb(86,94,239)" transform="matrix(0.984808,0.173648,-0.174411,0.984673,546.189,417.414)" />
					<rect id="Frame 2043683108" width="166.875168" height="222.833557" x="0.500000" y="0.500000" rx="30.000000" stroke="rgb(39,26,88)" stroke-width="1" transform="matrix(0.984808,0.173648,-0.174411,0.984673,546.189,417.414)" />
					<path id="?" d="M16.8132 50.5159C16.8132 47.9343 17.3811 45.8174 18.517 44.1651C19.6529 42.4613 21.3051 40.6025 23.4737 38.5889C24.971 37.1948 26.0811 36.0331 26.8039 35.1037C27.5268 34.1227 27.8882 33.0901 27.8882 32.0058C27.8882 30.5085 27.2428 29.3209 25.952 28.4432C24.7128 27.5138 23.0864 27.0491 21.0728 27.0491C19.0075 27.0491 17.1229 27.5396 15.4191 28.5206C13.7669 29.5016 12.4244 30.8699 11.3918 32.6254L-0.147956 26.4295C1.96896 22.8153 4.96361 20.0014 8.83601 17.9877C12.7084 15.9741 17.3811 14.9672 22.8541 14.9672C28.9983 14.9672 33.9292 16.258 37.6467 18.8396C41.4158 21.3696 43.3004 24.9322 43.3004 29.5275C43.3004 31.6444 42.9389 33.5289 42.2161 35.1812C41.4932 36.7818 40.6155 38.15 39.5829 39.2859C38.6019 40.3702 37.3111 41.6093 35.7105 43.0034C33.955 44.5007 32.6642 45.7915 31.8381 46.8758C31.012 47.9084 30.5989 49.1218 30.5989 50.5159L16.8132 50.5159ZM23.706 70.9621C21.1761 70.9621 19.085 70.1877 17.4327 68.6387C15.7805 67.0381 14.9544 65.1019 14.9544 62.8301C14.9544 60.5067 15.7547 58.5963 17.3553 57.0989C19.0075 55.6016 21.1244 54.853 23.706 54.853C26.2876 54.853 28.4045 55.6016 30.0568 57.0989C31.709 58.5963 32.5351 60.5067 32.5351 62.8301C32.5351 65.1019 31.709 67.0381 30.0568 68.6387C28.4045 70.1877 26.2876 70.9621 23.706 70.9621Z" fill="rgb(255,255,255)" fill-rule="nonzero" transform="matrix(0.984808,0.173648,-0.174411,0.984673,593.602,496.261)" />
					<path id="?" d="M17.8522 43.7081Q16.0064 46.3929 16.0064 50.5159L16.0064 51.3226L31.4056 51.3226L31.4056 50.5159Q31.4056 49.361 31.839 48.4021Q32.0842 47.8596 32.468 47.3798L32.474 47.3723L32.4798 47.3647Q33.6665 45.8071 36.2403 43.6118Q38.6774 41.4892 40.1798 39.8286Q41.8146 38.0303 42.9552 35.5045Q44.1071 32.8716 44.1071 29.5275Q44.1071 25.8808 42.6001 23.0318Q42.5007 22.8441 42.395 22.6599Q40.8951 20.0485 38.1068 18.177Q32.3231 14.1605 22.8541 14.1605Q14.4474 14.1605 8.46381 17.2719Q4.68147 19.2388 1.97547 22.1919Q0.378179 23.935 -0.844087 26.0218L-1.26724 26.7443L11.6938 33.7032L12.0872 33.0344Q13.1905 31.1587 14.7885 29.922Q15.2815 29.5405 15.8216 29.2198Q16.5401 28.8061 17.3059 28.5179Q19.0648 27.8559 21.0728 27.8559Q23.8243 27.8559 25.468 29.0886L25.4829 29.0998L25.4984 29.1103Q26.3047 29.6586 26.6953 30.3774Q26.6988 30.3837 26.7021 30.39Q27.0815 31.096 27.0815 32.0058Q27.0815 32.2256 27.0573 32.4428Q26.9323 33.5658 26.1606 34.6168Q25.1157 35.9578 22.9247 37.9977Q19.6023 41.0828 17.8522 43.7081ZM26.8039 35.1037C26.0811 36.0331 24.971 37.1948 23.4737 38.5889C21.3051 40.6025 19.6529 42.4613 18.517 44.1651C17.5017 45.6419 16.9402 47.4899 16.8324 49.7091C16.8196 49.9728 16.8132 50.2417 16.8132 50.5159L30.5989 50.5159C30.5989 49.1218 31.012 47.9084 31.8381 46.8758C32.6642 45.7915 33.955 44.5007 35.7105 43.0034C37.3111 41.6093 38.6019 40.3702 39.5829 39.2859C40.6155 38.15 41.4932 36.7818 42.2161 35.1812C42.9389 33.5289 43.3004 31.6444 43.3004 29.5275C43.3004 24.9322 41.4158 21.3696 37.6467 18.8396Q32.0704 14.9672 22.8541 14.9672Q14.6446 14.9672 8.83601 17.9877Q5.15661 19.901 2.53379 22.7776Q1.28322 24.1492 0.272858 25.7398Q0.0569677 26.0797 -0.147956 26.4295L0.563331 26.8114L11.3918 32.6254Q12.5252 30.6986 14.1562 29.3938Q14.7542 28.9154 15.4191 28.5206C17.1229 27.5396 19.0075 27.0491 21.0728 27.0491C23.0864 27.0491 24.7128 27.5138 25.952 28.4432C27.2428 29.3209 27.8882 30.5085 27.8882 32.0058C27.8882 33.0901 27.5268 34.1227 26.8039 35.1037ZM18.7292 70.5769Q20.8886 71.7689 23.706 71.7689Q26.6866 71.7689 28.9234 70.479Q29.8321 69.955 30.6181 69.2181Q31.9692 67.9092 32.6526 66.3142L32.6575 66.3027Q32.7126 66.1736 32.7632 66.0429Q33.3419 64.5485 33.3418 62.8301Q33.3418 60.9206 32.656 59.3345Q32.5458 59.0796 32.4181 58.8337Q31.7481 57.543 30.5985 56.5012Q29.9273 55.8929 29.1655 55.4353Q26.853 54.0462 23.706 54.0462Q20.5848 54.0462 18.2791 55.4175Q17.4944 55.8842 16.8042 56.5098Q15.7604 57.4862 15.125 58.6799Q14.9528 59.0035 14.8105 59.343Q14.1476 60.9254 14.1477 62.8301Q14.1477 64.5484 14.7262 66.0428Q14.7769 66.1736 14.832 66.3027Q15.5154 67.9045 16.881 69.2272Q17.7354 70.0283 18.7292 70.5769ZM17.4327 68.6387C19.085 70.1877 21.1761 70.9621 23.706 70.9621C26.2876 70.9621 28.4045 70.1877 30.0568 68.6387C31.709 67.0381 32.5351 65.1019 32.5351 62.8301C32.5351 60.5067 31.709 58.5963 30.0568 57.0989C28.4045 55.6016 26.2876 54.853 23.706 54.853C21.1244 54.853 19.0075 55.6016 17.3553 57.0989Q16.3748 58.0162 15.7947 59.14Q14.9544 60.7682 14.9544 62.8301C14.9544 65.1019 15.7805 67.0381 17.4327 68.6387Z" fill="rgb(39,26,88)" fill-rule="evenodd" transform="matrix(0.984808,0.173648,-0.174411,0.984673,593.602,496.261)" />
				</g>
			</g>
		</g>
		<g id="Group 1597880560">
			<g id="Frame 2043683065" filter="url(#filter_2)" customFrame="url(#clipPath_62)">
				<rect id="Frame 2043683065" width="217.818085" height="290.424133" x="0.000000" y="0.000000" rx="30.000000" fill="rgb(255,199,0)" transform="matrix(0.984808,0.173648,-0.174411,0.984673,217.995,88.4717)" />
				<rect id="Frame 2043683065" width="218.818085" height="291.424133" x="-0.500000" y="-0.500000" rx="30.000000" stroke="rgb(39,26,88)" stroke-width="1" transform="matrix(0.984808,0.173648,-0.174411,0.984673,217.995,88.4717)" />
				<rect id="Frame 2043683065" width="218.818085" height="291.424133" x="-0.500000" y="-0.500000" rx="30.000000" stroke="rgb(0,0,0)" stroke-opacity="0.200000003" stroke-width="1" transform="matrix(0.984808,0.173648,-0.174411,0.984673,217.995,88.4717)" />
			</g>
			<path id="✊" transform="matrix(0.984808,0.173648,-0.174411,0.984673,248.698,169.75)" />
		</g>
	</g>
</svg>
