<svg width="600" height="500" viewBox="0 0 600 500" fill="none" xmlns="http://www.w3.org/2000/svg">
<g clip-path="url(#clip0_18933_270)">
<rect width="600" height="500" rx="30" fill="#271A58"/>
<rect x="0.405198" y="0.579161" width="159" height="159" rx="29.5" transform="matrix(0.984808 0.173648 -0.174411 0.984673 30.6155 -148.04)" fill="#D9B6FF"/>
<rect x="0.405198" y="0.579161" width="159" height="159" rx="29.5" transform="matrix(0.984808 0.173648 -0.174411 0.984673 30.6155 -148.04)" stroke="#271A58"/>
<rect x="0.405198" y="0.579161" width="159" height="159" rx="29.5" transform="matrix(0.984808 0.173648 -0.174411 0.984673 200.124 -118.151)" fill="#1FA46C"/>
<rect x="0.405198" y="0.579161" width="159" height="159" rx="29.5" transform="matrix(0.984808 0.173648 -0.174411 0.984673 200.124 -118.151)" stroke="#271A58"/>
<rect x="0.405198" y="0.579161" width="159" height="159" rx="29.5" transform="matrix(0.984808 0.173648 -0.174411 0.984673 369.634 -88.2622)" fill="#565EEF"/>
<rect x="0.405198" y="0.579161" width="159" height="159" rx="29.5" transform="matrix(0.984808 0.173648 -0.174411 0.984673 369.634 -88.2622)" stroke="#271A58"/>
<rect x="0.405198" y="0.579161" width="159" height="159" rx="29.5" transform="matrix(0.984808 0.173648 -0.174411 0.984673 539.142 -58.373)" fill="#00C1FF"/>
<rect x="0.405198" y="0.579161" width="159" height="159" rx="29.5" transform="matrix(0.984808 0.173648 -0.174411 0.984673 539.142 -58.373)" stroke="#271A58"/>
<rect x="0.405198" y="0.579161" width="159" height="159" rx="29.5" transform="matrix(0.984808 0.173648 -0.174411 0.984673 0.747793 21.3467)" fill="#F25050"/>
<rect x="0.405198" y="0.579161" width="159" height="159" rx="29.5" transform="matrix(0.984808 0.173648 -0.174411 0.984673 0.747793 21.3467)" stroke="#271A58"/>
<rect x="0.405198" y="0.579161" width="159" height="159" rx="29.5" transform="matrix(0.984808 0.173648 -0.174411 0.984673 170.257 51.2359)" fill="#FFC700"/>
<rect x="0.405198" y="0.579161" width="159" height="159" rx="29.5" transform="matrix(0.984808 0.173648 -0.174411 0.984673 170.257 51.2359)" stroke="#271A58"/>
<rect x="0.405198" y="0.579161" width="159" height="159" rx="29.5" transform="matrix(0.984808 0.173648 -0.174411 0.984673 339.766 81.125)" fill="#99D100"/>
<rect x="0.405198" y="0.579161" width="159" height="159" rx="29.5" transform="matrix(0.984808 0.173648 -0.174411 0.984673 339.766 81.125)" stroke="#271A58"/>
<rect x="0.405198" y="0.579161" width="159" height="159" rx="29.5" transform="matrix(0.984808 0.173648 -0.174411 0.984673 509.275 111.014)" fill="#AD61FF"/>
<rect x="0.405198" y="0.579161" width="159" height="159" rx="29.5" transform="matrix(0.984808 0.173648 -0.174411 0.984673 509.275 111.014)" stroke="#271A58"/>
<rect x="0.405198" y="0.579161" width="159" height="159" rx="29.5" transform="matrix(0.984808 0.173648 -0.174411 0.984673 -29.1194 190.734)" fill="#565EEF"/>
<rect x="0.405198" y="0.579161" width="159" height="159" rx="29.5" transform="matrix(0.984808 0.173648 -0.174411 0.984673 -29.1194 190.734)" stroke="#271A58"/>
<rect x="0.405198" y="0.579161" width="159" height="159" rx="29.5" transform="matrix(0.984808 0.173648 -0.174411 0.984673 140.389 220.623)" fill="#00C1FF"/>
<rect x="0.405198" y="0.579161" width="159" height="159" rx="29.5" transform="matrix(0.984808 0.173648 -0.174411 0.984673 140.389 220.623)" stroke="#271A58"/>
<rect x="0.405198" y="0.579161" width="159" height="159" rx="29.5" transform="matrix(0.984808 0.173648 -0.174411 0.984673 309.898 250.512)" fill="#FF6D00"/>
<rect x="0.405198" y="0.579161" width="159" height="159" rx="29.5" transform="matrix(0.984808 0.173648 -0.174411 0.984673 309.898 250.512)" stroke="#271A58"/>
<rect x="0.405198" y="0.579161" width="159" height="159" rx="29.5" transform="matrix(0.984808 0.173648 -0.174411 0.984673 479.407 280.401)" fill="#1FA46C"/>
<rect x="0.405198" y="0.579161" width="159" height="159" rx="29.5" transform="matrix(0.984808 0.173648 -0.174411 0.984673 479.407 280.401)" stroke="#271A58"/>
<rect x="0.405198" y="0.579161" width="159" height="159" rx="29.5" transform="matrix(0.984808 0.173648 -0.174411 0.984673 -58.9871 360.121)" fill="#AD61FF"/>
<rect x="0.405198" y="0.579161" width="159" height="159" rx="29.5" transform="matrix(0.984808 0.173648 -0.174411 0.984673 -58.9871 360.121)" stroke="#271A58"/>
<rect x="0.405198" y="0.579161" width="159" height="159" rx="29.5" transform="matrix(0.984808 0.173648 -0.174411 0.984673 110.522 390.01)" fill="#99D100"/>
<rect x="0.405198" y="0.579161" width="159" height="159" rx="29.5" transform="matrix(0.984808 0.173648 -0.174411 0.984673 110.522 390.01)" stroke="#271A58"/>
<rect x="0.405198" y="0.579161" width="159" height="159" rx="29.5" transform="matrix(0.984808 0.173648 -0.174411 0.984673 280.031 419.899)" fill="#FFC700"/>
<rect x="0.405198" y="0.579161" width="159" height="159" rx="29.5" transform="matrix(0.984808 0.173648 -0.174411 0.984673 280.031 419.899)" stroke="#271A58"/>
<rect x="0.405198" y="0.579161" width="159" height="159" rx="29.5" transform="matrix(0.984808 0.173648 -0.174411 0.984673 449.54 449.788)" fill="#D9B6FF"/>
<rect x="0.405198" y="0.579161" width="159" height="159" rx="29.5" transform="matrix(0.984808 0.173648 -0.174411 0.984673 449.54 449.788)" stroke="#271A58"/>
</g>
<defs>
<clipPath id="clip0_18933_270">
<rect width="600" height="500" rx="30" fill="white"/>
</clipPath>
</defs>
</svg>
